<svg width="77" height="41" viewBox="0 0 77 41" fill="none" xmlns="http://www.w3.org/2000/svg">
<path d="M20.3768 6.06239C21.5482 4.49208 22.434 2.26908 22.1119 0C20.2048 0.138218 17.9718 1.40905 16.6687 3.07151C15.4863 4.57655 14.5089 6.81107 14.8896 8.98416C16.9725 9.05327 19.1286 7.74788 20.3768 6.06239Z" fill="#CFD5DC"/>
<path d="M26.1935 23.2857C25.5651 21.7884 25.3629 20.1323 25.6115 18.5172C25.8941 16.6584 26.8033 14.9677 28.1739 13.7525C28.598 13.3763 29.058 13.0469 29.5466 12.7696C27.7163 10.3662 25.1539 8.98016 22.7087 8.98016C19.4947 8.98016 18.133 10.5812 15.9037 10.5812C13.6049 10.5812 11.8552 8.984 9.07682 8.984C6.29846 8.984 3.43592 10.7232 1.59466 13.6988L1.56172 13.7525C0.737598 15.2047 0.237057 16.8335 0.0974989 18.5172C-0.0640785 20.1052 -0.0246911 21.7086 0.214636 23.2857C0.457837 24.917 0.872795 26.515 1.4519 28.0504C2.03716 29.5963 2.77318 31.0746 3.64823 32.4619L3.87518 32.8189C5.3394 35.1225 7.28681 37.5567 9.77964 37.5836C12.1114 37.5836 12.774 36.021 15.9367 36.0018C19.0994 35.9826 19.6997 37.5989 22.0315 37.5759C24.4218 37.5529 26.3912 35.0726 27.8591 32.8189L28.2727 32.1662C29.1023 30.8668 29.8167 29.4904 30.4068 28.0542L30.5825 27.6434C29.6101 27.2621 28.7206 26.6799 27.9667 25.9314C27.2128 25.1828 26.6098 24.2832 26.1935 23.2857Z" fill="#CFD5DC"/>
<path fill-rule="evenodd" clip-rule="evenodd" d="M9.53912 0.0440646C9.59089 0.0153697 9.64365 0.000688629 9.70006 2.13064e-05C9.82085 -0.00131334 9.93534 0.0600804 10 0.176862L11.7037 3.27658C13.0975 2.65263 14.6608 2.30229 16.3107 2.30229C17.9603 2.30229 19.5239 2.65263 20.9176 3.27658L22.6213 0.176862C22.6857 0.0600804 22.8005 -0.00131334 22.9213 2.13064e-05C22.9777 0.000688629 23.0301 0.0153697 23.0822 0.0440646C23.2525 0.139492 23.3082 0.337019 23.2136 0.509189L21.5319 3.57487C24.7677 5.27387 26.9535 8.50305 26.9578 12.2087H5.66354C5.66785 8.50305 7.85369 5.27387 11.0895 3.57487L9.40771 0.509189C9.3128 0.337019 9.36888 0.139492 9.53912 0.0440646ZM10.5081 7.37928C10.5081 6.88813 10.9106 6.4824 11.3964 6.4824C11.8826 6.4824 12.2851 6.88813 12.2851 7.37928C12.2851 7.86976 11.8826 8.27549 11.3964 8.27549C10.9106 8.27549 10.5081 7.86976 10.5081 7.37928ZM20.3362 7.37928C20.3362 6.88813 20.7384 6.4824 21.2246 6.4824C21.7107 6.4824 22.1133 6.88813 22.1133 7.37928C22.1133 7.86976 21.7107 8.27549 21.2246 8.27549C20.7384 8.27549 20.3362 7.86976 20.3362 7.37928Z" transform="translate(44.3787 2.0498)" fill="#CFD5DC"/>
<path d="M5.66354 28.6308V13.0575H26.9578V28.6308C26.9578 30.0696 25.8096 31.2281 24.3837 31.2281H22.6761V36.5413C22.6761 37.8826 21.6182 38.9503 20.2885 38.9503C18.9591 38.9503 17.9012 37.8826 17.9012 36.5413V31.2281H14.7202V36.5413C14.7202 37.8826 13.6622 38.9503 12.3326 38.9503C11.0029 38.9503 9.94496 37.8826 9.94496 36.5413V31.2281H8.23763C6.81171 31.2281 5.66354 30.0696 5.66354 28.6308Z" transform="translate(44.3787 2.0498)" fill="#CFD5DC"/>
<path d="M2.3876 12.6438C1.05791 12.6438 0 13.7115 0 15.0528V25.0887C0 26.43 1.05791 27.4977 2.3876 27.4977C3.71729 27.4977 4.7752 26.43 4.7752 25.0887V15.0528C4.7752 13.7115 3.71729 12.6438 2.3876 12.6438Z" transform="translate(44.3787 2.0498)" fill="#CFD5DC"/>
<path d="M30.2338 12.6438C28.9041 12.6438 27.8462 13.7115 27.8462 15.0528V25.0887C27.8462 26.43 28.9041 27.4977 30.2338 27.4977C31.5634 27.4977 32.6214 26.43 32.6214 25.0887V15.0528C32.6214 13.7115 31.5634 12.6438 30.2338 12.6438Z" transform="translate(44.3787 2.0498)" fill="#CFD5DC"/>
</svg>
