<svg width="121" height="35" viewBox="0 0 121 35" fill="none" xmlns="http://www.w3.org/2000/svg">
<path fill-rule="evenodd" clip-rule="evenodd" d="M35.2969 25.9599V10.0508H37.1953L46.2188 22.8538V10.0508H48.0234V25.9599H46.125L37.1016 13.0306V25.9599H35.2969Z" transform="translate(0.485352)" fill="#CFD5DC"/>
<path fill-rule="evenodd" clip-rule="evenodd" d="M62.7188 25.3288C61.5234 25.8086 60.2344 26.0612 58.875 26.0612C53.5312 26.0612 50.8594 23.3086 50.8594 17.7783C50.8594 12.5511 53.4375 9.9248 58.5938 9.9248C60.0703 9.9248 61.4531 10.1521 62.7188 10.5814V12.349C61.4531 11.8187 60.1406 11.5662 58.8047 11.5662C54.7734 11.5662 52.7578 13.6369 52.7578 17.7278C52.7578 22.147 54.75 24.344 58.7109 24.344C59.3438 24.344 60.0469 24.243 60.8203 24.0662V18.7379H62.7188V25.3288Z" transform="translate(0.485352)" fill="#CFD5DC"/>
<path fill-rule="evenodd" clip-rule="evenodd" d="M65.7656 19.8235V10.0508H67.6641V19.8235C67.6641 22.8791 69.0703 24.4195 71.9062 24.4195C74.7188 24.4195 76.1484 22.8791 76.1484 19.8235V10.0508H78.0469V19.8235C78.0469 23.9902 76.0078 26.0861 71.9062 26.0861C67.8047 26.0861 65.7656 23.9902 65.7656 19.8235Z" transform="translate(0.485352)" fill="#CFD5DC"/>
<path fill-rule="evenodd" clip-rule="evenodd" d="M83.3438 10.0508V24.2932H91.0781V25.9599H81.4453V10.0508H83.3438Z" transform="translate(0.485352)" fill="#CFD5DC"/>
<path fill-rule="evenodd" clip-rule="evenodd" d="M93.8203 25.9601H91.8281L99.1641 7.95508L106.5 25.9601H104.391L102.492 20.9601H97.6172L98.1328 19.2935H101.859L99.0938 12.0965L93.8203 25.9601Z" transform="translate(0.485352)" fill="#CFD5DC"/>
<path fill-rule="evenodd" clip-rule="evenodd" d="M108.539 25.9599V10.0508H114.844C117.656 10.0508 119.062 11.3134 119.062 13.8639C119.062 15.9346 117.68 17.475 114.938 18.4599L120 25.9599H117.492L112.805 18.8134V17.475C115.617 16.9952 117.047 15.8336 117.047 13.9649C117.047 12.5003 116.273 11.768 114.703 11.768H110.484V25.9599H108.539Z" transform="translate(0.485352)" fill="#CFD5DC"/>
<path d="M18.3516 18.5098L15.1641 11.3379L12.375 18.5098H18.3516Z" transform="translate(0.485352)" fill="#CFD5DC"/>
<path fill-rule="evenodd" clip-rule="evenodd" d="M15.1172 0L0 5.80762L2.32031 27.3486L15.1172 35L28.125 27.2471L30.6328 5.70703L15.1172 0ZM5.71875 26.667L15.1406 4.09082L24.9609 26.7168L21.6094 26.6416L19.5469 21.4902H11.1328L9.23438 26.5908L5.71875 26.667Z" transform="translate(0.485352)" fill="#CFD5DC"/>
</svg>
