<svg width="123" height="15" viewBox="0 0 123 15" fill="none" xmlns="http://www.w3.org/2000/svg">
<path d="M4.47268 6.84608C4.42793 6.78849 4.36879 6.74323 4.301 6.71468C4.2332 6.68614 4.15906 6.67528 4.08573 6.68316C4.01241 6.69104 3.94241 6.71738 3.8825 6.75965C3.82259 6.80191 3.77481 6.85866 3.74379 6.92439L0.0469274 14.1851C0.0130725 14.2514 -0.00293162 14.3251 0.000441365 14.3992C0.00381435 14.4733 0.0264519 14.5453 0.0661952 14.6083C0.105938 14.6714 0.161462 14.7234 0.227471 14.7594C0.29348 14.7953 0.367772 14.8141 0.443264 14.8139H5.59108C5.67366 14.816 5.7551 14.7945 5.82547 14.752C5.89584 14.7095 5.9521 14.6478 5.98742 14.5745C7.09442 12.3146 6.42247 8.89117 4.47268 6.84608Z" fill="#CFD5DC"/>
<path d="M7.18546 0.232377C6.26084 1.62483 5.72108 3.2297 5.61924 4.88918C5.5174 6.54866 5.85699 8.2056 6.60462 9.69708L9.09881 14.5749C9.13567 14.647 9.19229 14.7077 9.2623 14.75C9.33232 14.7923 9.41295 14.8145 9.49515 14.8143H14.643C14.7179 14.8134 14.7913 14.7938 14.8564 14.7573C14.9215 14.7209 14.9761 14.6688 15.015 14.6059C15.054 14.543 15.076 14.4715 15.079 14.3979C15.0821 14.3244 15.0661 14.2513 15.0325 14.1855L7.93713 0.232377C7.90315 0.162785 7.84984 0.104045 7.78334 0.0629299C7.71684 0.0218151 7.63987 0 7.5613 0C7.48273 0 7.40575 0.0218151 7.33925 0.0629299C7.27276 0.104045 7.21944 0.162785 7.18546 0.232377Z" fill="#CFD5DC"/>
<path d="M67.5674 6.06372C67.5674 7.85374 68.417 9.29022 71.738 9.91897C73.7197 10.3262 74.1342 10.6417 74.1342 11.2906C74.1342 11.9394 73.7197 12.3288 72.312 12.3288C70.6247 12.2988 68.9713 11.8591 67.499 11.0489V13.9801C68.499 14.4611 69.8201 15.0004 72.2824 15.0004C75.756 15.0004 77.1341 13.4811 77.1341 11.219L67.5674 6.06372ZM77.1341 11.219C77.1341 9.08661 75.9838 8.08644 72.7357 7.39952C70.943 7.01019 70.508 6.62086 70.508 6.05701C70.508 5.35219 71.1503 5.05684 72.3302 5.05684C73.7652 5.05684 75.1797 5.48421 76.5214 6.07715V3.28249C75.2352 2.70729 73.8343 2.42213 72.4213 2.44789C69.2119 2.44789 67.5514 3.81949 67.5514 6.06372L77.1341 11.219Z" fill="#CFD5DC"/>
<path d="M112.185 2.63281V14.8139H114.827V5.52592L115.941 7.99167L119.679 14.8139H123V2.63281H120.358V10.4955L119.358 8.21318L116.356 2.63281H112.185Z" fill="#CFD5DC"/>
<path d="M95.3795 2.63281H92.4912V14.8139H95.3795V2.63281Z" fill="#CFD5DC"/>
<path d="M89.1588 11.219C89.1588 9.08661 88.0085 8.08644 84.7604 7.39952C82.9678 7.01019 82.5327 6.62086 82.5327 6.05701C82.5327 5.35219 83.1751 5.05684 84.355 5.05684C85.79 5.05684 87.2045 5.48421 88.5461 6.07715V3.28249C87.2599 2.70729 85.859 2.42213 84.4461 2.44789C81.2367 2.44789 79.5761 3.81949 79.5761 6.06372C79.5761 7.85374 80.4258 9.29022 83.7468 9.91897C85.7285 10.3262 86.143 10.6417 86.143 11.2906C86.143 11.9394 85.7285 12.3288 84.3208 12.3288C82.6335 12.2988 80.98 11.8591 79.5078 11.0489V13.9801C80.5078 14.4611 81.8289 15.0004 84.2912 15.0004C87.7648 15.0004 89.1429 13.4811 89.1429 11.219H89.1588Z" fill="#CFD5DC"/>
<path d="M45.1357 2.63281V14.8139H51.0717L52.0056 12.1825H48.0422V2.63281H45.1357Z" fill="#CFD5DC"/>
<path d="M33.4077 2.63281V5.26637H36.6171V14.8139H39.5236V5.26637H42.9585V2.63281H33.4077Z" fill="#CFD5DC"/>
<path d="M29.1934 2.63281H25.3849L21.0571 14.8139H24.3713L24.9772 12.7621C26.4895 13.1995 28.098 13.1995 29.6102 12.7621L30.223 14.8139H33.5258L29.1934 2.63281ZM27.2892 10.5671C26.7495 10.5678 26.2126 10.4924 25.6947 10.3433L27.2892 5.02472L28.8836 10.3433C28.3658 10.4924 27.8288 10.5678 27.2892 10.5671Z" fill="#CFD5DC"/>
<path d="M61.3038 2.63281H57.4953L53.1675 14.8139H56.4703L57.0876 12.7621C58.597 13.1978 60.2021 13.1978 61.7115 12.7621L62.3242 14.8139H65.627L61.3038 2.63281ZM59.3995 10.5671C58.8599 10.5678 58.3229 10.4924 57.8051 10.3433L59.3995 5.02472L60.994 10.3433C60.4761 10.4924 59.9392 10.5678 59.3995 10.5671Z" fill="#CFD5DC"/>
<path d="M105.785 2.63281H101.976L97.6484 14.8139H100.951L101.569 12.7621C103.078 13.1978 104.683 13.1978 106.192 12.7621L106.805 14.8139H110.108L105.785 2.63281ZM103.88 10.5671C103.341 10.5678 102.804 10.4924 102.286 10.3433L103.88 5.02472L105.475 10.3433C104.957 10.4924 104.42 10.5678 103.88 10.5671Z" fill="#CFD5DC"/>
</svg>
