<svg width="81" height="54" viewBox="0 0 81 54" fill="none" xmlns="http://www.w3.org/2000/svg">
<path d="M1.10645 23.4629C13.7847 10.627 23.9014 6.6582 33.1016 4.86523C34.3032 4.6416 34.5562 1.9209 34.5562 1.9209C34.5562 1.9209 34.7144 3.90527 35.5679 4.16113C36.4214 4.41699 37.5278 1.05664 37.5278 1.05664C37.5278 1.05664 36.5161 4.06543 37.5278 4.25684C38.5396 4.41699 40.4365 1.3125 40.4365 1.3125C40.4365 1.3125 39.6777 3.96875 40.1836 4.16113C40.6895 4.32129 43.2505 0.288086 43.2505 0.288086C43.2505 0.288086 41.7329 2.94531 43.1558 3.2334C44.6099 3.48926 46.728 1.4082 46.728 1.4082C46.728 1.4082 45.084 3.29688 45.8115 3.58496C48.9731 4.70508 51.5024 0.576172 51.5024 0.576172C51.5024 0.576172 50.9014 2.40039 49.3838 4.38574C52.7036 5.25 55.1699 0.192383 55.1699 0.192383L52.7036 5.25C53.9683 5.9541 59.0898 0 59.0898 0C59.0898 0 56.4658 4.6416 54.917 5.60156C55.7705 6.20996 58.8369 3.45703 58.8369 3.45703C58.8369 3.45703 56.3711 6.56152 57.3193 6.72168C58.6792 7.84277 63.7061 0.959961 63.7061 0.959961C63.7061 0.959961 61.7144 5.02539 58.8369 8.19434C61.2397 9.41113 67.2788 1.56836 67.2788 1.56836C67.2788 1.56836 67.1206 4.06543 62.7573 8.03418C65.9824 7.61816 70.1558 1.4082 70.1558 1.4082C70.1558 1.4082 68.6382 6.0498 64.9707 9.34668C68.1323 9.02637 73.2222 1.08789 73.2222 1.08789C73.2222 1.08789 71.2622 6.59375 67.2788 9.79492C71.7046 10.7871 78.0913 4.09766 78.0913 4.09766C78.0913 4.09766 75.5938 8.83496 72.3057 10.7871C75.9731 12.1953 81 6.33789 81 6.33789C81 6.33789 75.9731 14.1807 67.9741 13.8281C67.2759 13.7939 66.2017 13.207 64.6802 12.376C61.4746 10.624 56.2847 7.78809 48.4473 6.75684C48.7773 6.94043 49.0913 7.1416 49.3843 7.3623C49.1943 8.29102 48.8784 9.1875 48.4673 10.0518C48.3408 10.0195 48.2461 10.0195 48.1514 10.0195C47.4238 10.0195 46.8232 10.6279 46.8232 11.3643C46.8232 11.6836 47.0132 12.3564 47.2026 12.5801C47.104 12.708 47.0015 12.8281 46.895 12.9424L44.0264 13.9834C43.9951 13.9023 43.9614 13.8223 43.9258 13.7432L46.2227 10.499L43.145 12.5674C43.0469 12.4609 42.9434 12.3594 42.8354 12.2627L43.8828 8.67383L41.8457 11.5938C41.7134 11.5283 41.5771 11.4688 41.438 11.417L41.3853 7.74609L39.9951 11.1406C39.9634 11.1406 39.9312 11.1396 39.8994 11.1396C39.7974 11.1396 39.6958 11.1436 39.5947 11.1504L38.4448 7.71387L38.4946 11.3672C38.3408 11.418 38.1899 11.4756 38.043 11.542L36.2002 8.19434L37.2754 11.9775C37.1543 12.0625 37.0371 12.1523 36.9243 12.248L34.2705 10.3057C34.4336 10.1484 34.5249 9.91504 34.5249 9.57129C34.5249 9.40918 34.4082 9.11133 34.3198 8.88672L34.3125 8.86816L34.2969 8.82812C34.2734 8.76758 34.2529 8.71484 34.2402 8.6748C35.3794 7.74609 36.7749 7 38.2612 6.51465C37.1768 6.58691 36.1362 6.68066 35.1357 6.79395C34.6465 7.06348 34.1777 7.37109 33.7344 7.71484C33.5762 7.65039 33.3867 7.61914 33.1968 7.61914C32.4062 7.61914 31.7427 8.25879 31.7427 9.09082C31.7427 9.25098 31.8691 9.79492 31.9321 9.95508C31.7793 10.1465 31.6265 10.3145 31.4771 10.4775L31.4702 10.4854L31.4546 10.502L31.4468 10.5098L31.4312 10.5264L31.4243 10.5332C31.0688 10.917 30.7368 11.2764 30.478 11.8438C29.6211 10.6631 28.979 9.31934 28.5928 7.93457L28.2729 8.01367C28.4878 9.87012 29.1709 11.6748 30.1299 13.0918C30.0859 13.2549 30.0215 13.377 29.959 13.4961C29.8862 13.6338 29.8159 13.7676 29.7822 13.9561C29.4976 15.2051 29.5293 16.9014 29.6875 18.1182C29.0552 18.4375 28.644 18.8223 28.5176 19.3984C28.2646 20.4541 29.3711 21.3506 30.4463 21.3506C30.4937 21.3506 30.541 21.3428 30.5884 21.334C30.6357 21.3262 30.6831 21.3184 30.7305 21.3184C30.8623 21.5762 30.9951 21.8721 31.1343 22.1846L31.1426 22.2021L31.1592 22.2393C31.5508 23.1152 31.9912 24.0996 32.5645 24.6797V24.7119C27.8853 22.5986 24.7236 17.1572 24.7236 11.6201C24.7236 10.5059 25.019 9.57715 25.5234 8.79883C18.8745 10.9404 14.46 14.2139 9.98486 17.5322C7.22705 19.5771 4.44678 21.6387 1.10645 23.4629Z" fill="#CFD5DC"/>
<path d="M34.1182 10.4199C33.8877 10.5527 33.5703 10.5957 33.1968 10.5957C33.0073 10.5957 32.8491 10.5635 32.6592 10.5C32.1221 11.2354 31.4263 12.6758 31.1104 13.5723C31.6753 14.0781 32.2129 14.4512 32.7617 14.7578L35.4243 14.667C35.4351 14.6211 35.4463 14.5752 35.4585 14.5303L31.9639 11.9072L35.9521 13.3809C36.0225 13.2656 36.0986 13.1523 36.1787 13.0439L34.1182 10.4199Z" fill="#CFD5DC"/>
<path d="M31.6929 14.7939C31.4575 14.5771 31.2314 14.3516 31.0151 14.1162C31.0151 14.1328 31.0073 14.1562 30.9995 14.1797C30.9917 14.2041 30.9839 14.2285 30.9839 14.2441C30.731 15.333 30.6992 16.4531 30.8257 17.5088C31.7109 17.6689 32.4062 18.4697 32.4062 19.4297C32.4062 19.4873 32.4014 19.5479 32.3916 19.6094L35.6943 17.4766L30.9204 17.125L34.0278 16.4463C33.3218 16.0742 32.6611 15.626 32.0547 15.1133L30.9204 14.8203L31.6929 14.7939Z" fill="#CFD5DC"/>
<path d="M33.2422 22.002L32.9438 22.2461L35.8208 18.5654L32.3418 19.8291C32.1934 20.333 31.8184 20.8896 31.521 21.1904C31.9004 22.0225 32.1851 22.4707 32.6909 23.1426C32.834 22.7422 33.021 22.3633 33.2422 22.002Z" fill="#CFD5DC"/>
<path d="M44.3887 16.4531C46.3804 16.7725 48.2456 17.5732 49.7002 18.8213C50.7749 16.8691 51.5972 14.0195 51.5972 11.6191C51.5972 9.79492 50.8066 8.4502 49.6055 7.45801C49.5801 8.25781 49.2256 9.30762 48.9399 10.1533L48.9038 10.2617C48.8486 10.4258 48.7969 10.5801 48.7515 10.7227C49.0361 10.9795 49.1626 11.1709 49.2891 11.3955C49.6367 12.0352 48.9414 12.6436 48.1826 12.6436C48.1191 12.6436 48.0244 12.6436 47.9614 12.6113C47.4087 13.4941 46.5703 14.5361 45.686 15.3867L48.2144 15.5244L44.3887 16.4531Z" fill="#CFD5DC"/>
<path d="M36.4512 19.7568C35.209 21.001 34.124 22.7529 33.5444 24.3271L33.748 24.5586C33.9692 24.8125 34.168 25.04 34.4614 25.2881C35.186 25.4824 36.1123 25.415 36.9971 25.3496C37.4248 25.3184 37.8428 25.2881 38.2236 25.2881C39.0532 25.2881 39.8672 25.2236 40.6582 25.0947C44.3594 24.4941 47.5625 22.5156 49.542 19.4297C48.791 18.9033 47.9873 18.3906 47.1548 17.9736L44.041 17.7324L47.1392 20.8057L43.0928 19.2051L45.4639 22.8867L41.7964 20.0059L42.9976 24.4229L40.9741 20.5498L40.6582 25.0947L39.2988 20.582L37.7178 24.9033L38.0972 20.166L35.2832 24.1992L36.4512 19.7568Z" fill="#CFD5DC"/>
<path fill-rule="evenodd" clip-rule="evenodd" d="M54 53.9678C52.8301 53.9678 52.1348 52.9121 52.1348 51.1514C52.1348 48.2061 53.9683 45.4854 57.0352 45.4854C57.5728 45.4854 58.0786 45.6455 58.3633 45.8057C58.521 44.9736 58.9004 42.3809 58.9321 41.6123C59.438 41.5166 60.5132 41.3564 61.019 41.3564C61.2085 41.3564 61.272 41.5488 61.2085 42.0283C60.7661 44.7812 60.0073 50.0312 59.8491 51.1836C59.7544 52.1758 59.7227 53.1357 59.7544 53.6797C59.1851 53.9365 58.0151 54 57.6992 54C57.5728 54 57.5093 53.168 57.541 52.3994C57.5728 52.1758 57.6045 51.8232 57.6045 51.7598C56.624 53.2324 55.3911 53.9678 54 53.9678ZM55.1699 52.0801C55.9604 52.0801 57.5728 50.5752 58.0151 47.918C58.0278 47.8545 58.04 47.7764 58.0527 47.6943L58.0581 47.6611L58.063 47.6289C58.0786 47.5254 58.0947 47.4219 58.1104 47.3418C57.8887 47.1182 57.5728 46.9902 57.0669 46.9902C55.2329 46.9902 54.4429 49.1992 54.4429 50.7988C54.4741 51.6318 54.7588 52.0801 55.1699 52.0801Z" fill="#CFD5DC"/>
<path d="M49.4155 45.4541C47.8979 45.4541 46.8232 46.4775 46.001 47.8223V47.7588H45.9697C45.9854 47.6953 45.9932 47.6152 46.001 47.5361C46.0088 47.4561 46.0166 47.375 46.0327 47.3105C46.1909 45.9658 46.1592 45.3896 45.9697 45.3896C45.8115 45.3896 44.1992 45.7422 43.8828 45.8379C43.9146 46.2217 43.8198 47.2139 43.5981 48.751C43.3452 50.4473 42.9976 52.7197 42.7764 53.8398C43.9463 53.8398 44.5151 53.6797 44.7998 53.5205C45.021 53.3916 45.1475 53.168 45.2109 52.8154C46.001 48.3984 47.582 47.3105 48.2461 47.3105C48.752 47.3105 48.7832 47.9502 48.6885 48.4941C48.5303 49.4229 48.2461 51.0234 48.0879 51.8877C47.8979 52.9443 47.9297 53.9365 48.0562 53.9365C48.3726 53.9365 49.7319 53.8398 50.2061 53.6162C50.1743 53.0723 50.2695 52.2715 50.396 51.375C50.4814 50.6621 50.6099 49.9062 50.7227 49.2441L50.7271 49.2197L50.7324 49.1885C50.7837 48.8906 50.8315 48.6113 50.8701 48.3662C51.123 46.6699 50.7119 45.4541 49.4155 45.4541Z" fill="#CFD5DC"/>
<path d="M11.1602 45.9346C10.8125 45.6143 10.1802 45.4541 9.48486 45.4541C6.41797 45.4541 4.58398 48.0146 4.521 50.8955C4.521 53.0723 5.65918 54.001 7.27148 54.001C8.69434 54.001 9.67432 53.4883 10.2437 52.9121C10.5913 52.5605 10.686 52.208 10.686 51.8564C10.686 51.5361 10.5278 51.248 10.4014 51.1514C9.89551 51.5996 9.01025 52.208 8.125 52.208C7.27148 52.208 6.92383 51.5684 6.92383 50.5117C6.92383 48.8154 7.74561 47.0869 9.38965 47.0869C9.80078 47.0869 10.1172 47.1504 10.4648 47.2783C10.7495 47.2783 11.2236 46.4463 11.1602 45.9346Z" fill="#CFD5DC"/>
<path fill-rule="evenodd" clip-rule="evenodd" d="M13.5947 46.959C12.2354 48.335 11.8877 50.1914 11.8877 51.2803C11.8877 53.0723 12.5518 53.9688 13.5947 53.9365C15.0493 53.9365 16.4404 52.9443 17.1357 51.7598C17.1357 51.9199 17.1045 52.2725 17.0728 52.4961C17.041 53.2324 17.0728 53.9688 17.231 53.9688C17.5469 53.9688 18.6533 53.9043 19.2544 53.6484C19.2227 53.2646 19.2544 52.208 19.3491 51.4717C19.5703 49.7109 19.9814 46.6709 20.1709 45.8701C20.0205 45.8438 19.8525 45.8105 19.6733 45.7744L19.5762 45.7549L19.5586 45.751C18.8921 45.6162 18.0923 45.4541 17.4521 45.4541C16.1558 45.4541 14.7646 45.7422 13.5947 46.959ZM17.7368 47.5352C17.2939 50.5439 15.6816 52.1123 14.7964 52.1123C14.417 52.1123 14.1958 51.6963 14.1958 50.96C14.1958 50.0635 14.48 48.9434 15.1123 48.0469C15.7134 47.1826 16.4087 46.9902 17.0728 46.9902C17.3257 46.9902 17.6104 47.0547 17.7998 47.1182C17.7837 47.2168 17.7754 47.2734 17.7676 47.3311L17.7368 47.5352Z" fill="#CFD5DC"/>
<path d="M24.6606 45.4541C25.3877 45.4541 26.1147 45.7422 26.4312 46.0625C26.3994 46.5742 26.02 47.4385 25.3877 47.1826C25.103 47.0869 24.8501 47.0225 24.4707 47.0225C23.9966 47.0225 23.5537 47.2471 23.5537 47.6943C23.5537 48.0469 23.8066 48.3027 25.0083 49.167C25.8618 49.8076 26.2095 50.3838 26.2095 51.1836C26.2095 52.5283 24.9766 53.9688 22.7949 53.9688C21.9097 53.9688 21.1196 53.6162 20.8979 53.2646C20.582 52.7207 20.835 51.6318 21.1826 51.8242C21.6567 52.0479 22.4155 52.3037 23.0479 52.3037C23.6489 52.3037 24.0283 52.0156 24.0283 51.6641C24.0283 51.3438 23.7437 51.0879 22.6685 50.2871C21.752 49.583 21.4673 48.9434 21.4673 48.2393C21.4673 46.7021 22.7637 45.4541 24.6606 45.4541Z" fill="#CFD5DC"/>
<path d="M32.6597 46.0625C32.3433 45.7422 31.6162 45.4541 30.8892 45.4541C28.9922 45.4541 27.6958 46.7021 27.6958 48.2393C27.6958 48.9434 27.9805 49.583 28.897 50.2871C29.9722 51.0879 30.2568 51.3438 30.2568 51.6641C30.2568 52.0156 29.8774 52.3037 29.2764 52.3037C28.644 52.3037 27.8853 52.0479 27.4111 51.8242C27.0635 51.6318 26.8105 52.7207 27.1265 53.2646C27.3794 53.6162 28.1382 53.9688 29.0234 53.9688C31.2051 53.9688 32.438 52.5283 32.438 51.1836C32.438 50.3838 32.0903 49.8076 31.2368 49.167C30.0352 48.3027 29.7822 48.0469 29.7822 47.6943C29.7822 47.2471 30.2251 47.0225 30.6992 47.0225C31.0786 47.0225 31.3315 47.0869 31.6162 47.1826C32.2485 47.4385 32.6279 46.5742 32.6597 46.0625Z" fill="#CFD5DC"/>
<path fill-rule="evenodd" clip-rule="evenodd" d="M33.6392 51.2803C33.6392 50.1914 33.9868 48.335 35.3462 46.959C36.5161 45.7422 37.9072 45.4541 39.2036 45.4541C39.8438 45.4541 40.6436 45.6162 41.3101 45.751L41.3276 45.7549L41.4248 45.7744C41.604 45.8105 41.772 45.8438 41.9224 45.8701C41.7329 46.6709 41.3218 49.7109 41.1006 51.4717C41.0059 52.208 40.9741 53.2646 41.0059 53.6484C40.4048 53.9043 39.2983 53.9688 38.9824 53.9688C38.8242 53.9688 38.7925 53.2324 38.8242 52.4961C38.856 52.2725 38.8872 51.9199 38.8872 51.7598C38.1919 52.9443 36.8008 53.9365 35.3462 53.9365C34.3345 53.9688 33.6392 53.0723 33.6392 51.2803ZM36.5479 52.1123C37.4331 52.1123 39.0454 50.5439 39.4883 47.5352L39.519 47.3311C39.5269 47.2734 39.5352 47.2168 39.5513 47.1182C39.3618 47.0547 39.0771 46.9902 38.8242 46.9902C38.1602 46.9902 37.4648 47.1826 36.8638 48.0469C36.2314 48.9434 35.9473 50.0635 35.9473 50.96C35.9785 51.6963 36.1685 52.1123 36.5479 52.1123Z" fill="#CFD5DC"/>
<path d="M67.4048 45.4541C66.646 45.4541 65.5078 45.9336 64.5596 48.0791V48.0469H64.4961C64.749 46.4141 64.6226 45.4219 64.4648 45.4219C64.1802 45.4219 62.8208 45.7422 62.4727 45.9023C62.5044 46.2217 62.5044 47.0859 62.4414 47.5342C62.2515 49.3271 61.8091 52.3682 61.5244 53.8721C62.0933 53.8408 63.2949 53.7119 63.6108 53.5205C63.8008 53.4238 63.8955 53.2959 63.959 52.9443C64.7178 48.7832 65.9507 47.8223 66.5513 47.8223C66.8364 47.8223 67.0698 47.9258 67.2754 48.0176L67.3418 48.0469C67.7529 47.5664 68.2271 46.3818 68.1636 45.7744C68.0059 45.6143 67.6265 45.4541 67.4048 45.4541Z" fill="#CFD5DC"/>
<path fill-rule="evenodd" clip-rule="evenodd" d="M68.0059 51.2803C68.0059 50.1914 68.3535 48.335 69.7129 46.959C70.8828 45.7422 72.2739 45.4541 73.5703 45.4541C74.2104 45.4541 75.0103 45.6162 75.6768 45.751L75.6943 45.7549L75.7915 45.7744C75.9707 45.8105 76.1387 45.8438 76.2891 45.8701C76.0996 46.6709 75.6885 49.7109 75.4673 51.4717C75.3726 52.208 75.3408 53.2646 75.3726 53.6484C74.7715 53.9043 73.665 53.9688 73.3491 53.9688C73.1909 53.9688 73.1592 53.2324 73.1909 52.4961C73.2227 52.2725 73.2539 51.9199 73.2539 51.7598C72.5586 52.9443 71.1675 53.9365 69.7129 53.9365C68.7012 53.9688 68.0059 53.0723 68.0059 51.2803ZM70.9146 52.1123C71.7998 52.1123 73.4121 50.5439 73.855 47.5352L73.8857 47.3311C73.8936 47.2734 73.9019 47.2168 73.918 47.1182C73.7285 47.0547 73.4438 46.9902 73.1909 46.9902C72.5269 46.9902 71.8315 47.1826 71.2305 48.0469C70.5981 48.9434 70.314 50.0635 70.314 50.96C70.3452 51.6963 70.5352 52.1123 70.9146 52.1123Z" fill="#CFD5DC"/>
<path d="M10.7061 26.2871C7.07764 26.5996 3.62207 26.8965 0 25.0635C1.54932 26.3115 3.31982 27.5283 8.47314 27.4961C8.73047 27.4961 9.0752 27.4902 9.479 27.4834H9.4873C11.7642 27.4453 15.8979 27.376 16.7563 28.1367C17.7681 29.0645 13.3105 33.3223 13.3105 33.3223C13.3105 33.3223 20.8667 26.8564 21.5938 29.0645C22.0361 30.4092 19.4121 34.0898 19.4121 34.0898C19.4121 34.0898 22.0361 30.4727 23.9966 29.7051C25.356 29.1611 26.4624 29.2246 27.4424 30.6016C28.0747 31.5293 24.376 35.915 24.376 35.915C24.376 35.915 29.3711 31.0176 30.2563 31.2734C31.1416 31.5293 30.2563 35.915 30.2563 35.915C30.2563 35.915 32.0903 31.4658 33.0703 31.1455C34.3979 30.6973 30.0034 41.4844 30.0034 41.4844C30.0034 41.4844 35.3784 31.4971 36.3901 31.2734C38.1289 30.8896 39.2671 38.251 39.2671 38.251C39.2671 38.251 38.4136 31.8174 39.3301 31.4014C45.0527 28.7764 41.7646 42.5088 41.7646 42.5088C41.7646 42.5088 45.5269 33.1943 43.2188 31.1133C49.2578 35.1787 48.5303 42.5088 48.5303 42.5088C48.5303 42.5088 50.1113 39.0518 45.6533 30.4727C48.0879 30.3447 51.6919 36.8105 51.6919 36.8105C51.6919 36.8105 47.7402 29.7051 50.4272 29.5771C55.7705 29.3203 56.3081 39.0195 56.3081 39.0195C56.3081 39.0195 57.9204 37.6748 53.6206 28.1367C56.3394 26.376 62.9473 36.9395 62.9473 36.9395C62.9473 36.9395 56.877 26.6641 57.8569 25.96C58.8374 25.2871 62.4414 29.2246 62.4414 29.2246C62.4414 29.2246 59.7227 25.416 60.4497 25.0312C61.1768 24.6475 68.417 32.5859 68.417 32.5859C68.417 32.5859 62.0303 24.8398 63.1372 23.8789C63.7651 23.334 65.543 24.2637 66.9639 25.1689C68.0459 25.9561 68.9229 26.5361 68.9229 26.5361C68.9229 26.5361 68.0474 25.8594 66.9639 25.1689C64.9443 23.6992 62.2109 21.5098 63.1372 21.0303C65.0972 20.0059 70.6616 23.4951 70.6616 23.4951C70.6616 23.4951 67.3101 20.71 67.8477 20.0059C68.3853 19.3018 74.9932 24.3916 74.9932 24.3916C74.9932 24.3916 69.144 19.7178 68.8594 18.5654C68.5435 17.4131 73.4438 18.9492 73.4438 18.9492C73.4438 18.9492 68.0376 16.4209 67.9424 15.6846C67.8477 14.9805 71.5151 16.5166 71.5151 16.5166C71.5151 16.5166 66.4883 12.3555 65.2554 15.749C61.2715 23.3672 52.9883 27.6562 43.2822 29.0645C33.7046 30.4854 26.6206 28.4795 20.7847 26.8262L20.5503 26.7598C17.0044 25.7451 13.793 26.0215 10.7061 26.2871Z" fill="#CFD5DC"/>
</svg>
