<svg width="143" height="33" viewBox="0 0 143 33" fill="none" xmlns="http://www.w3.org/2000/svg">
<path fill-rule="evenodd" clip-rule="evenodd" d="M143 18.035V18.7134C143 19.6243 142.814 20.4939 142.45 21.2974C142.096 22.0803 141.612 22.7765 141.014 23.3674C140.415 23.9568 139.712 24.4269 138.922 24.7639C138.126 25.1045 137.273 25.2766 136.388 25.2766H134.789C133.904 25.2766 133.051 25.1045 132.255 24.7639C131.465 24.4269 130.762 23.9568 130.163 23.3674C129.565 22.7765 129.081 22.0796 128.727 21.2967C128.363 20.4939 128.178 19.6243 128.178 18.7134V17.1988H132.166V18.7134C132.166 19.0661 132.237 19.3967 132.374 19.6954C132.523 20.0168 132.726 20.3033 132.977 20.5465C133.228 20.7911 133.524 20.9853 133.857 21.1246C134.185 21.2626 134.534 21.3323 134.898 21.3323H136.295C136.656 21.3323 137.003 21.2633 137.324 21.126C137.654 20.986 137.949 20.7911 138.2 20.5465C138.452 20.3033 138.654 20.0168 138.803 19.6954C138.941 19.3967 139.011 19.0661 139.011 18.7134V18.035C139.011 17.4434 138.906 16.9641 138.699 16.6086C138.471 16.2154 138.162 15.8755 137.78 15.5967C137.35 15.2824 136.855 15.0129 136.309 14.7925C135.688 14.5415 135.05 14.2919 134.394 14.0416C133.708 13.7799 133.031 13.487 132.381 13.1705C131.671 12.8242 131.024 12.3848 130.459 11.8643C129.866 11.3168 129.384 10.642 129.03 9.85764C128.67 9.06479 128.488 8.09986 128.488 6.98987V6.56394C128.488 5.66158 128.659 4.79976 128.995 4.00335C129.328 3.21548 129.793 2.51436 130.378 1.92061C130.962 1.32687 131.655 0.854002 132.436 0.514819C133.225 0.173502 134.074 0 134.96 0H136.388C137.275 0 138.123 0.173502 138.906 0.51553C139.681 0.854713 140.371 1.32758 140.955 1.92061C141.539 2.51436 142.004 3.21548 142.337 4.00407C142.674 4.79976 142.844 5.66158 142.844 6.56394V7.74503H138.856V6.56394C138.856 6.19987 138.789 5.85997 138.658 5.5535C138.523 5.23636 138.337 4.95548 138.106 4.72154C137.876 4.4876 137.601 4.29845 137.288 4.16121C136.987 4.02753 136.652 3.96069 136.295 3.96069H135.053C134.695 3.96069 134.362 4.02753 134.059 4.16121C133.745 4.29987 133.465 4.49044 133.228 4.72794C132.995 4.96046 132.808 5.23849 132.674 5.55279C132.543 5.85997 132.477 6.19987 132.477 6.56394V6.98987C132.477 7.52247 132.578 7.95978 132.779 8.28901C133.006 8.66445 133.315 8.99155 133.697 9.26176C134.13 9.56894 134.63 9.84057 135.186 10.0695C135.809 10.3262 136.452 10.5886 137.113 10.856C137.798 11.134 138.475 11.444 139.123 11.7761C139.829 12.1373 140.473 12.5896 141.036 13.1208C141.628 13.6782 142.107 14.363 142.46 15.1566C142.819 15.9594 143 16.9271 143 18.035ZM121.397 1.92061C121.982 2.51436 122.446 3.21548 122.779 4.00407C123.116 4.79976 123.287 5.66158 123.287 6.56394V18.7134C123.287 19.6157 123.116 20.4775 122.779 21.2732C122.446 22.0618 121.982 22.7615 121.397 23.356C120.813 23.9504 120.123 24.4226 119.348 24.7611C118.566 25.1031 117.718 25.2766 116.83 25.2766H115.247C114.36 25.2766 113.512 25.1038 112.723 24.7618C111.941 24.4233 111.25 23.9504 110.665 23.356C110.08 22.7622 109.615 22.0618 109.283 21.2725C108.946 20.4775 108.775 19.6157 108.775 18.7134V6.56394C108.775 5.66158 108.946 4.79976 109.283 4.00335C109.615 3.21548 110.08 2.51436 110.665 1.92061C111.25 1.32687 111.941 0.854002 112.723 0.514819C113.512 0.173502 114.36 0 115.247 0H116.83C117.718 0 118.565 0.173502 119.348 0.51553C120.124 0.854713 120.813 1.32758 121.397 1.92061ZM119.296 18.7134V6.56394C119.296 6.19987 119.229 5.85997 119.099 5.5535C118.963 5.23636 118.777 4.95548 118.546 4.72154C118.316 4.4876 118.041 4.29845 117.729 4.16121C117.427 4.02753 117.092 3.96069 116.736 3.96069H115.339C114.981 3.96069 114.646 4.02753 114.344 4.16121C114.029 4.29987 113.749 4.49044 113.512 4.72794C113.28 4.96046 113.093 5.23849 112.959 5.55279C112.828 5.85997 112.762 6.19987 112.762 6.56394V18.7134C112.762 19.076 112.828 19.4166 112.959 19.7231C113.095 20.0409 113.283 20.3232 113.518 20.5629C113.754 20.8025 114.031 20.9938 114.344 21.131C114.646 21.2647 114.981 21.3323 115.339 21.3323H116.736C117.092 21.3323 117.427 21.2647 117.729 21.1317C118.038 20.9952 118.312 20.8061 118.541 20.5686C118.775 20.3268 118.962 20.0424 119.098 19.7238C119.229 19.4166 119.296 19.076 119.296 18.7134ZM88.0868 4.00407C88.4246 4.79976 88.5953 5.66158 88.5953 6.56394V7.74503H84.6063V6.56394C84.6063 6.19987 84.5399 5.85997 84.4084 5.5535C84.2727 5.23636 84.0874 4.95548 83.8572 4.72154C83.6264 4.4876 83.3515 4.29845 83.0389 4.16121C82.7374 4.02753 82.4031 3.96069 82.045 3.96069H80.6482C80.2907 3.96069 79.9564 4.02753 79.655 4.16121C79.3395 4.29987 79.0597 4.49044 78.8226 4.72794C78.5904 4.96046 78.4036 5.23849 78.2701 5.55279C78.1393 5.85997 78.0721 6.19987 78.0721 6.56394V18.7134C78.0721 19.076 78.1393 19.4166 78.2693 19.7231C78.405 20.0409 78.5932 20.3232 78.8289 20.5629C79.0646 20.8025 79.3423 20.9938 79.655 21.131C79.9564 21.2647 80.2907 21.3323 80.6482 21.3323H82.045C82.4031 21.3323 82.7374 21.2647 83.0382 21.1317C83.3487 20.9952 83.6215 20.8061 83.8516 20.5686C84.0853 20.3268 84.2727 20.0424 84.4077 19.7238C84.5399 19.4166 84.6063 19.076 84.6063 18.7134V17.1988H88.5953V18.7134C88.5953 19.6157 88.4246 20.4775 88.0868 21.2732C87.7553 22.0618 87.2901 22.7615 86.7054 23.356C86.1207 23.9504 85.431 24.4226 84.6567 24.7611C83.874 25.1031 83.0263 25.2766 82.138 25.2766H80.5558C79.6689 25.2766 78.8205 25.1038 78.0322 24.7618C77.2503 24.4233 76.5578 23.9504 75.9731 23.356C75.3883 22.7615 74.9239 22.0618 74.591 21.2725C74.2545 20.4775 74.0838 19.6157 74.0838 18.7134V6.56394C74.0838 5.66158 74.2545 4.79976 74.591 4.00335C74.9239 3.21548 75.3883 2.51436 75.9731 1.92061C76.5578 1.32687 77.2503 0.854002 78.0315 0.514819C78.8205 0.173502 79.6689 0 80.5558 0H82.138C83.0263 0 83.8733 0.173502 84.6567 0.51553C85.4317 0.854713 86.1214 1.32758 86.7054 1.92061C87.2901 2.51436 87.7553 3.21548 88.0868 4.00407ZM67.2978 2.23704C67.8818 2.83079 68.3477 3.53476 68.6806 4.32903C69.0178 5.13112 69.1877 5.99437 69.1877 6.8953V18.3969C69.1877 19.3 69.017 20.1618 68.6792 20.9582C68.3477 21.7454 67.8818 22.4458 67.2978 23.0403C66.7138 23.634 66.0206 24.1076 65.2393 24.4461C64.4503 24.7888 63.6019 24.9616 62.7157 24.9616H54.6763V0.315717H62.7157C63.6019 0.315717 64.4504 0.48922 65.2386 0.830536C66.0206 1.16972 66.7138 1.6433 67.2978 2.23704ZM65.1988 18.3969V6.8953C65.1988 6.53194 65.1323 6.19204 65.0008 5.88486C64.8658 5.56701 64.677 5.28471 64.442 5.04508C64.2063 4.80545 63.9279 4.61417 63.6159 4.47622C63.3138 4.34325 62.9801 4.2757 62.622 4.2757H58.6645V21.0002H62.622C62.9801 21.0002 63.3138 20.9333 63.6159 20.8004C63.93 20.6617 64.2097 20.4704 64.4476 20.2337C64.6812 20.0004 64.8665 19.7224 65.0001 19.4081C65.1323 19.1009 65.1988 18.761 65.1988 18.3969Z" fill="#CFD5DC"/>
<path fill-rule="evenodd" clip-rule="evenodd" d="M101.815 0L91.1274 25.2766H94.4625L105.147 0H101.815Z" fill="#CFD5DC"/>
<path fill-rule="evenodd" clip-rule="evenodd" d="M6.62964 2.801L22.6374 12.0868L36.129 2.801H6.62964ZM25.3281 13.6471L29.6964 16.1822L35.822 6.42496L25.3281 13.6471ZM5.64051 5.47459L13.6669 18.2605L20.0776 13.849L5.64051 5.47459ZM32.14 17.599L39.2266 21.7097V6.31148L32.14 17.599ZM2.83222 6.31148V25.7173L11.3387 19.8625L2.83222 6.31148ZM15.1629 20.6437L21.0294 29.9873L28.2025 18.5619L22.7676 15.4093L15.1629 20.6437ZM21.0287 33C20.1121 33 19.268 32.4924 18.7118 31.6068L12.8348 22.2458L3.95863 28.3553C3.0575 28.9757 2.07612 29.0927 1.27003 28.6756C0.462533 28.2586 0 27.3966 0 26.3098V3.48889C0 2.1326 0.786376 0.954554 1.9325 0.378062C2.28239 0.158048 2.78998 0.000696247 3.52496 0H38.5331C39.2181 0.000696247 39.7081 0.142731 40.058 0.343946C41.2407 0.907906 42.0588 2.10545 42.0588 3.48889V22.0661C42.0588 23.1293 41.6047 23.9968 40.812 24.4466C40.0186 24.895 39.0309 24.8442 38.1044 24.3067L30.6454 19.9795L23.3463 31.6061C22.7901 32.4924 21.946 33 21.0287 33Z" fill="#CFD5DC"/>
</svg>
