<svg width="83" height="69" viewBox="0 0 83 69" fill="none" xmlns="http://www.w3.org/2000/svg">
<path fill-rule="evenodd" clip-rule="evenodd" d="M12.3848 55.9644V50.7012C12.3848 50.01 12.8159 49.4541 13.5296 49.4541H13.7275C14.441 49.4541 14.87 50.0104 14.87 50.7012V61.7816C14.87 64.4837 13.5389 66.6335 11.2197 68.0032C10.1443 68.6378 8.95605 68.9634 7.7094 68.9634H7.21661C4.52199 68.9634 2.38096 67.6275 1.01322 65.3027C0.378551 64.2234 0.0561523 63.0334 0.0561523 61.7816V61.2877C0.0561523 58.5848 1.388 56.4362 3.70543 55.0641C4.7817 54.4269 5.96824 54.1039 7.21661 54.1039H7.7094C9.533 54.1039 11.0802 54.8128 12.3848 55.9644ZM2.54105 61.5343C2.54105 63.4861 3.48437 64.9535 5.18963 65.8893C5.87909 66.2677 6.6278 66.471 7.41448 66.471C9.32466 66.471 10.7414 65.5673 11.7187 63.9438C12.1732 63.1884 12.3848 62.3624 12.3848 61.4838C12.3848 59.7917 11.5861 58.4715 10.2268 57.4907C9.40246 56.8962 8.4746 56.598 7.46275 56.598C5.38081 56.598 3.88252 57.6528 2.98317 59.527C2.67966 60.1606 2.54105 60.8335 2.54105 61.5343ZM23.4915 54.1039H23.8359C26.7153 54.1039 28.9049 55.5048 30.2928 58.0256C30.8478 59.0341 31.1446 60.1346 31.1446 61.2877V61.7816C31.1446 64.4835 29.8162 66.6366 27.4932 68.0035C26.4178 68.6361 25.2299 68.9634 23.9836 68.9634H23.4915C20.7969 68.9634 18.6555 67.6275 17.2881 65.3027C16.6534 64.2234 16.3304 63.0334 16.3304 61.7816V61.2877C16.3304 58.5845 17.6672 56.443 19.9789 55.0648C21.0538 54.4241 22.2424 54.1039 23.4915 54.1039ZM18.8152 61.5343C18.8152 63.4289 19.7424 64.8226 21.3379 65.8024C22.0872 66.2627 22.9121 66.471 23.7876 66.471C25.6542 66.471 27.0338 65.5218 27.9941 63.9417C28.452 63.1884 28.6592 62.361 28.6592 61.4838C28.6592 59.7221 27.8131 58.3762 26.3668 57.4008C25.5741 56.8659 24.6918 56.598 23.7373 56.598C21.6553 56.598 20.1571 57.6528 19.2581 59.527C18.9539 60.1606 18.8152 60.8335 18.8152 61.5343ZM41.4759 56.7971C41.1008 56.6209 40.3983 56.5623 39.9928 56.5468C37.9165 56.4685 36.4143 57.6411 35.5329 59.4782C35.2287 60.1118 35.0898 60.7826 35.0898 61.4838C35.0898 63.6187 36.2073 65.1134 38.1073 66.0245C38.8014 66.3572 39.6975 66.4205 40.456 66.4205C41.1233 66.4205 42.0659 66.0104 42.658 65.7284L42.7607 65.6796H43.22L43.2707 65.6899C43.836 65.8078 44.2626 66.1671 44.2626 66.7771V67.0238C44.2626 68.5412 41.4974 68.8888 40.4423 68.9626C36.7188 69.2212 33.934 67.1701 32.8723 63.6079C32.6879 62.9896 32.6049 62.3751 32.6049 61.7305V61.2373C32.6049 58.5343 33.9421 56.3935 36.2535 55.0162C37.3284 54.3761 38.517 54.0546 39.7657 54.0546H40.2581C41.5826 54.0546 42.8026 54.4319 43.8963 55.1811L43.9863 55.2434L44.0429 55.3373C44.1609 55.5337 44.2626 55.7606 44.2626 55.9944V56.2411C44.2626 56.8773 43.788 57.2194 43.215 57.3302L43.1676 57.3386H43.0208C42.6498 57.3386 41.8069 56.9534 41.4759 56.7971ZM49.5366 58.4849C50.5017 57.5155 51.4707 56.5479 52.4502 55.5944C52.7233 55.3285 53.757 54.2027 54.1639 54.2027H54.6091L54.6598 54.2131C55.2266 54.3313 55.6514 54.6913 55.6514 55.3024V55.5489C55.6514 55.9658 55.1646 56.45 54.8961 56.7353C54.3252 57.3422 53.724 57.9295 53.1397 58.524L50.1374 61.5808C51.4301 62.8802 52.7216 64.181 54.0038 65.4905C54.3585 65.8526 54.7134 66.2152 55.0626 66.5827C55.1861 66.7129 55.3683 66.875 55.4719 67.0557C55.583 67.2247 55.6514 67.4154 55.6514 67.619V67.8768L55.6369 67.936C55.4973 68.5045 55.1375 68.9634 54.5091 68.9634H54.3115C53.9002 68.9634 53.436 68.4968 53.1541 68.2304C52.5741 67.6816 52.0134 67.1045 51.4446 66.5439L49.5366 64.6655V67.6678C49.5366 68.3593 49.105 68.915 48.392 68.915H48.1962C47.4825 68.915 47.0515 68.3593 47.0515 67.6678V50.7496C47.0515 50.0577 47.4828 49.5046 48.1962 49.5046H48.392C49.105 49.5046 49.5366 50.0577 49.5366 50.7496V58.4849ZM80.5103 54.2027H80.7569C81.5024 54.2027 81.9998 54.7065 81.9998 55.4496C81.9998 56.4815 81.0163 56.7456 80.1652 56.7456C79.0491 56.7456 77.9837 57.4234 77.2143 58.1834C76.2549 59.1319 75.8349 60.347 75.8349 61.6824V67.7165C75.8349 68.4084 75.4045 68.9634 74.6899 68.9634H74.4939C73.7798 68.9634 73.3493 68.4084 73.3493 67.7165V61.3361C73.3493 58.8859 74.5386 56.886 76.5209 55.4832C77.7051 54.6451 79.0608 54.2027 80.5103 54.2027ZM62.847 66.1608C63.7514 66.4774 64.7826 66.4323 65.7105 66.2701C66.1849 66.0679 67.3988 65.537 67.8452 65.6147L67.9149 65.6264L67.979 65.6581C68.2514 65.7906 68.5118 65.978 68.6507 66.256C68.9761 66.9084 68.8198 67.5637 68.181 67.9339L67.9683 68.0571C65.6109 69.4219 63.1037 69.2327 60.7539 67.9581C59.6304 67.3491 58.7709 66.4447 58.137 65.3425L57.9885 65.0848C56.4753 62.4563 56.6795 59.6911 58.3862 57.1915C58.9755 56.3275 59.7455 55.66 60.6459 55.138L60.9865 54.9409C63.2065 53.6556 65.5858 53.7435 67.866 54.8717C69.0918 55.4782 70.0851 56.3827 70.7696 57.5717L70.8926 57.7858C71.3898 58.6497 70.7457 59.4027 70.0808 59.9173C69.3093 60.5144 68.5302 61.2328 67.7906 61.8731C66.1416 63.3007 64.4951 64.7318 62.847 66.1608ZM60.7127 64.6574C62.5571 63.0713 64.4018 61.4841 66.2409 59.8917C66.8694 59.348 67.5587 58.7838 68.1823 58.212C67.6818 57.5798 66.8462 57.1239 66.136 56.8521C64.7028 56.3043 63.2892 56.4883 61.9747 57.2494C60.2538 58.2458 59.521 59.8327 59.5854 61.8075C59.6107 62.5851 59.8194 63.3345 60.2309 63.9962C60.3759 64.2294 60.5379 64.4484 60.7127 64.6574Z" transform="translate(0.485352)" fill="#CFD5DC"/>
<path d="M40.253 1.75684H40.7545V7.06934H40.253V1.75684Z" transform="translate(0.485352)" fill="#CFD5DC"/>
<path d="M41.1959 1.75684H41.7174V7.06934H41.1959V1.75684Z" transform="translate(0.485352)" fill="#CFD5DC"/>
<path d="M42.6803 1.75684H42.1588V7.06934H42.6803V1.75684Z" transform="translate(0.485352)" fill="#CFD5DC"/>
<path d="M43.1217 1.75684H43.6437V7.06934H43.1217V1.75684Z" transform="translate(0.485352)" fill="#CFD5DC"/>
<path d="M44.6066 1.75684H44.0851V7.06934H44.6066V1.75684Z" transform="translate(0.485352)" fill="#CFD5DC"/>
<path d="M45.048 1.75684H45.5494V7.06934H45.048V1.75684Z" transform="translate(0.485352)" fill="#CFD5DC"/>
<path d="M26.0875 9.1123H25.5865V14.4238H26.0875V9.1123Z" transform="translate(0.485352)" fill="#CFD5DC"/>
<path d="M26.5294 9.1123H27.0504V14.4238H26.5294V9.1123Z" transform="translate(0.485352)" fill="#CFD5DC"/>
<path d="M28.0133 9.1123H27.4918V14.4238H28.0133V9.1123Z" transform="translate(0.485352)" fill="#CFD5DC"/>
<path d="M28.4547 9.1123H28.9767V14.4238H28.4547V9.1123Z" transform="translate(0.485352)" fill="#CFD5DC"/>
<path d="M29.9401 9.1123H29.4181V14.4238H29.9401V9.1123Z" transform="translate(0.485352)" fill="#CFD5DC"/>
<path d="M30.381 9.1123H30.8829V14.4238H30.381V9.1123Z" transform="translate(0.485352)" fill="#CFD5DC"/>
<path d="M18.7535 16.4668H18.2521V21.7793H18.7535V16.4668Z" transform="translate(0.485352)" fill="#CFD5DC"/>
<path d="M19.1949 16.4668H19.7169V21.7793H19.1949V16.4668Z" transform="translate(0.485352)" fill="#CFD5DC"/>
<path d="M20.6793 16.4668H20.1578V21.7793H20.6793V16.4668Z" transform="translate(0.485352)" fill="#CFD5DC"/>
<path d="M21.1212 16.4668H21.6427V21.7793H21.1212V16.4668Z" transform="translate(0.485352)" fill="#CFD5DC"/>
<path d="M22.6056 16.4668H22.0841V21.7793H22.6056V16.4668Z" transform="translate(0.485352)" fill="#CFD5DC"/>
<path d="M23.047 16.4668H23.5489V21.7793H23.047V16.4668Z" transform="translate(0.485352)" fill="#CFD5DC"/>
<path d="M25.5865 16.4668H26.0875V21.7793H25.5865V16.4668Z" transform="translate(0.485352)" fill="#CFD5DC"/>
<path d="M27.0504 16.4668H26.5294V21.7793H27.0504V16.4668Z" transform="translate(0.485352)" fill="#CFD5DC"/>
<path d="M27.4918 16.4668H28.0133V21.7793H27.4918V16.4668Z" transform="translate(0.485352)" fill="#CFD5DC"/>
<path d="M28.9767 16.4668H28.4547V21.7793H28.9767V16.4668Z" transform="translate(0.485352)" fill="#CFD5DC"/>
<path d="M29.4181 16.4668H29.9401V21.7793H29.4181V16.4668Z" transform="translate(0.485352)" fill="#CFD5DC"/>
<path d="M30.8829 16.4668H30.381V21.7793H30.8829V16.4668Z" transform="translate(0.485352)" fill="#CFD5DC"/>
<path d="M33.4205 16.4668H32.9195V21.7793H33.4205V16.4668Z" transform="translate(0.485352)" fill="#CFD5DC"/>
<path d="M33.8624 16.4668H34.3839V21.7793H33.8624V16.4668Z" transform="translate(0.485352)" fill="#CFD5DC"/>
<path d="M35.3468 16.4668H34.8253V21.7793H35.3468V16.4668Z" transform="translate(0.485352)" fill="#CFD5DC"/>
<path d="M35.7882 16.4668H36.3102V21.7793H35.7882V16.4668Z" transform="translate(0.485352)" fill="#CFD5DC"/>
<path d="M37.2736 16.4668H36.7516V21.7793H37.2736V16.4668Z" transform="translate(0.485352)" fill="#CFD5DC"/>
<path d="M37.7145 16.4668H38.2159V21.7793H37.7145V16.4668Z" transform="translate(0.485352)" fill="#CFD5DC"/>
<path d="M32.9195 9.1123H33.4205V14.4238H32.9195V9.1123Z" transform="translate(0.485352)" fill="#CFD5DC"/>
<path d="M34.3839 9.1123H33.8624V14.4238H34.3839V9.1123Z" transform="translate(0.485352)" fill="#CFD5DC"/>
<path d="M34.8253 9.1123H35.3468V14.4238H34.8253V9.1123Z" transform="translate(0.485352)" fill="#CFD5DC"/>
<path d="M36.3102 9.1123H35.7882V14.4238H36.3102V9.1123Z" transform="translate(0.485352)" fill="#CFD5DC"/>
<path d="M36.7516 9.1123H37.2736V14.4238H36.7516V9.1123Z" transform="translate(0.485352)" fill="#CFD5DC"/>
<path d="M38.2159 9.1123H37.7145V14.4238H38.2159V9.1123Z" transform="translate(0.485352)" fill="#CFD5DC"/>
<path d="M40.7545 16.4668H40.253V21.7793H40.7545V16.4668Z" transform="translate(0.485352)" fill="#CFD5DC"/>
<path d="M41.1959 16.4668H41.7174V21.7793H41.1959V16.4668Z" transform="translate(0.485352)" fill="#CFD5DC"/>
<path d="M42.6803 16.4668H42.1588V21.7793H42.6803V16.4668Z" transform="translate(0.485352)" fill="#CFD5DC"/>
<path d="M43.1217 16.4668H43.6437V21.7793H43.1217V16.4668Z" transform="translate(0.485352)" fill="#CFD5DC"/>
<path d="M44.6066 16.4668H44.0851V21.7793H44.6066V16.4668Z" transform="translate(0.485352)" fill="#CFD5DC"/>
<path d="M45.048 16.4668H45.5494V21.7793H45.048V16.4668Z" transform="translate(0.485352)" fill="#CFD5DC"/>
<path d="M40.253 9.1123H40.7545V14.4238H40.253V9.1123Z" transform="translate(0.485352)" fill="#CFD5DC"/>
<path d="M41.7174 9.1123H41.1959V14.4238H41.7174V9.1123Z" transform="translate(0.485352)" fill="#CFD5DC"/>
<path d="M42.1588 9.1123H42.6803V14.4238H42.1588V9.1123Z" transform="translate(0.485352)" fill="#CFD5DC"/>
<path d="M43.6437 9.1123H43.1217V14.4238H43.6437V9.1123Z" transform="translate(0.485352)" fill="#CFD5DC"/>
<path d="M44.0851 9.1123H44.6066V14.4238H44.0851V9.1123Z" transform="translate(0.485352)" fill="#CFD5DC"/>
<path d="M45.5494 9.1123H45.048V14.4238H45.5494V9.1123Z" transform="translate(0.485352)" fill="#CFD5DC"/>
<path d="M47.5861 16.4668H48.088V21.7793H47.5861V16.4668Z" transform="translate(0.485352)" fill="#CFD5DC"/>
<path d="M49.0509 16.4668H48.5289V21.7793H49.0509V16.4668Z" transform="translate(0.485352)" fill="#CFD5DC"/>
<path d="M49.4923 16.4668H50.0138V21.7793H49.4923V16.4668Z" transform="translate(0.485352)" fill="#CFD5DC"/>
<path d="M50.9767 16.4668H50.4552V21.7793H50.9767V16.4668Z" transform="translate(0.485352)" fill="#CFD5DC"/>
<path d="M51.4186 16.4668H51.9401V21.7793H51.4186V16.4668Z" transform="translate(0.485352)" fill="#CFD5DC"/>
<path d="M52.8829 16.4668H52.3815V21.7793H52.8829V16.4668Z" transform="translate(0.485352)" fill="#CFD5DC"/>
<path fill-rule="evenodd" clip-rule="evenodd" d="M47.3019 14.71H54.6349V22.2295H58.3429C60.0553 22.2295 61.8165 21.9229 63.4381 21.3721C64.235 21.1016 65.1295 20.7236 65.9156 20.25C64.88 18.8945 64.3517 17.1826 64.1959 15.4951C63.985 13.2002 64.4464 10.2139 65.9947 8.41699L66.7657 7.52344L67.6842 8.26367C69.9972 10.127 71.9425 12.7314 72.2853 15.7002C75.0699 14.8779 78.3395 15.0723 80.7941 16.4932L81.8009 17.0762L81.2711 18.1143C79.1949 22.1777 74.8551 23.4365 70.6119 23.2139C64.2628 39.0742 50.4401 46.583 33.6798 46.583C25.0206 46.583 17.0763 43.3369 12.5524 35.6318L12.4781 35.5059L11.819 34.1611C10.2902 30.7695 9.78185 27.0537 10.1266 23.3408L10.2301 22.2295H16.5011V14.71H23.8341V7.35547H38.5016V0H47.3019V14.71ZM46.0792 1.22559H39.7233V7.60059H46.0792V1.22559ZM31.4127 8.58105H25.0563V14.9551H31.4127V8.58105ZM24.0782 15.9355H17.7228V22.3105H24.0782V15.9355ZM25.0563 15.9355H31.4127V22.3105H25.0563V15.9355ZM38.7457 15.9355H32.3898V22.3105H38.7457V15.9355ZM32.3898 8.58105H38.7457V14.9551H32.3898V8.58105ZM46.0792 15.9355H39.7233V22.3105H46.0792V15.9355ZM39.7233 8.58105H46.0792V14.9551H39.7233V8.58105ZM47.0568 15.9355H53.4127V22.3105H47.0568V15.9355ZM66.6739 9C68.4474 10.4297 71.3072 13.4395 70.8155 17.2725L70.8878 17.2363C73.1305 16.1357 76.9557 15.6094 79.9376 17.3359C78.0455 21.041 73.8854 22.1475 69.5568 21.7021C63.6832 37.3105 50.6954 44.5859 35.2423 45.1074C35.3844 45.1787 35.5294 45.25 35.6759 45.3193C35.0143 45.3438 34.3492 45.3574 33.6798 45.3574C24.609 45.3008 19.7096 42.2275 15.7277 38.2363L15.8707 38.2441L15.7203 38.0762L15.7491 38.0566C16.8776 38.1143 17.8868 38.1338 18.9117 38.1338C19.8487 38.1338 20.7657 38.123 21.6149 38.0762L21.7355 38.0664L21.8268 38.0586L21.7921 38.0254L21.8541 38.0566C21.8541 38.0566 22.1163 38.0391 21.9884 38.0371C24.1461 37.9033 25.8185 37.6025 27.378 37.1562C27.5738 37.1006 27.7648 37.042 27.9508 36.9814L28.2008 36.8975C28.4952 36.7949 28.6515 36.4727 28.5494 36.1777C28.4474 35.8818 28.1261 35.7246 27.8312 35.8281C25.8502 36.5166 23.2364 36.8955 20.0333 36.9658C18.4034 37.0029 16.6217 36.959 14.6896 36.835C14.2897 36.2998 13.92 35.7432 13.5817 35.167L13.047 34.1865C11.4308 31 10.7233 27.2773 11.0987 23.2354H58.0978C61.9586 23.2354 65.7296 21.79 67.5187 20.1963C64.3126 17.5811 64.63 11.3701 66.6739 9Z" transform="translate(0.485352)" fill="#CFD5DC"/>
<path fill-rule="evenodd" clip-rule="evenodd" d="M0 29.0021H81.5663C79.7903 28.5503 75.9471 27.9399 76.5809 25.6055C73.3516 29.3534 65.5635 28.2348 63.598 26.3867C61.4092 29.5706 48.6673 28.3604 47.7786 25.8801C45.0347 29.1098 36.5321 29.1098 33.788 25.8801C32.899 28.3604 20.1572 29.5706 17.9683 26.3867C16.0028 28.2348 8.21542 29.3534 4.98576 25.6055C5.61957 27.9399 1.77637 28.5503 0 29.0021Z" transform="translate(0.485352)" fill="#CFD5DC"/>
<path fill-rule="evenodd" clip-rule="evenodd" d="M31.0142 33.1445C31.1747 33.1445 31.3277 33.1749 31.4689 33.2298C31.3158 33.3185 31.2123 33.4848 31.2123 33.675C31.2123 33.9589 31.4417 34.1887 31.7248 34.1887C31.9187 34.1887 32.0872 34.0807 32.1743 33.9211C32.2358 34.0698 32.27 34.2331 32.27 34.4044C32.27 35.0998 31.7078 35.6637 31.0142 35.6637C30.3208 35.6637 29.7583 35.0998 29.7583 34.4044C29.7583 33.7085 30.3208 33.1445 31.0142 33.1445Z" transform="translate(0.485352)" fill="#CFD5DC"/>
</svg>
