<svg width="46" height="85" viewBox="0 0 46 85" fill="none" xmlns="http://www.w3.org/2000/svg">
<path d="M44.0489 67.0282H43.7266V66.8477H44.6055V67.0282H44.2862V67.9221H44.0606L44.0489 67.0282ZM45.7775 67.0748L45.4582 67.9221H45.3146L44.9952 67.0748V67.9221H44.7843V66.8506H45.0948L45.3878 67.6106L45.6808 66.8506H46.0002V67.9221H45.7922V67.0748H45.7775Z" fill="#CFD5DC"/>
<path d="M15.2036 45.0869C15.2036 45.0869 12.9622 46.3827 16.8004 46.834C21.4473 47.3611 23.8323 47.2854 28.945 46.3215C29.973 46.933 31.0512 47.4571 32.1679 47.8881C20.6855 52.78 6.17648 47.5969 15.1978 45.0986L15.2036 45.0869Z" fill="#CFD5DC"/>
<path d="M13.7998 38.7041C13.7998 38.7041 11.2859 40.5531 15.1241 40.9491C20.0904 41.4587 24.0136 41.4995 30.7993 40.2008C31.4948 40.8459 32.3167 41.3415 33.2136 41.6567C19.3374 45.6984 3.8644 41.9829 13.7998 38.7041Z" fill="#CFD5DC"/>
<path d="M25.631 27.8778C28.4613 31.1158 24.8868 34.0276 24.8868 34.0276C24.8868 34.0276 32.071 30.3412 28.7718 25.7259C25.6896 21.4222 23.328 19.282 36.1201 11.9062C36.1201 11.9062 16.0383 16.8913 25.631 27.8778Z" fill="#CFD5DC"/>
<path d="M40.8196 49.8106C40.8196 49.8106 42.4779 51.1675 38.9913 52.2187C32.3638 54.2133 11.403 54.8161 5.59003 52.2973C3.49806 51.3946 7.42417 50.1367 8.65768 49.8746C9.31987 49.7125 10.0004 49.6362 10.6823 49.6475C8.33831 48.0198 -4.36589 52.8506 4.22175 54.2308C27.6349 58.0162 46.9051 52.5332 40.846 49.8106H40.8196Z" fill="#CFD5DC"/>
<path d="M16.2819 32.0914C16.2819 32.0914 5.61983 34.6073 12.5052 35.5245C15.4146 35.9118 21.21 35.8157 26.6099 35.3731C31.0224 35.0033 35.4524 34.2083 35.4524 34.2083C34.5216 34.6114 33.625 35.0885 32.7715 35.6351C21.9308 38.4655 1.02861 37.1493 7.04963 34.2549C12.1419 31.809 16.2819 32.0856 16.2819 32.0856V32.0914Z" fill="#CFD5DC"/>
<path d="M35.4082 42.7174C46.4131 37.0335 41.3267 31.5708 37.7727 32.3075C37.3452 32.3848 36.9248 32.4968 36.5157 32.6424C36.7484 32.3126 37.0764 32.0608 37.4562 31.9203C44.4881 29.4656 49.885 39.1621 35.1855 43.0028C35.2782 42.9212 35.3539 42.8222 35.4082 42.7116V42.7174Z" fill="#CFD5DC"/>
<path d="M28.7721 0C28.7721 0 34.8663 6.05957 22.9913 15.3775C13.4661 22.8523 20.8202 27.1152 22.9913 31.9751C17.4244 26.99 13.3518 22.6018 16.0884 18.5194C20.1024 12.521 31.2303 9.6266 28.7721 0Z" fill="#CFD5DC"/>
<path d="M17.3625 58.1177C27.9279 58.7903 44.1509 57.745 44.5348 52.7773C44.5348 52.7773 43.7964 54.6613 35.8035 56.1551C26.7852 57.844 15.6661 57.6547 9.08252 56.5657C9.08252 56.5657 10.4332 57.6751 17.3772 58.1177H17.3625Z" fill="#CFD5DC"/>
<path d="M15.6315 77.0997C14.6353 77.9733 13.5806 78.4421 12.6371 78.4421C11.2894 78.4421 10.5627 77.6384 10.5627 76.3514C10.5627 74.9566 11.3421 73.9374 14.4742 73.9374H15.6462V77.0997H15.6315ZM18.3974 80.1834V70.6383C18.3974 68.2011 16.9969 66.5908 13.6245 66.5908C11.8663 66.5987 10.1294 66.9737 8.52643 67.6915L8.93076 69.3804C10.1886 68.9014 11.5192 68.6385 12.8657 68.6029C14.8111 68.6029 15.6462 69.3804 15.6462 70.9906V72.1961H14.65C9.92694 72.1961 7.79688 74.019 7.79688 76.7532C7.79688 79.1118 9.20032 80.4542 11.846 80.4542C13.5425 80.4542 14.8111 79.7553 15.9978 78.7362L16.2117 80.1921H18.371L18.3974 80.1834Z" fill="#CFD5DC"/>
<path d="M27.5587 80.1839H24.1307L20.0024 66.833H22.9968L25.5576 75.0357L26.126 77.505C27.4006 74.0536 28.2965 70.4755 28.7981 66.833H31.7105C30.9311 71.2299 29.5277 76.0549 27.5587 80.1839Z" fill="#CFD5DC"/>
<path d="M40.7262 77.0997C39.7271 77.9733 38.6753 78.4421 37.7289 78.4421C36.3812 78.4421 35.6516 77.6384 35.6516 76.3514C35.6516 74.9566 36.4339 73.9374 39.566 73.9374H40.738V77.0997H40.7262ZM43.4862 70.6383C43.4862 68.2011 42.0857 66.5908 38.7134 66.5908C36.9553 66.5993 35.2185 66.9743 33.6153 67.6915L34.0196 69.3804C35.2784 68.9014 36.61 68.6385 37.9575 68.6029C39.9 68.6029 40.738 69.3804 40.738 70.9906V72.1961H39.7652C35.0422 72.1961 32.9121 74.019 32.9121 76.7532C32.9121 79.1118 34.3155 80.4542 36.9584 80.4542C38.6577 80.4542 39.9264 79.7553 41.113 78.7362L41.3298 80.1921H43.4862V70.6383Z" fill="#CFD5DC"/>
<path d="M4.79338 82.4524C3.9345 83.6287 2.7358 84.5173 1.35656 85.0003L0 83.4104C0.994162 82.9191 1.82138 82.1486 2.37911 81.1945C2.74535 80.4753 2.89478 79.5464 2.89478 77.3276V62.0869H5.82471V77.1208C5.82471 80.0851 5.58739 81.2848 4.80217 82.4524H4.79338Z" fill="#CFD5DC"/>
</svg>
