<svg width="105" height="49" viewBox="0 0 105 49" fill="none" xmlns="http://www.w3.org/2000/svg">
<path d="M10.3067 4.31718C9.76994 3.77753 9.0184 3.45374 8.26687 3.45374C7.40798 3.45374 6.7638 3.77753 6.22699 4.31718C5.69018 4.85683 5.3681 5.61233 5.3681 6.47577C5.3681 7.33921 5.69018 8.09471 6.22699 8.63436C6.7638 9.17401 7.51534 9.4978 8.26687 9.4978C9.12577 9.4978 9.76994 9.17401 10.3067 8.63436C10.8436 8.09471 11.1656 7.33921 11.1656 6.47577C11.1656 5.61233 10.8436 4.85683 10.3067 4.31718ZM8.15951 45.4383C9.0184 45.4383 9.66258 45.1145 10.1994 44.5749C10.7362 44.0352 11.0583 43.2797 11.0583 42.4163C11.0583 41.5529 10.7362 40.7974 10.1994 40.2577C9.66258 39.7181 8.91104 39.3943 8.15951 39.3943C7.30061 39.3943 6.65644 39.7181 6.11963 40.2577C5.58282 40.7974 5.26074 41.5529 5.26074 42.4163C5.26074 43.2797 5.58282 44.0352 6.11963 44.5749C6.65644 45.1145 7.40798 45.4383 8.15951 45.4383ZM24.1564 36.3722C24.908 36.1564 25.5521 35.7247 25.9816 34.9692L26.089 34.8612C26.411 34.2137 26.5184 33.3502 26.3037 32.7026C26.089 31.9471 25.5521 31.2996 24.908 30.8678C24.2638 30.4361 23.4049 30.4361 22.7607 30.652C22.0092 30.8678 21.365 31.2996 20.9356 32.0551C20.5061 32.8106 20.3988 33.5661 20.6135 34.3216C20.8282 35.0771 21.2577 35.7247 22.0092 36.1564C22.6534 36.4802 23.4049 36.5881 24.1564 36.3722ZM11.1656 21.37C10.4141 20.6145 9.34049 20.0749 8.15951 20.0749C6.97853 20.0749 5.90491 20.6145 5.15337 21.37C4.40184 22.1256 3.86503 23.2048 3.86503 24.3921C3.86503 25.5793 4.29448 26.6586 5.15337 27.522C5.90491 28.2775 6.97853 28.8172 8.15951 28.8172C9.34049 28.8172 10.4141 28.2775 11.1656 27.522C11.9172 26.7665 12.454 25.6872 12.454 24.3921C12.454 23.0969 11.9172 22.1256 11.1656 21.37ZM9.55522 16.2974C11.273 16.6211 12.7761 17.3767 13.9571 18.6718C14.1718 18.8877 14.2791 19.1035 14.4939 19.3194L17.3926 17.5925C16.9632 16.4053 16.9632 15.1101 17.2853 13.9229C17.7147 12.304 18.681 10.9009 20.2914 10.0374C21.7945 9.17401 23.5123 8.95815 25.0153 9.38987C26.6258 9.82159 28.0215 10.9009 28.8804 12.4119C29.7393 13.9229 29.954 15.7577 29.5245 17.3767C29.0951 18.9956 28.1288 20.3987 26.5184 21.2621L26.089 21.478C24.6933 22.1255 23.1902 22.2335 21.6871 21.9097C20.5061 21.5859 19.4325 20.9383 18.5736 19.967L15.6748 21.6938C15.9969 22.5573 16.2117 23.6366 16.2117 24.6079C16.2117 25.6872 15.9969 26.6586 15.6748 27.522L18.5736 29.2489C19.4325 28.2775 20.5061 27.63 21.6871 27.3062C23.2975 26.8744 25.0153 27.0903 26.5184 27.9537H26.6258C28.1288 28.8172 29.0951 30.2203 29.5245 31.8392C29.954 33.4582 29.7393 35.185 28.8804 36.696V36.804C28.0215 38.315 26.6258 39.2863 25.1227 39.7181C23.5123 40.1498 21.7945 39.9339 20.2914 39.0705C18.7883 38.207 17.7147 36.696 17.2853 35.185C16.9632 33.9978 16.9632 32.7026 17.3926 31.5154L14.4939 29.7885C14.2791 30.0044 14.1718 30.2203 13.9571 30.4361C12.7761 31.6233 11.273 32.4868 9.55522 32.8106V36.2643C10.7362 36.4802 11.9172 37.1277 12.6687 37.9912C13.8497 39.1784 14.4939 40.7974 14.4939 42.5242C14.4939 44.2511 13.7423 45.87 12.6687 47.0573C11.4877 48.2445 9.98466 49 8.15951 49C6.44172 49 4.83129 48.2445 3.65031 47.0573C2.46933 45.87 1.82515 44.2511 1.82515 42.5242C1.82515 40.6894 2.57669 39.0705 3.65031 37.9912C4.5092 37.1277 5.58282 36.4802 6.7638 36.2643V32.8106C5.04601 32.4868 3.54294 31.7313 2.36196 30.4361C0.858896 28.9251 0 26.8745 0 24.6079C0 22.3414 0.966258 20.2907 2.36196 18.7797C3.54294 17.5925 5.04601 16.7291 6.7638 16.4053V12.9515C5.69018 12.5198 4.61656 11.8722 3.75767 11.0088C2.57669 9.82159 1.93252 8.20264 1.93252 6.47577C1.93252 4.7489 2.68405 3.02203 3.75767 1.94273C4.93865 0.755506 6.44172 0 8.26687 0C9.98466 0 11.5951 0.755506 12.7761 1.94273C13.9571 3.12996 14.6012 4.7489 14.6012 6.47577C14.6012 8.31057 13.8497 9.92952 12.7761 11.0088C11.9172 11.8722 10.8436 12.5198 9.66258 12.7357C9.55522 12.8436 9.55522 16.2974 9.55522 16.2974ZM25.9816 13.9229C25.5521 13.1674 24.908 12.7357 24.1564 12.5198C23.4049 12.304 22.6534 12.4119 21.9018 12.8436C21.1503 13.2753 20.7209 13.9229 20.5061 14.6784C20.2914 15.4339 20.3988 16.2974 20.8282 16.9449C21.2577 17.7004 21.9018 18.1322 22.6534 18.348C23.4049 18.5639 24.1564 18.4559 24.908 18.0242C25.5521 17.5925 26.089 16.9449 26.1963 16.1894C26.411 15.5418 26.411 14.6784 25.9816 13.9229Z" fill="#CFD5DC"/>
<path d="M38.9722 15.002H42.193V25.2553L46.917 19.9667H50.8893L45.1992 26.1187L50.8893 33.9976H47.1317L42.193 26.9821V33.9976H38.9722V15.002Z" fill="#CFD5DC"/>
<path d="M54.7545 26.9828C54.7545 28.7097 55.9355 31.3 58.9416 31.3C60.7668 31.3 61.9477 30.3286 62.5919 29.0335C62.914 28.3859 63.0214 27.7383 63.1287 27.0907C63.1287 26.4432 63.0214 25.6876 62.6993 25.148C62.1625 23.8528 60.8741 22.6656 58.8342 22.6656C56.2576 22.5577 54.7545 24.7163 54.7545 26.9828ZM66.3496 33.8903H63.0214V31.8396C62.1625 33.4586 60.3373 34.322 58.4048 34.322C54.003 34.322 51.4263 30.8683 51.4263 26.8749C51.4263 22.4498 54.5398 19.4277 58.4048 19.4277C60.8741 19.4277 62.3772 20.8308 63.0214 21.9101V19.8595H66.3496V33.8903Z" fill="#CFD5DC"/>
<path d="M70 22.4496H68.2822V19.8593H70V19.1038C70 14.8946 73.1135 14.6787 75.4755 14.6787V17.269C74.6166 17.269 73.3282 17.269 73.3282 19.2118V19.8593H75.4755V22.4496H73.3282V33.8902H70V22.4496Z" fill="#CFD5DC"/>
<path d="M77.73 15.002H80.9508V25.2553L85.6748 19.9667H89.6472L83.957 26.1187L89.6472 33.9976H85.8895L80.9508 26.9821V33.9976H77.73V15.002Z" fill="#CFD5DC"/>
<path d="M93.4049 26.9828C93.4049 28.7097 94.5859 31.3 97.5921 31.3C99.4172 31.3 100.598 30.3286 101.242 29.0335C101.564 28.3859 101.672 27.7383 101.779 27.0907C101.779 26.4432 101.672 25.6876 101.35 25.148C100.813 23.8528 99.5246 22.6656 97.4847 22.6656C94.908 22.5577 93.4049 24.7163 93.4049 26.9828ZM105 33.8903H101.779V31.8396C100.92 33.4586 99.0951 34.322 97.1626 34.322C92.7608 34.322 90.1841 30.8683 90.1841 26.8749C90.1841 22.4498 93.2976 19.4277 97.1626 19.4277C99.6319 19.4277 101.135 20.8308 101.779 21.9101V19.8595H105V33.8903Z" fill="#CFD5DC"/>
</svg>
