<svg width="109" height="59" viewBox="0 0 109 59" fill="none" xmlns="http://www.w3.org/2000/svg">
<path d="M55.7622 20.8516L56.9527 20.2803L57.2617 19.0059L56.4239 17.9512H55.1011L54.2632 19.0059L54.5718 20.2803L55.7622 20.8516Z" fill="#CFD5DC"/>
<path d="M64.3164 20.1924C64.4043 19.2695 64.3604 18.3467 64.1402 17.4238C63.9195 16.501 63.5669 15.6221 63.0816 14.8311L59.7749 17.8193C59.6866 17.9072 59.6426 17.9951 59.5987 18.127C59.5103 18.5225 59.7305 18.918 60.1275 19.0059L64.3164 20.1924Z" fill="#CFD5DC"/>
<path d="M58.1436 15.7539L61.7588 13.2051C60.4361 11.8867 58.7163 11.0518 56.7764 10.832L57.041 15.2705C57.041 15.4023 57.085 15.4902 57.1734 15.5781C57.3936 15.8857 57.8345 15.9297 58.1436 15.7539Z" fill="#CFD5DC"/>
<path d="M54.6602 10.7881L53.7784 10.9639C52.2349 11.3154 50.8238 12.1064 49.6778 13.2051L53.3374 15.7979L53.4156 15.8252C53.5088 15.8584 53.5855 15.8857 53.69 15.8857C54.0869 15.8857 54.4395 15.5781 54.4395 15.1826L54.6602 10.7881Z" fill="#CFD5DC"/>
<path d="M51.6617 17.7314L48.399 14.8311C47.4287 16.457 46.9878 18.3467 47.1201 20.1924L51.397 18.9619C51.5738 18.918 51.6617 18.874 51.75 18.7422C52.0147 18.4346 51.9702 17.9951 51.6617 17.7314Z" fill="#CFD5DC"/>
<path d="M52.0147 21.5107L47.6494 22.2578C48.2666 24.0156 49.501 25.5537 51.0445 26.5645L52.7198 22.5215C52.8081 22.3896 52.8081 22.2139 52.7642 22.082C52.7198 21.7305 52.3672 21.5107 52.0147 21.5107Z" fill="#CFD5DC"/>
<path d="M55.7622 27.9268C56.4239 27.9268 57.041 27.8389 57.6582 27.707C57.9668 27.6191 58.2315 27.5752 58.4961 27.5312L56.3794 23.708C56.2476 23.5762 56.1592 23.4883 56.0269 23.4004C55.7183 23.2246 55.3658 23.3125 55.1451 23.5762L52.9844 27.4873C53.8662 27.751 54.8365 27.9268 55.7622 27.9268Z" fill="#CFD5DC"/>
<path d="M60.3921 26.5205C61.4502 25.8613 62.3765 24.9385 63.0376 23.8838C63.3902 23.4004 63.6548 22.8291 63.8755 22.2139L59.4663 21.4668C59.334 21.4668 59.2017 21.5107 59.0694 21.5547C58.7608 21.6865 58.5845 22.0381 58.6724 22.3896L60.3921 26.5205Z" fill="#CFD5DC"/>
<path fill-rule="evenodd" clip-rule="evenodd" d="M69.8213 6.63574C70.4825 6.9873 71.0117 7.55859 71.232 8.26172L74.583 22.6328C74.6714 23.3799 74.4951 24.127 74.0542 24.7422L64.7505 36.2119C64.2657 36.8711 63.5161 37.2227 62.7222 37.1348H47.9073C47.1577 37.0908 46.4082 36.7393 45.8789 36.2119L36.5752 24.7422C36.1343 24.127 35.958 23.3799 36.0904 22.6328L39.3975 8.17383C39.5738 7.42676 40.0586 6.85547 40.7202 6.54785L54.1685 0.0878906C54.521 0 54.918 0 55.2705 0C55.6236 0 56.0201 0.0439453 56.3731 0.219727L69.8213 6.63574ZM69.6075 21.5986C69.6075 21.6426 69.6514 21.6426 69.6958 21.6426C70.0923 21.7305 70.4453 22.082 70.4893 22.5654C70.357 22.917 70.0044 23.1807 69.6075 23.1807C69.5191 23.1807 69.4751 23.1807 69.3867 23.1367C69.3614 23.1113 69.3506 23.1006 69.3379 23.0957C69.3282 23.0928 69.3174 23.0928 69.2989 23.0928C69.2471 23.0928 69.2105 23.0781 69.1802 23.0654C69.1587 23.0566 69.1407 23.0488 69.1226 23.0488C68.9917 23.0166 68.8858 22.96 68.7681 22.8975C68.7261 22.875 68.6831 22.8516 68.6372 22.8291C68.5493 22.8291 68.461 22.7852 68.3731 22.7412H68.3286C67.8877 22.5654 67.4029 22.4336 66.918 22.3457H66.8736C66.7412 22.3457 66.6089 22.3896 66.521 22.4775C66.521 22.4775 66.521 22.5215 66.4771 22.5215L66.1241 22.4775C65.3306 24.9824 63.6109 27.0918 61.3623 28.4541L61.4942 28.8057C61.4942 28.8057 61.4502 28.8057 61.4502 28.8496C61.3623 28.9814 61.3623 29.1572 61.4063 29.2891C61.5826 29.7285 61.8033 30.168 62.1118 30.5635V30.6514C62.1997 30.7393 62.2442 30.7832 62.2881 30.8711C62.4204 31.0029 62.5083 31.1348 62.5967 31.3105C62.6407 31.3545 62.6851 31.3984 62.6851 31.4424C62.6851 31.4424 62.729 31.4424 62.729 31.4863C62.8174 31.7061 62.8174 31.9258 62.773 32.1455C62.729 32.3652 62.5528 32.541 62.3765 32.6289L62.2989 32.6562C62.2056 32.6895 62.1284 32.7168 62.0235 32.7168C61.6709 32.7168 61.3623 32.4971 61.1856 32.1895C61.1416 32.1895 61.1416 32.1455 61.1416 32.1455C61.1197 32.124 61.1089 32.1016 61.0977 32.0801C61.0869 32.0576 61.0757 32.0361 61.0533 32.0137C60.9654 31.8818 60.9214 31.7061 60.877 31.5303L60.7891 31.2666V31.2227C60.6568 30.7393 60.4361 30.2998 60.2159 29.8604C60.1275 29.7285 59.9951 29.6406 59.8628 29.5967C59.8628 29.5742 59.8628 29.5635 59.8575 29.5586C59.8516 29.5527 59.8409 29.5527 59.8189 29.5527L59.6426 29.2451C59.5308 29.2783 59.4156 29.3154 59.2984 29.3516C58.9551 29.4609 58.5933 29.5752 58.2315 29.6406C57.438 29.8604 56.6441 29.9482 55.8506 29.9482C54.5279 29.9482 53.2491 29.7285 52.0147 29.2451L51.8379 29.5967C51.8379 29.6191 51.8379 29.6299 51.8326 29.6348C51.8272 29.6406 51.8159 29.6406 51.794 29.6406C51.6617 29.6846 51.5293 29.7725 51.4414 29.9043C51.2207 30.3438 51.0005 30.7832 50.8682 31.2666L50.7798 31.5303C50.7578 31.6182 50.7246 31.6953 50.6914 31.7715C50.6587 31.8486 50.6255 31.9258 50.6035 32.0137C50.5596 32.0576 50.5152 32.1016 50.5152 32.1455C50.4712 32.1455 50.4712 32.1895 50.4712 32.1895C50.295 32.4971 49.9864 32.7168 49.6333 32.7168C49.5454 32.7168 49.4131 32.6729 49.3247 32.6289C48.9283 32.4092 48.7515 31.8818 48.9722 31.4424C49.0161 31.4424 49.0161 31.3984 49.0161 31.3984C49.0381 31.377 49.0489 31.3545 49.0601 31.333C49.0708 31.3105 49.0821 31.2891 49.1045 31.2666C49.1626 31.1895 49.2119 31.1123 49.2569 31.043C49.314 30.9531 49.3633 30.877 49.4131 30.8271C49.501 30.7393 49.5454 30.6953 49.5894 30.6074V30.5635C49.854 30.168 50.1187 29.7285 50.295 29.2891C50.3389 29.1572 50.3389 28.9814 50.251 28.8496C50.251 28.8496 50.2066 28.8496 50.2066 28.8057L50.4273 28.498C49.9864 28.2783 49.6333 28.0146 49.2368 27.707C47.5171 26.3887 46.2823 24.5869 45.6211 22.5654L45.2242 22.6094C45.2242 22.6094 45.2242 22.5654 45.1802 22.5654C45.0918 22.4775 44.9595 22.4336 44.8272 22.4336H44.7832C44.2544 22.5215 43.8135 22.6533 43.3282 22.8291H43.2842C43.1958 22.8291 43.1079 22.873 43.0196 22.917C42.9702 22.9336 42.9146 22.9561 42.8555 22.9795C42.7559 23.0205 42.6451 23.0654 42.5347 23.0928C42.521 23.0928 42.4995 23.0889 42.4761 23.084C42.4224 23.0742 42.3584 23.0625 42.3584 23.0928C42.3584 23.1143 42.3584 23.126 42.3531 23.1309C42.3472 23.1367 42.3365 23.1367 42.314 23.1367C42.2261 23.1807 42.1817 23.1807 42.0938 23.1807C41.6968 23.2246 41.2998 22.9609 41.2119 22.5654C41.1236 22.082 41.4322 21.6426 41.9175 21.5547C41.9429 21.5293 41.9536 21.5186 41.9663 21.5137C41.9761 21.5107 41.9868 21.5107 42.0054 21.5107C42.0572 21.5107 42.0938 21.4961 42.1241 21.4834C42.1455 21.4746 42.1636 21.4668 42.1817 21.4668C42.2701 21.4668 42.3584 21.4561 42.4468 21.4443C42.5347 21.4336 42.6231 21.4229 42.711 21.4229C42.7993 21.3789 42.8872 21.3789 42.9756 21.3789C43.5044 21.335 43.9898 21.2471 44.4746 21.1152C44.607 21.0273 44.7393 20.9395 44.7832 20.8076C44.7832 20.8076 44.8272 20.8076 44.8272 20.7637L45.1802 20.6758C44.7832 18.1709 45.3565 15.6221 46.7232 13.4688C46.7451 13.4248 46.7671 13.3926 46.7891 13.3594C46.8111 13.3262 46.8335 13.293 46.8555 13.249L46.6001 12.9941C46.6201 12.8682 46.5391 12.7139 46.459 12.6338C46.106 12.2822 45.6651 12.0186 45.2242 11.7549L44.9595 11.623C44.7832 11.5352 44.607 11.4473 44.4746 11.3594C44.4307 11.3594 44.3423 11.2715 44.3423 11.2715C44.3423 11.2715 44.3423 11.2275 44.2984 11.2275C43.9453 10.9199 43.8575 10.3926 44.1221 9.99707C44.2544 9.77734 44.4746 9.68945 44.7393 9.68945C44.9595 9.68945 45.1802 9.77734 45.3565 9.90918L45.4004 9.95312C45.4224 9.97461 45.4444 9.98633 45.4663 9.99707C45.4888 10.0078 45.5108 10.0186 45.5327 10.041C45.5987 10.1074 45.6543 10.1729 45.709 10.2383C45.7647 10.3047 45.8194 10.3711 45.8858 10.4365C45.899 10.4502 45.9165 10.4629 45.9356 10.4775C45.9795 10.5107 46.0313 10.5508 46.062 10.6123C46.3706 10.9639 46.7676 11.3154 47.1641 11.623C47.2525 11.667 47.3409 11.7109 47.4287 11.7109C47.4805 11.7109 47.5171 11.6963 47.5474 11.6836C47.5689 11.6748 47.5869 11.667 47.605 11.667H47.6494L47.9141 11.8428C49.3692 10.3047 51.2652 9.20605 53.3374 8.7666L53.5616 8.72949C54.0049 8.6543 54.4209 8.58496 54.8365 8.54688L54.8804 8.19531V8.10742C55.0127 8.01953 55.0567 7.8877 55.1011 7.75586C55.1011 7.22852 55.1011 6.74512 55.0127 6.26172V6.21777C55.0127 6.12988 55.0127 6.04199 54.9688 5.9541C54.9248 5.77832 54.8804 5.60254 54.8804 5.42676V5.20703C54.8804 4.9873 54.9688 4.76758 55.1451 4.5918C55.3658 4.37207 55.6299 4.24023 55.8946 4.28418C56.3355 4.32812 56.6885 4.76758 56.6441 5.20703V5.4707C56.6221 5.55859 56.6114 5.64648 56.6001 5.73438C56.5889 5.82227 56.5782 5.91016 56.5562 5.99805C56.5562 6.04199 56.545 6.08594 56.5342 6.12988C56.523 6.17383 56.5117 6.21777 56.5117 6.26172V6.30566C56.4239 6.83301 56.4239 7.31641 56.4239 7.7998C56.4678 7.93164 56.5117 8.06348 56.6441 8.15137L56.6885 8.45898C58.7608 8.67871 60.7891 9.46973 62.4204 10.7441C62.5967 10.9199 62.7842 11.0957 62.9717 11.2715C63.1587 11.4473 63.3462 11.623 63.5225 11.7988L63.8755 11.5791H63.9195C63.9634 11.623 64.0518 11.623 64.0957 11.623C64.1841 11.623 64.272 11.5791 64.3604 11.5352C64.7574 11.2715 65.1543 10.9199 65.4629 10.5684C65.4761 10.5547 65.4937 10.542 65.5127 10.5273C65.5567 10.4941 65.6084 10.4541 65.6392 10.3926C65.7271 10.2607 65.8594 10.1289 65.9917 9.99707C66.0362 9.99707 66.0801 9.95312 66.1241 9.90918L66.168 9.86523C66.3448 9.7334 66.565 9.64551 66.7857 9.64551C67.0059 9.64551 67.2705 9.77734 67.4029 9.95312C67.7115 10.3486 67.6231 10.876 67.2266 11.1836C67.2266 11.2002 67.2329 11.2109 67.2383 11.2197C67.2471 11.2344 67.2539 11.2441 67.2266 11.2715C67.2046 11.293 67.1826 11.3047 67.1607 11.3154C67.1382 11.3262 67.1162 11.3369 67.0943 11.3594C67.0064 11.4033 66.9297 11.4473 66.8531 11.4902C66.7754 11.5352 66.6978 11.5791 66.6089 11.623L66.3448 11.7549C65.9038 12.0186 65.5069 12.2822 65.1099 12.6338C65.022 12.7217 64.9776 12.8975 64.9776 13.0293V13.0732L64.7129 13.3369C65.4185 14.4355 65.9478 15.666 66.2564 16.9404C66.521 18.2148 66.6089 19.5332 66.4326 20.8076L66.7857 20.8955C66.8296 21.0273 66.9619 21.1592 67.0943 21.2031C67.5791 21.335 68.1084 21.4229 68.5933 21.4668H68.6372C68.7256 21.5107 68.814 21.5107 68.9019 21.5107C69.0782 21.5107 69.2549 21.5107 69.4312 21.5547C69.5191 21.5547 69.6075 21.5547 69.6075 21.5986ZM46.6001 12.9941L46.5913 12.9854V13.0293C46.5952 13.0176 46.5982 13.0059 46.6001 12.9941Z" fill="#CFD5DC"/>
<path d="M104.447 56.4454C104.842 56.4734 105.266 56.4173 105.633 56.2773C105.859 56.1653 106.001 55.9132 105.972 55.6611C105.944 55.381 105.775 55.1289 105.52 55.0448C105.097 54.7927 104.616 54.5687 104.136 54.4286C103.656 54.2606 103.232 54.0645 102.836 53.8684C102.469 53.7003 102.158 53.4763 101.848 53.1962C101.565 52.9161 101.367 52.6079 101.226 52.2438C101.057 51.8237 101 51.3755 101 50.9273C100.972 50.003 101.396 49.1067 102.13 48.5464C102.893 47.9582 103.91 47.6781 105.21 47.6781C105.831 47.6781 106.481 47.7341 107.102 47.8742C107.583 47.9582 108.063 48.0703 108.543 48.2383L108.006 50.6192C107.611 50.4792 107.244 50.3951 106.848 50.2831C106.396 50.171 105.916 50.143 105.464 50.143C104.503 50.143 104.023 50.3951 104.023 50.9273C104.023 51.0394 104.051 51.1514 104.079 51.2634C104.136 51.3755 104.221 51.4595 104.334 51.5435C104.447 51.6276 104.616 51.7116 104.814 51.8237C105.012 51.9357 105.294 52.0477 105.633 52.1598C106.198 52.3559 106.763 52.6079 107.272 52.888C107.667 53.0841 108.006 53.3362 108.289 53.6723C108.543 53.9244 108.713 54.2325 108.826 54.5967C108.939 54.9888 108.995 55.381 108.995 55.7731C109.052 56.7255 108.6 57.6498 107.78 58.182C106.989 58.7142 105.859 58.9943 104.39 58.9943C103.571 59.0223 102.78 58.9383 101.989 58.7422C101.537 58.6302 101.113 58.4901 100.689 58.3501L101.198 55.8851C101.706 56.0812 102.243 56.2493 102.78 56.3613C103.345 56.3893 103.882 56.4454 104.447 56.4454ZM88.88 53.3642C88.8518 52.5239 89.0213 51.6836 89.3038 50.8993C89.5581 50.2271 89.9536 49.6388 90.4621 49.1067C90.9424 48.6305 91.4792 48.2663 92.1007 48.0423C92.7223 47.7902 93.372 47.6781 94.0218 47.6781C95.5474 47.6781 96.7623 48.1543 97.6381 49.0786C98.5139 50.003 98.9659 51.3755 98.9659 53.1681C98.9659 53.3362 98.9659 53.5323 98.9376 53.7564C98.9376 53.9804 98.9094 54.1485 98.9094 54.3166H92.016C92.0725 54.9048 92.3832 55.465 92.8918 55.8011C93.5133 56.1933 94.2478 56.3893 94.9824 56.3613C95.5192 56.3613 96.0842 56.3053 96.621 56.2213C97.073 56.1372 97.5251 55.9972 97.9488 55.8011L98.3726 58.266C98.1748 58.3781 97.9488 58.4341 97.7228 58.5181C97.412 58.6021 97.1013 58.6862 96.7905 58.7142C96.4515 58.7702 96.1125 58.8262 95.7169 58.8823C95.3497 58.9103 94.9541 58.9383 94.5586 58.9383C93.6828 58.9663 92.8353 58.8262 92.016 58.5181C91.3379 58.266 90.7446 57.8739 90.2361 57.3697C89.7558 56.8655 89.4168 56.2493 89.1908 55.605C88.993 54.8488 88.88 54.0925 88.88 53.3642ZM96.0277 52.2158C96.0277 51.9637 95.9712 51.7116 95.8865 51.4595C95.8299 51.2074 95.6887 51.0114 95.5474 50.8153C95.3779 50.6192 95.1802 50.4511 94.9541 50.3391C94.6716 50.1991 94.3891 50.143 94.0783 50.143C93.7676 50.143 93.4851 50.1991 93.2025 50.3391C92.9765 50.4511 92.7505 50.5912 92.581 50.7873C92.4115 50.9833 92.2702 51.2074 92.1855 51.4595C92.1007 51.7116 92.0442 51.9637 92.016 52.2158H96.0277ZM80.6023 45.2692L83.6534 44.7931V47.9302H87.3262V50.4511H83.6534V54.2045C83.6252 54.7367 83.7382 55.2689 83.9925 55.7171C84.2185 56.0812 84.6705 56.2773 85.3768 56.2773C85.7158 56.2773 86.0548 56.2493 86.3656 56.1933C86.7046 56.1372 87.0154 56.0532 87.3262 55.9412L87.7499 58.294C87.3544 58.4621 86.9306 58.5741 86.5069 58.6862C85.9701 58.7982 85.4051 58.8542 84.84 58.8542C84.1337 58.8823 83.4274 58.7702 82.7776 58.5181C82.2691 58.322 81.8171 57.9859 81.4781 57.5938C81.139 57.1736 80.913 56.6694 80.7718 56.1372C80.6305 55.521 80.574 54.8768 80.6023 54.2606V45.2692ZM68.2562 53.3642C68.228 52.5239 68.3975 51.6836 68.68 50.8993C68.9343 50.2271 69.3298 49.6388 69.8383 49.1067C70.3186 48.6305 70.8554 48.2663 71.4769 48.0423C72.0985 47.7902 72.7483 47.6781 73.3981 47.6781C74.9237 47.6781 76.1385 48.1543 77.0143 49.0786C77.8901 50.003 78.3421 51.3755 78.3421 53.1681C78.3421 53.3362 78.3421 53.5323 78.3139 53.7564C78.2856 53.9804 78.2856 54.1485 78.2856 54.3166H71.3639C71.4204 54.9048 71.7312 55.465 72.2397 55.8011C72.8613 56.1933 73.5958 56.3893 74.3304 56.3613C74.8671 56.3613 75.4322 56.3053 75.969 56.2213C76.421 56.1372 76.873 55.9972 77.3251 55.8011L77.7488 58.266C77.5511 58.3781 77.3251 58.4341 77.099 58.5181C76.7883 58.6021 76.4775 58.6862 76.1667 58.7142C75.8277 58.7702 75.4887 58.8262 75.0932 58.8823C74.7259 58.9103 74.3304 58.9383 73.9348 58.9383C73.059 58.9663 72.2115 58.8262 71.3922 58.5181C70.7141 58.266 70.1209 57.8739 69.6123 57.3697C69.132 56.8655 68.793 56.2493 68.567 55.605C68.341 54.8488 68.228 54.0925 68.2562 53.3642ZM75.4039 52.2158C75.4039 51.9637 75.3474 51.7116 75.2627 51.4595C75.2062 51.2074 75.0649 51.0114 74.9236 50.8153C74.7541 50.6192 74.5564 50.4511 74.3304 50.3391C74.0478 50.1991 73.7653 50.143 73.4546 50.143C73.1438 50.143 72.8613 50.1991 72.5788 50.3391C72.3527 50.4511 72.155 50.5912 71.9855 50.7873C71.816 50.9833 71.6747 51.2074 71.59 51.4595C71.5052 51.7116 71.4487 51.9637 71.4204 52.2158H75.4039ZM56.673 48.2944C57.3228 48.1263 58.0009 47.9862 58.6789 47.8742C59.5264 47.7341 60.4023 47.6781 61.2498 47.6781C62.0126 47.6501 62.7754 47.7902 63.5099 48.0423C64.075 48.2383 64.5835 48.5745 64.9508 49.0226C65.3181 49.4708 65.5723 50.003 65.7136 50.5632C65.8831 51.2074 65.9396 51.8797 65.9396 52.5519V58.5741H62.9167V52.9441C62.9167 51.9637 62.7754 51.2915 62.5211 50.8713C62.2669 50.4792 61.7866 50.2551 61.0803 50.2551C60.8543 50.2551 60.6283 50.2551 60.374 50.2831C60.1197 50.2831 59.922 50.3111 59.7242 50.3391V58.5741H56.673V48.2944ZM54.5259 50.6192C54.2434 50.5632 53.9326 50.4792 53.5653 50.4231C53.1698 50.3391 52.7743 50.3111 52.3788 50.3111C52.1527 50.3111 51.9267 50.3391 51.6725 50.3671C51.4747 50.3951 51.2769 50.4231 51.0792 50.4792V58.6302H48.028V48.4904C48.6495 48.2663 49.2993 48.0983 49.9491 47.9582C50.7684 47.7622 51.616 47.6781 52.4353 47.7061C52.633 47.7061 52.8308 47.7341 53.0285 47.7341C53.2546 47.7341 53.4806 47.7622 53.7348 47.8182C53.9608 47.8462 54.1869 47.8742 54.4411 47.9302C54.6389 47.9582 54.8367 48.0143 55.0344 48.0983L54.5259 50.6192ZM35.569 53.3642C35.5407 52.5239 35.7102 51.6836 35.9927 50.8993C36.247 50.2271 36.6425 49.6388 37.1511 49.1067C37.6313 48.6305 38.1681 48.2663 38.7897 48.0423C39.4112 47.7902 40.061 47.6781 40.7108 47.6781C42.2364 47.6781 43.4512 48.1543 44.327 49.0786C45.2028 50.003 45.6548 51.3755 45.6548 53.1401C45.6548 53.3082 45.6548 53.5043 45.6266 53.7284C45.5983 53.9524 45.5983 54.1205 45.5983 54.2886H38.6767C38.7332 54.8768 39.0439 55.437 39.5525 55.7731C40.174 56.1652 40.9085 56.3613 41.6431 56.3333C42.1799 56.3333 42.7449 56.2773 43.2817 56.1933C43.7337 56.1092 44.1857 55.9692 44.6095 55.8011L45.0333 58.266C44.8355 58.3781 44.6095 58.4341 44.3835 58.5181C44.0727 58.6021 43.762 58.6862 43.4512 58.7142C43.1122 58.7702 42.7732 58.8262 42.3776 58.8823C42.0104 58.9103 41.6148 58.9383 41.2193 58.9383C40.3435 58.9663 39.496 58.8262 38.6767 58.5181C37.9986 58.266 37.4053 57.8739 36.8968 57.3697C36.4165 56.8655 36.0775 56.2493 35.8515 55.605C35.682 54.8488 35.569 54.1205 35.569 53.3642ZM42.7449 52.2158C42.7449 51.9637 42.6884 51.7116 42.6036 51.4595C42.5471 51.2074 42.4059 51.0114 42.2646 50.8153C42.0951 50.6192 41.8974 50.4511 41.6713 50.3391C41.3888 50.1991 41.1063 50.143 40.7955 50.143C40.4848 50.143 40.2022 50.1991 39.9197 50.3391C39.6937 50.4511 39.4677 50.5912 39.2982 50.7873C39.1287 50.9833 38.9874 51.2074 38.9027 51.4595C38.8179 51.7116 38.7614 51.9637 38.7332 52.2158H42.7449ZM30.6249 53.1962C30.6249 51.2354 29.8904 50.2831 28.4495 50.2831C28.1387 50.2831 27.828 50.3111 27.5172 50.3951C27.2629 50.4511 27.0087 50.5632 26.7827 50.7032V56.1933C26.9239 56.2213 27.1217 56.2493 27.3477 56.2773C27.5737 56.3053 27.828 56.3053 28.1105 56.3053C28.845 56.3613 29.5513 56.0532 30.0034 55.465C30.4271 54.7927 30.6532 54.0085 30.6249 53.1962ZM33.7326 53.3082C33.7326 54.0925 33.6196 54.8768 33.3371 55.6331C33.1111 56.3053 32.7438 56.8935 32.2635 57.3977C31.755 57.9019 31.1617 58.294 30.5119 58.5461C29.7491 58.8262 28.9581 58.9383 28.1388 58.9383C27.7715 58.9383 27.376 58.9103 26.9804 58.8823C26.5849 58.8542 26.1894 58.7982 25.7939 58.7702C25.4266 58.7142 25.0593 58.6582 24.692 58.5741C24.3248 58.5181 24.014 58.4341 23.7597 58.322V43.3365L26.8109 42.8604V48.1823C27.1499 48.0423 27.5172 47.9302 27.8845 47.8462C28.28 47.7622 28.6755 47.7341 29.0711 47.7341C29.7773 47.7341 30.4554 47.8462 31.1052 48.1543C31.6702 48.4064 32.1788 48.7985 32.5743 49.2747C32.9981 49.8069 33.3088 50.3951 33.4783 51.0394C33.6478 51.7396 33.7326 52.5239 33.7326 53.3082ZM20.8498 58.238C20.2 58.4061 19.522 58.5461 18.8439 58.6302C17.9964 58.7702 17.1206 58.8262 16.273 58.8262C15.482 58.8542 14.7192 58.7142 13.9846 58.4621C13.4196 58.238 12.9393 57.9019 12.5438 57.4537C12.1765 56.9776 11.9222 56.4454 11.781 55.8571C11.6115 55.2129 11.555 54.5126 11.555 53.8404V47.9302H14.6062V53.5043C14.6062 54.4846 14.7474 55.1849 15.0017 55.605C15.2559 56.0252 15.7362 56.2493 16.4425 56.2493C16.6685 56.2493 16.8946 56.2493 17.1488 56.2213C17.4031 56.1933 17.6008 56.1933 17.7986 56.1372V47.9302H20.8498V58.238ZM3.05119 51.7956C3.36196 51.4595 3.64448 51.1234 3.9835 50.7873C4.29427 50.4231 4.60503 50.087 4.9158 49.7509C5.22657 49.3868 5.50909 49.0786 5.76336 48.7705C6.01762 48.4624 6.27189 48.1823 6.46965 47.9582H10.0859C9.35133 48.7705 8.64504 49.5828 7.96699 50.3391C7.2607 51.0954 6.52615 51.8797 5.70685 52.664C6.15888 53.0841 6.58266 53.5043 6.97818 53.9804C7.40196 54.4846 7.82574 54.9888 8.24951 55.549C8.64504 56.0812 9.04056 56.6414 9.37958 57.1736C9.7186 57.7058 10.0011 58.21 10.2271 58.6582H6.72392C6.4979 58.294 6.24364 57.9299 5.96112 57.5097C5.6786 57.0896 5.36783 56.6694 5.08532 56.2213C4.77455 55.8011 4.43552 55.381 4.06825 54.9888C3.75748 54.6247 3.41846 54.2886 3.05119 54.0085V58.6862H0V43.3365L3.05119 42.8604V51.7956Z" fill="#CFD5DC"/>
</svg>
