<svg width="98" height="24" viewBox="0 0 98 24" fill="none" xmlns="http://www.w3.org/2000/svg">
<path fill-rule="evenodd" clip-rule="evenodd" d="M58.1411 0L78.6765 22.2042C78.6765 22.2042 79.3761 22.7078 79.9111 22.1202C80.446 21.5326 80.0345 20.9449 80.0345 20.9449L58.1411 0Z" fill="#CFD5DC"/>
<path fill-rule="evenodd" clip-rule="evenodd" d="M64.6431 2.09863L80.2812 19.3079C80.2812 19.3079 80.9808 19.8116 81.5158 19.224C82.0508 18.6363 81.6393 18.0487 81.6393 18.0487L64.6431 2.09863Z" fill="#CFD5DC"/>
<path fill-rule="evenodd" clip-rule="evenodd" d="M60.0752 6.58984L75.7133 23.7991C75.7133 23.7991 76.4129 24.3028 76.9479 23.7152C77.4829 23.1275 77.0714 22.5399 77.0714 22.5399L60.0752 6.58984Z" fill="#CFD5DC"/>
<path fill-rule="evenodd" clip-rule="evenodd" d="M70.1396 3.90332L81.0651 15.9264C81.0651 15.9264 81.5539 16.2783 81.9276 15.8678C82.3014 15.4572 82.0139 15.0467 82.0139 15.0467L70.1396 3.90332Z" fill="#CFD5DC"/>
<path fill-rule="evenodd" clip-rule="evenodd" d="M61.5801 11.7949L72.5055 23.818C72.5055 23.818 72.9943 24.1699 73.368 23.7594C73.7418 23.3488 73.4543 22.9383 73.4543 22.9383L61.5801 11.7949Z" fill="#CFD5DC"/>
<path fill-rule="evenodd" clip-rule="evenodd" d="M75.7544 6.50586L80.7062 11.9717C80.7062 11.9717 80.9479 12.1366 81.1328 11.9442C81.3177 11.7518 81.1755 11.5595 81.1755 11.5595L75.7544 6.50586Z" fill="#CFD5DC"/>
<path fill-rule="evenodd" clip-rule="evenodd" d="M64.314 17.335L69.2657 22.8008C69.2657 22.8008 69.5075 22.9657 69.6924 22.7733C69.8773 22.5809 69.7351 22.3886 69.7351 22.3886L64.314 17.335Z" fill="#CFD5DC"/>
<path fill-rule="evenodd" clip-rule="evenodd" d="M85.3999 8.99121V23.7299H88.6666V18.9756H91.1166L94.2666 23.7299H97.9999L94.4999 18.6191C94.4999 18.6191 97.6079 17.3651 97.6079 13.9639C97.6079 9.16205 93.3332 8.99169 93.3332 8.99169L85.3999 8.99121ZM88.6666 11.8442V16.1231H92.8666C92.8666 16.1231 94.4719 16.1229 94.4719 13.9835C94.4719 11.7628 92.5166 11.8442 92.5166 11.8442H88.6666Z" fill="#CFD5DC"/>
<path fill-rule="evenodd" clip-rule="evenodd" d="M49.2334 8.99121V23.7294H60.2001V20.8769H52.5001V17.7866H59.1501V14.934H52.5001V11.8415H60.2001V8.99121H49.2334Z" fill="#CFD5DC"/>
<path fill-rule="evenodd" clip-rule="evenodd" d="M33.3667 8.99121V11.8438H37.6834V23.7294H40.95V11.8438H45.2667V8.99121H33.3667Z" fill="#CFD5DC"/>
<path fill-rule="evenodd" clip-rule="evenodd" d="M18.4331 8.99121V23.7294H29.3998V20.8769H21.6998V17.7866H28.3498V14.934H21.6998V11.8415H29.3998V8.99121H18.4331Z" fill="#CFD5DC"/>
<path fill-rule="evenodd" clip-rule="evenodd" d="M0 8.99219V23.7311L3.26448 23.7309V14.4596L7.23115 20.4024L11.2 14.4596V23.7311H14.4667V8.99219H11.2L7.23115 15.0539L3.26448 8.99219H0Z" fill="#CFD5DC"/>
</svg>
