<svg width="135" height="38" viewBox="0 0 135 38" fill="none" xmlns="http://www.w3.org/2000/svg">
<path d="M9.05318 36.7778L8.06998 36.4525C8.06998 36.4525 8.19526 31.4579 6.40044 31.108C5.21841 29.7411 6.58292 -27.6685 10.8807 30.9139C10.8807 30.9139 9.40997 31.6547 9.12944 32.9123C8.84892 34.1698 9.05318 36.7778 9.05318 36.7778Z" fill="#CFD5DC"/>
<path d="M9.58168 31.9586C9.58168 31.9586 18.1228 26.3106 16.1182 14.5854C14.1954 6.06688 9.64432 3.28115 9.15681 2.18764C8.73022 1.5238 8.36554 0.821888 8.06738 0.0908203L8.44323 23.8365C8.44323 23.8365 7.68881 31.0838 9.58168 31.9586Z" fill="#CFD5DC"/>
<path d="M7.56881 32.2724C7.56881 32.2724 -0.441178 26.7911 0.0191035 17.108C0.479385 7.42497 6.13894 2.67091 7.23926 1.79883C7.95283 1.04431 7.98279 0.751792 8.03726 0C8.53567 1.07711 8.44307 16.0829 8.50571 17.8352C8.71542 24.6615 8.12986 30.9848 7.56881 32.2724Z" fill="#CFD5DC"/>
<path d="M102.026 14.5244C102.486 14.5244 104.229 14.6064 105.041 14.6064C106.553 14.6064 107.607 14.5244 110.442 14.5244C112.819 14.5244 114.819 15.1696 116.248 16.3998C117.978 17.8979 118.896 19.9865 118.896 22.5317C118.896 26.1457 117.262 28.2316 115.6 29.4099C113.952 30.6428 111.82 31.3235 108.767 31.3235C107.146 31.3235 104.365 31.2716 102.042 31.2443H102.01C101.903 31.031 102.208 30.1945 102.399 30.1726C102.771 30.1598 103.139 30.0868 103.489 29.9566C103.979 29.7543 104.096 29.5056 104.15 28.6198C104.229 26.9604 104.205 24.9812 104.205 22.7312C104.205 21.1238 104.229 17.9936 104.178 16.9903C104.096 16.1702 103.745 15.946 103.042 15.7874C102.542 15.6803 102.038 15.5991 101.53 15.5441C101.476 15.4102 101.893 14.6857 102.026 14.5244ZM107.416 29.4099C107.985 29.8664 109.118 30.0523 110.118 30.0523C111.414 30.0523 112.683 29.8118 113.931 28.6854C115.178 27.5591 116.066 25.7685 116.066 22.9445C116.066 20.2408 115.039 18.0455 112.931 16.7607C111.744 16.0116 110.208 15.7163 108.448 15.7163C108.001 15.6898 107.552 15.7444 107.124 15.8776C107.006 15.9735 106.921 16.1047 106.882 16.2522C106.828 16.7333 106.828 20.4021 106.828 22.57C106.828 24.7925 106.828 27.8981 106.882 28.2726C106.904 28.6089 107.067 29.1693 107.416 29.4099Z" fill="#CFD5DC"/>
<path d="M121.17 14.5244C121.412 14.5244 122.131 14.6064 123.967 14.6064C125.696 14.6064 127.099 14.5518 128.774 14.5518C130.855 14.5518 133.731 15.309 133.731 18.4091C133.731 19.9346 132.641 21.1648 131.247 21.7553C131.165 21.7799 131.165 21.8346 131.247 21.8619C133.246 22.3704 135 23.6006 135 25.9626C135 28.2644 133.57 29.7106 131.489 30.61C130.22 31.1732 128.654 31.3591 127.061 31.3591C125.843 31.3591 122.589 31.2251 120.777 31.2525C120.589 31.1732 120.952 30.3148 121.112 30.1808C121.527 30.1686 121.939 30.1043 122.338 29.9895C122.986 29.8282 123.062 29.6204 123.155 28.6554C123.21 27.8352 123.21 24.8554 123.21 22.7394C123.21 19.8471 123.237 17.8924 123.21 16.9301C123.182 16.1811 122.913 15.9405 122.392 15.8066C121.989 15.7245 121.303 15.6453 120.772 15.5633C120.619 15.4348 121.033 14.6338 121.17 14.5244ZM132.178 26.5531C132.178 24.1966 130.449 22.857 127.289 22.857C126.83 22.8397 126.37 22.8489 125.911 22.8843C125.83 22.9117 125.751 22.9636 125.751 23.0183C125.751 24.705 125.723 27.4088 125.805 28.4859C125.857 28.9397 126.181 29.5794 126.587 29.7708C127.02 30.0113 127.992 30.0633 128.668 30.0633C130.53 30.0523 132.178 29.008 132.178 26.5476V26.5531ZM126.047 15.8366C125.939 15.864 125.805 16.1319 125.805 16.2658C125.778 17.2309 125.751 19.746 125.751 21.4874C125.757 21.5204 125.774 21.5506 125.797 21.5744C125.821 21.5982 125.851 21.6145 125.884 21.6213C126.235 21.6459 127.099 21.6733 127.829 21.6733C128.855 21.6733 129.449 21.5393 129.773 21.378C130.639 20.9515 131.042 20.0111 131.042 18.9969C131.042 16.6677 129.422 15.7847 127.02 15.7847C126.695 15.7806 126.37 15.798 126.047 15.8366Z" fill="#CFD5DC"/>
<path d="M24.5518 31.3263C24.4813 31.1533 24.4533 30.9657 24.4701 30.7796C24.4652 30.6542 24.4934 30.5297 24.5518 30.4187C24.9016 30.3695 25.2481 30.2993 25.5895 30.2082C26.0661 30.0879 26.2459 29.8282 26.2758 29.2158C26.3521 27.7724 26.3575 25.0659 26.3276 23.1605V23.1058C26.3457 22.9804 26.3322 22.8524 26.2884 22.7335C26.2447 22.6146 26.172 22.5086 26.077 22.4251C25.6326 22.1457 25.15 21.933 24.6444 21.7936C24.4183 21.728 24.2931 21.6077 24.2985 21.4683C24.304 21.3289 24.4483 21.1621 24.7425 21.1047C25.9872 20.9287 27.2085 20.6142 28.3838 20.167C28.4665 20.2774 28.5044 20.4151 28.4901 20.5525C28.4901 20.6372 28.4901 20.7247 28.471 20.8258C28.4465 21.0992 28.422 21.3999 28.422 21.7034C28.4258 21.7409 28.4403 21.7765 28.4638 21.8059C28.4872 21.8354 28.5186 21.8575 28.5541 21.8696C28.5897 21.8817 28.628 21.8833 28.6644 21.8742C28.7009 21.865 28.7339 21.8456 28.7597 21.8182C30.2931 20.6126 31.6657 20.1779 32.3711 20.1779C33.5314 20.1779 34.4356 20.7247 35.1328 21.8756C35.1487 21.9037 35.1716 21.9271 35.1994 21.9434C35.2271 21.9597 35.2586 21.9684 35.2908 21.9686C35.3192 21.9681 35.347 21.961 35.3721 21.9477C35.3972 21.9344 35.4188 21.9153 35.4351 21.892C36.8459 20.8176 38.2431 20.1779 39.1773 20.1779C41.3888 20.1779 42.7179 21.8373 42.7179 24.6176C42.7179 25.4159 42.7179 26.4274 42.7016 27.3705C42.7016 28.1907 42.7016 28.978 42.7016 29.5138C42.72 29.6377 42.7697 29.7547 42.846 29.8538C42.9223 29.9528 43.0226 30.0306 43.1374 30.0797C43.5804 30.2513 44.0436 30.3652 44.5155 30.4187H44.54C44.562 30.727 44.5145 31.0362 44.4011 31.3236C44.254 31.3236 44.0525 31.3236 43.7992 31.299C43.3389 31.2744 42.7098 31.2443 41.9771 31.2443C40.5091 31.2443 39.7411 31.2716 39.0084 31.3208C38.9487 31.0231 38.9487 30.7164 39.0084 30.4187C39.3111 30.3667 39.6103 30.2965 39.9045 30.2082C40.373 30.0551 40.5064 29.8419 40.5336 29.2186C40.5336 28.7757 40.629 24.88 40.4792 23.9533C40.4106 23.3565 40.1176 22.8085 39.66 22.4213C39.2024 22.0341 38.6147 21.8369 38.0171 21.8701C37.13 21.9197 36.2802 22.2445 35.5849 22.7996C35.5302 22.8637 35.4994 22.9449 35.4978 23.0293V23.0457C35.5976 23.6948 35.6332 24.3523 35.604 25.0085C35.604 25.5115 35.604 26.0446 35.604 26.575C35.604 27.6494 35.604 28.6636 35.604 29.4291C35.5936 29.6013 35.6451 29.7715 35.749 29.9089C35.8529 30.0463 36.0025 30.1418 36.1705 30.1781L36.5273 30.2601C36.7397 30.3121 36.9603 30.364 37.2844 30.416C37.3365 30.638 37.3365 30.8692 37.2844 31.0912C37.2714 31.1743 37.2387 31.253 37.1891 31.3208C36.372 31.2935 35.5332 31.2689 34.3239 31.2689C33.959 31.2689 33.3598 31.2689 32.8314 31.299C32.4038 31.299 31.998 31.3208 31.7665 31.3208C31.7057 31.1729 31.6787 31.0132 31.6875 30.8534C31.6743 30.7034 31.7035 30.5527 31.772 30.4187L32.0961 30.3586C32.3684 30.3093 32.6244 30.2656 32.8614 30.2082C33.2617 30.0852 33.4061 29.861 33.4388 29.3525C33.5178 28.1606 33.5804 24.727 33.4115 23.8685C33.1392 22.5016 32.3412 21.7909 31.0829 21.7909C30.1984 21.8461 29.3513 22.1692 28.6535 22.7176C28.581 22.7886 28.5238 22.8737 28.4854 22.9678C28.447 23.0618 28.4282 23.1628 28.4301 23.2644C28.4301 23.6717 28.4301 24.1583 28.4301 24.6805C28.4301 26.4055 28.4301 28.5515 28.4601 29.4783C28.4612 29.6627 28.5289 29.8405 28.6505 29.9788C28.7722 30.117 28.9397 30.2063 29.1219 30.2301C29.239 30.2629 29.4406 30.2957 29.6666 30.334L30.1024 30.4105C30.1506 30.7137 30.1253 31.024 30.0289 31.3154C29.7946 31.3154 29.506 31.3154 29.1737 31.2853C28.6671 31.2634 28.038 31.2361 27.3217 31.2361C26.4774 31.2361 25.8891 31.2634 25.4152 31.2853C25.0992 31.3017 24.8242 31.3154 24.5491 31.3154L24.5518 31.3263Z" fill="#CFD5DC"/>
<path d="M51.7787 31.5667C47.7206 31.5667 46.2744 28.5841 46.2744 25.7902C46.2744 23.841 47.0697 22.3156 48.6385 21.2576C49.7366 20.5718 50.9978 20.1942 52.2908 20.1641C55.3874 20.1641 57.5499 22.3976 57.5499 25.5934C57.5499 27.7804 56.6866 29.4808 55.0497 30.5525C54.0591 31.1516 52.9365 31.4962 51.7814 31.5558L51.7787 31.5667ZM51.3457 21.3232C50.8881 21.3129 50.4377 21.4394 50.052 21.6868C49.1151 22.2581 48.6385 23.3981 48.6385 25.0767C48.6385 28.2178 50.2072 30.4103 52.4514 30.4103C53.0557 30.4307 53.6456 30.2229 54.1046 29.828C54.7937 29.2621 55.1587 28.1085 55.1587 26.4955C55.1587 23.4009 53.6253 21.3232 51.3457 21.3232Z" fill="#CFD5DC"/>
<path d="M93.7956 31.5667C89.7375 31.5667 88.2913 28.5841 88.2913 25.7902C88.2597 24.8934 88.4614 24.0039 88.8764 23.2091C89.2914 22.4143 89.9054 21.7418 90.6581 21.2576C91.7552 20.5718 93.0155 20.1941 94.3076 20.1641C97.4043 20.1641 99.5696 22.3976 99.5696 25.5934C99.5696 27.7804 98.7035 29.4808 97.0693 30.5525C96.0785 31.1512 94.956 31.4957 93.8011 31.5558L93.7956 31.5667ZM93.3626 21.3232C92.903 21.3083 92.4495 21.4321 92.0607 21.6786C91.1238 22.2499 90.6444 23.3899 90.6444 25.0685C90.6444 28.2096 92.2132 30.4021 94.4574 30.4021C95.0613 30.4227 95.6508 30.2137 96.1079 29.8171C96.797 29.2539 97.1646 28.1003 97.1646 26.4873C97.1646 23.3927 95.6313 21.315 93.3517 21.315L93.3626 21.3232Z" fill="#CFD5DC"/>
<path d="M79.7851 38.0001C78.328 38.0001 77.2794 37.6912 76.3806 36.9995C76.012 36.7203 75.7082 36.364 75.4905 35.9551C75.2727 35.5463 75.1462 35.0949 75.1196 34.6321C75.1287 34.1857 75.2979 33.7576 75.5962 33.4265C75.8495 33.1531 76.4378 32.6063 77.7969 31.6604C77.8179 31.6517 77.8359 31.6369 77.8485 31.618C77.8611 31.599 77.8678 31.5766 77.8677 31.5538C77.8685 31.5283 77.8605 31.5032 77.8452 31.4828C77.8298 31.4625 77.808 31.4479 77.7833 31.4417C76.6639 31.0125 76.3262 30.3072 76.2227 29.9245C76.2245 29.9054 76.2245 29.8862 76.2227 29.8671C76.1895 29.7889 76.1855 29.7013 76.2116 29.6204C76.2376 29.5396 76.2918 29.4708 76.3643 29.4269C76.5195 29.3148 76.7728 29.1535 77.037 29.0087C77.417 28.7999 77.7812 28.5632 78.1264 28.3006C78.144 28.2818 78.157 28.2592 78.1646 28.2346C78.1721 28.2099 78.174 28.1839 78.17 28.1584C78.1667 28.1313 78.1568 28.1053 78.1411 28.0829C78.1254 28.0605 78.1045 28.0423 78.0801 28.03C76.4242 27.4832 75.5881 26.2393 75.5881 24.3585C75.5837 23.7707 75.7205 23.1905 75.987 22.667C76.2534 22.1435 76.6416 21.6922 77.1187 21.3513C78.1389 20.6699 79.3194 20.2693 80.5422 20.1895H80.6049C81.5049 20.2142 82.3917 20.4128 83.2168 20.7745C83.7115 20.9535 84.2354 21.037 84.761 21.0205C85.6816 21.0205 86.0847 20.7253 86.4306 20.389C86.4881 20.542 86.5186 20.7039 86.5204 20.8674C86.5401 21.2548 86.435 21.6382 86.2208 21.9609C86.0892 22.1091 85.9269 22.2267 85.7453 22.3056C85.5638 22.3844 85.3673 22.4226 85.1696 22.4175H85.0497C84.8382 22.4021 84.6285 22.3673 84.4233 22.3136L84.3198 22.3491C84.2844 22.3956 84.3062 22.4503 84.3334 22.5186C84.3403 22.5317 84.3458 22.5454 84.3498 22.5596C84.4236 22.8983 84.4736 23.2418 84.4996 23.5876C84.4996 25.5559 83.7234 26.417 82.8872 27.0513C82.0754 27.6662 81.1104 28.0446 80.0983 28.1448L79.7769 28.1721L79.461 28.1995H79.4365C79.254 28.2514 78.7801 28.4728 78.7801 28.8993C78.7801 29.2492 78.9953 29.6839 80.022 29.7604L80.6866 29.8097C82.0484 29.9026 83.7342 30.0202 84.5322 30.2908C85.0597 30.4775 85.5152 30.8262 85.834 31.2875C86.1528 31.7488 86.3186 32.2992 86.308 32.8606C86.308 34.6293 85.0552 36.2915 82.9553 37.3057C81.964 37.7733 80.8804 38.0107 79.7851 38.0001ZM79.6217 31.7889C79.2672 31.7842 78.9174 31.8708 78.6058 32.0404C77.6171 32.6747 77.1596 33.3116 77.1596 34.0443C77.1562 34.3775 77.2302 34.7069 77.3759 35.0063C77.5215 35.3058 77.7346 35.567 77.9984 35.7693C78.6957 36.3598 79.6326 36.6469 80.8663 36.6469C83.2903 36.6469 84.377 35.3401 84.377 34.0443C84.377 33.1421 83.9249 32.538 82.9989 32.1963C82.2826 31.9229 81.0924 31.7889 79.6217 31.7889ZM79.7851 21.2119C78.535 21.2119 77.7261 22.2043 77.7261 23.7352C77.7261 25.2661 78.4206 27.0895 80.3788 27.0895C80.8392 27.0847 81.2823 26.9128 81.6262 26.6057C82.081 26.1847 82.3779 25.3208 82.3779 24.4186C82.3779 22.4202 81.4083 21.2256 79.7851 21.2256V21.2119Z" fill="#CFD5DC"/>
<path d="M73.1915 30.3447C72.6599 30.2972 72.1399 30.1614 71.6527 29.9428C71.5522 29.8407 71.4857 29.7099 71.462 29.5683C71.4076 28.7482 71.4076 26.3288 71.4076 24.7486C71.4076 23.4638 71.1924 22.3402 70.6531 21.5364C70.3509 21.0839 69.9406 20.7144 69.4596 20.4618C68.9787 20.2092 68.4424 20.0815 67.8996 20.0903C66.8456 20.0903 65.4484 20.8147 64.28 21.8044C64.2528 21.8317 64.073 22.0012 64.0785 21.7387C64.0839 21.4763 64.1221 20.9377 64.1466 20.6015C64.1578 20.5104 64.1476 20.418 64.1169 20.3316C64.0861 20.2452 64.0357 20.1672 63.9695 20.1039C63.2151 20.4785 61.0826 20.9869 60.2982 21.069C59.7235 21.1783 59.5519 21.7333 60.1892 21.9246C60.6806 22.0613 61.1502 22.2675 61.5837 22.537C61.6727 22.6215 61.739 22.7272 61.7766 22.8443C61.8142 22.9613 61.8219 23.086 61.7989 23.2068C61.8261 25.0002 61.8261 27.7585 61.7444 29.2594C61.7172 29.8472 61.5565 30.0604 61.1234 30.1697H61.1615C60.8334 30.252 60.5005 30.3141 60.1647 30.3556C60.0285 30.4896 60.0285 31.266 60.1647 31.4273C60.4371 31.4273 61.7989 31.3453 62.9455 31.3453C64.5115 31.3453 65.3204 31.4273 65.7262 31.4273C65.8949 31.0964 65.9338 30.7139 65.8352 30.3556C65.4613 30.3387 65.09 30.2847 64.7267 30.1943C64.2964 30.0877 64.182 29.8745 64.1602 29.3933C64.1057 28.1331 64.1057 25.4567 64.1057 23.636C64.1057 23.1275 64.2419 22.8869 64.4026 22.753C65.0297 22.2411 65.8113 21.9577 66.6196 21.9492C67.2148 21.9283 67.7968 22.1289 68.2537 22.5124C68.6866 22.897 68.9573 23.4327 69.0108 24.0105C69.1198 25.0275 69.0925 27.0642 69.0925 28.8302C69.0925 29.7952 69.0108 30.0358 68.6595 30.1424C68.3009 30.2617 67.9282 30.3334 67.551 30.3556C67.3903 30.5169 67.4448 31.266 67.551 31.4273C68.2537 31.4273 69.0653 31.3453 70.2528 31.3453C71.7398 31.3453 72.6849 31.4273 73.0608 31.4273C73.2407 31.0965 73.2875 30.7091 73.1915 30.3447Z" fill="#CFD5DC"/>
</svg>
