<svg width="90" height="55" viewBox="0 0 90 55" fill="none" xmlns="http://www.w3.org/2000/svg">
<path d="M44.4836 55.0003C44.1843 55.0002 43.8903 54.922 43.6306 54.7734L40.9177 53.1702C40.5118 52.9434 40.7101 52.8657 40.8444 52.817C41.2725 52.6815 41.6824 52.4943 42.0651 52.2598C42.097 52.2443 42.1323 52.2374 42.1676 52.2398C42.203 52.2422 42.2371 52.2538 42.2665 52.2735L44.3509 53.5082C44.3899 53.5278 44.433 53.538 44.4767 53.538C44.5204 53.538 44.5636 53.5278 44.6026 53.5082L52.7309 48.8265C52.7687 48.8036 52.7999 48.7715 52.8216 48.733C52.8432 48.6946 52.8546 48.6513 52.8545 48.6072V39.2482C52.8546 39.2036 52.8432 39.1596 52.8213 39.1207C52.7993 39.0817 52.7677 39.0491 52.7294 39.0259L44.6102 34.3487C44.5724 34.3264 44.5292 34.3146 44.4851 34.3146C44.4411 34.3146 44.3979 34.3264 44.36 34.3487L36.2378 39.0259C36.1987 39.0481 36.1661 39.0802 36.1433 39.119C36.1206 39.1577 36.1084 39.2018 36.1081 39.2467V48.6057C36.1081 48.6497 36.1199 48.6929 36.1421 48.7309C36.1644 48.7689 36.1964 48.8003 36.2348 48.8219L38.461 50.1054C39.6695 50.7144 40.408 49.9973 40.408 49.2832V40.043C40.4078 40.0122 40.4138 39.9817 40.4255 39.9533C40.4373 39.9248 40.4546 39.899 40.4765 39.8773C40.4984 39.8556 40.5244 39.8385 40.553 39.8269C40.5816 39.8154 40.6122 39.8096 40.643 39.81H41.673C41.7037 39.8098 41.7341 39.8157 41.7625 39.8274C41.791 39.839 41.8168 39.8562 41.8385 39.8778C41.8602 39.8995 41.8774 39.9253 41.8891 39.9536C41.9007 39.982 41.9066 40.0123 41.9064 40.043V49.2847C41.9064 50.8925 41.0275 51.8152 39.5001 51.8152C39.0302 51.8152 38.6594 51.8152 37.6264 51.3082L35.4902 50.0825C35.2308 49.9317 35.0156 49.7157 34.8659 49.4561C34.7163 49.1964 34.6374 48.9022 34.6372 48.6026V39.2467C34.6368 38.9473 34.7154 38.653 34.8651 38.3935C35.0148 38.1339 35.2304 37.9183 35.4902 37.7683L43.6261 33.085C43.8883 32.9427 44.1821 32.8682 44.4806 32.8682C44.7791 32.8682 45.0728 32.9427 45.335 33.085L53.4603 37.7714C53.7196 37.9215 53.9348 38.1369 54.0845 38.3961C54.2342 38.6552 54.3131 38.9491 54.3132 39.2482V48.6072C54.3126 48.9065 54.2335 49.2003 54.0839 49.4597C53.9343 49.719 53.7193 49.9348 53.4603 50.0856L45.335 54.7689C45.074 54.918 44.7783 54.9962 44.4775 54.9957L44.4836 55.0003Z" fill="#CFD5DC"/>
<path d="M46.9967 48.551C43.4415 48.551 42.6953 46.9234 42.6953 45.5562C42.6953 45.5255 42.7014 45.495 42.7132 45.4667C42.7251 45.4383 42.7424 45.4126 42.7642 45.3909C42.7861 45.3693 42.812 45.3521 42.8405 45.3405C42.869 45.3289 42.8995 45.323 42.9303 45.3232H43.9801C44.036 45.3233 44.0901 45.3432 44.1326 45.3795C44.1752 45.4158 44.2033 45.466 44.212 45.5212C44.3646 46.5869 44.8422 47.1274 46.9937 47.1274C48.7057 47.1274 49.4351 46.7407 49.4351 45.8348C49.4351 45.3126 49.2275 44.9213 46.5664 44.6655C44.3402 44.4463 42.9654 43.9575 42.9654 42.1807C42.9654 40.544 44.3478 39.5696 46.6656 39.5696C49.2672 39.5696 50.5581 40.4709 50.7198 42.4076C50.7228 42.4401 50.7189 42.4729 50.7085 42.5039C50.698 42.5348 50.6812 42.5633 50.659 42.5873C50.6369 42.6114 50.61 42.6306 50.58 42.6437C50.55 42.6568 50.5176 42.6635 50.4848 42.6634H49.4289C49.3756 42.6636 49.3238 42.6456 49.2822 42.6123C49.2405 42.5791 49.2116 42.5326 49.2001 42.4807C48.9468 41.3586 48.3318 40.9992 46.661 40.9992C44.7918 40.9992 44.5737 41.6494 44.5737 42.1366C44.5737 42.7273 44.83 42.8978 47.3538 43.2328C49.8516 43.5632 51.0372 44.0306 51.0372 45.7815C51.0372 47.5324 49.5571 48.5693 46.9815 48.5693L46.9967 48.551ZM56.8813 38.6439H57.1544C57.1889 38.6482 57.224 38.6448 57.2571 38.6342C57.2901 38.6235 57.3205 38.6057 57.346 38.582C57.3714 38.5583 57.3914 38.5294 57.4044 38.4972C57.4174 38.465 57.4232 38.4304 57.4214 38.3957C57.4214 38.1567 57.2566 38.1567 57.1651 38.1567H56.8843L56.8813 38.6439ZM56.5501 37.8826H57.1605C57.368 37.8826 57.7708 37.8826 57.7708 38.3394C57.7792 38.4397 57.7498 38.5394 57.6882 38.6192C57.6267 38.6989 57.5375 38.7528 57.4382 38.7703C57.6808 38.7855 57.6976 38.9438 57.7296 39.1676C57.7393 39.3233 57.7701 39.477 57.8212 39.6244H57.4489C57.4382 39.5437 57.3817 39.0961 57.3817 39.0717C57.3573 38.9728 57.3222 38.9195 57.1986 38.9195H56.8935V39.6214H56.5532L56.5501 37.8826ZM55.8238 38.755C55.8229 39.0148 55.8994 39.2689 56.0434 39.4852C56.1875 39.7015 56.3928 39.8702 56.6331 39.97C56.8734 40.0697 57.138 40.096 57.3933 40.0454C57.6487 39.9949 57.8832 39.8698 58.0671 39.686C58.2511 39.5022 58.3762 39.2681 58.4265 39.0133C58.4769 38.7585 58.4503 38.4945 58.35 38.2548C58.2498 38.0151 58.0805 37.8105 57.8635 37.667C57.6466 37.5235 57.3918 37.4475 57.1315 37.4487C56.7849 37.4503 56.453 37.5885 56.2081 37.8332C55.9632 38.0779 55.825 38.4092 55.8238 38.755ZM58.7047 38.755C58.7047 39.0643 58.6128 39.3666 58.4406 39.6237C58.2684 39.8809 58.0236 40.0813 57.7373 40.1996C57.451 40.318 57.1359 40.349 56.8319 40.2886C56.5279 40.2283 56.2487 40.0794 56.0295 39.8607C55.8104 39.642 55.6611 39.3634 55.6007 39.0601C55.5402 38.7568 55.5712 38.4424 55.6898 38.1567C55.8084 37.8709 56.0093 37.6267 56.267 37.4549C56.5247 37.2831 56.8277 37.1914 57.1376 37.1914C57.5528 37.1926 57.9507 37.3577 58.2444 37.6507C58.538 37.9437 58.7035 38.3407 58.7047 38.755Z" fill="#CFD5DC"/>
<path d="M19.3144 18.3817C19.3149 18.199 19.2671 18.0195 19.1757 17.8612C19.0843 17.7029 18.9527 17.5715 18.7941 17.4803L10.1775 12.5321C10.0329 12.4486 9.86992 12.4021 9.70297 12.3966H9.61294C9.44554 12.4023 9.28209 12.4488 9.13687 12.5321L0.521845 17.4803C0.363145 17.572 0.231385 17.7036 0.139789 17.8621C0.0481927 18.0205 -1.64705e-05 18.2003 4.22187e-09 18.3832L0.0183104 31.7084C0.0163196 31.8008 0.0393704 31.892 0.0850282 31.9724C0.130686 32.0528 0.197256 32.1194 0.277707 32.1651C0.355227 32.2128 0.444506 32.2381 0.535578 32.2381C0.62665 32.2381 0.715929 32.2128 0.793449 32.1651L5.9173 29.2327C6.07518 29.1407 6.20624 29.0092 6.2975 28.8511C6.38876 28.693 6.43706 28.5138 6.43762 28.3314V22.1027C6.43716 21.9205 6.48507 21.7414 6.57645 21.5836C6.66784 21.4259 6.79946 21.295 6.95794 21.2045L9.1384 19.9453C9.29646 19.8546 9.47561 19.8069 9.65795 19.8069C9.84029 19.8069 10.0194 19.8546 10.1775 19.9453L12.3595 21.2029C12.5182 21.2938 12.65 21.4249 12.7416 21.5829C12.8332 21.7409 12.8814 21.9202 12.8813 22.1027V28.3268C12.8812 28.5098 12.9291 28.6897 13.0201 28.8486C13.1111 29.0075 13.2421 29.1399 13.4001 29.2327L18.5194 32.159C18.5982 32.2054 18.6881 32.2298 18.7796 32.2298C18.8711 32.2298 18.9609 32.2054 19.0397 32.159C19.1182 32.1131 19.1833 32.0475 19.2286 31.9687C19.2738 31.8899 19.2976 31.8007 19.2976 31.7099L19.3144 18.3817ZM59.9771 25.3198C59.9772 25.3654 59.9652 25.4103 59.9425 25.4498C59.9197 25.4894 59.8869 25.5222 59.8474 25.5452L56.8872 27.2535C56.8477 27.2759 56.803 27.2877 56.7575 27.2877C56.7121 27.2877 56.6674 27.2759 56.6278 27.2535L53.6677 25.5513C53.6278 25.5286 53.5946 25.4959 53.5716 25.4563C53.5485 25.4167 53.5364 25.3717 53.5364 25.3259V21.9109C53.5362 21.8654 53.548 21.8207 53.5704 21.7812C53.5929 21.7417 53.6254 21.7087 53.6646 21.6856L56.6233 19.9803C56.6631 19.9572 56.7084 19.945 56.7545 19.945C56.8006 19.945 56.8459 19.9572 56.8857 19.9803L59.8459 21.6856C59.8855 21.7084 59.9183 21.7412 59.9411 21.7808C59.9639 21.8204 59.9758 21.8653 59.9756 21.9109L59.9771 25.3198ZM60.7767 0.0656762C60.6972 0.0214997 60.6076 -0.00112975 60.5166 4.33994e-05C60.4257 0.00121655 60.3367 0.0261514 60.2584 0.0723624C60.1801 0.118573 60.1154 0.184447 60.0706 0.263416C60.0258 0.342385 60.0025 0.431692 60.003 0.522435V13.7151C60.003 13.7789 59.9861 13.8415 59.9542 13.8967C59.9222 13.952 59.8762 13.9978 59.8209 14.0297C59.7656 14.0617 59.7028 14.0785 59.6389 14.0786C59.575 14.0787 59.5122 14.062 59.4568 14.0303L57.2977 12.7894C57.1398 12.6981 56.9606 12.6501 56.7781 12.6501C56.5957 12.6501 56.4164 12.6981 56.2586 12.7894L47.6375 17.7529C47.4794 17.8439 47.3481 17.9749 47.2568 18.1325C47.1655 18.2902 47.1173 18.4691 47.1171 18.6512V28.5811C47.1173 28.7634 47.1655 28.9425 47.2568 29.1004C47.3481 29.2583 47.4794 29.3895 47.6375 29.4809L56.2586 34.4489C56.417 34.5395 56.5964 34.5871 56.7789 34.5871C56.9614 34.5871 57.1408 34.5395 57.2992 34.4489L65.9173 29.4794C66.0754 29.388 66.2066 29.2567 66.2979 29.0988C66.3892 28.9409 66.4374 28.7619 66.4376 28.5796V3.82936C66.4385 3.64338 66.3894 3.46057 66.2955 3.29993C66.2015 3.13928 66.0662 3.00666 65.9036 2.91585L60.7767 0.0656762ZM89.4827 21.8211C89.64 21.7294 89.7705 21.5983 89.8613 21.4407C89.952 21.2831 89.9998 21.1045 90 20.9228V18.5157C89.9997 18.3338 89.9516 18.1551 89.8606 17.9975C89.7696 17.8399 89.6388 17.7089 89.4812 17.6174L80.9165 12.657C80.7581 12.565 80.578 12.5165 80.3947 12.5165C80.2114 12.5165 80.0313 12.565 79.8728 12.657L71.2578 17.6204C71.0993 17.711 70.9675 17.8418 70.8759 17.9996C70.7842 18.1573 70.736 18.3364 70.736 18.5187V28.4456C70.7362 28.6291 70.7848 28.8092 70.8769 28.968C70.969 29.1268 71.1015 29.2585 71.2609 29.35L79.824 34.2221C79.98 34.31 80.1561 34.3562 80.3352 34.3562C80.5143 34.3562 80.6904 34.31 80.8464 34.2221L86.0251 31.3506C86.1054 31.3054 86.1723 31.2397 86.2188 31.1602C86.2653 31.0808 86.2898 30.9904 86.2898 30.8984C86.2898 30.8064 86.2653 30.716 86.2188 30.6366C86.1723 30.5571 86.1054 30.4914 86.0251 30.4462L77.3613 25.4843C77.2817 25.4392 77.2155 25.3738 77.1694 25.295C77.1234 25.2161 77.099 25.1264 77.0988 25.0351V21.9246C77.0973 21.8321 77.1207 21.7409 77.1666 21.6606C77.2125 21.5802 77.2792 21.5137 77.3597 21.4678L80.0575 19.9149C80.1363 19.8693 80.2258 19.8453 80.3169 19.8453C80.408 19.8453 80.4974 19.8693 80.5763 19.9149L83.2694 21.4678C83.3487 21.5132 83.4146 21.5786 83.4604 21.6574C83.5062 21.7363 83.5303 21.8258 83.5303 21.917V24.3652C83.5303 24.4564 83.5544 24.546 83.6002 24.625C83.6459 24.704 83.7117 24.7695 83.7909 24.815C83.8701 24.8606 83.9599 24.8845 84.0513 24.8844C84.1427 24.8842 84.2325 24.8601 84.3116 24.8144L89.4827 21.8211Z" fill="#CFD5DC"/>
<path d="M80.2679 21.3566C80.2982 21.3386 80.3327 21.3291 80.3679 21.3291C80.4031 21.3291 80.4376 21.3386 80.4678 21.3566L82.1219 22.3081C82.152 22.3257 82.177 22.3508 82.1944 22.381C82.2118 22.4112 82.221 22.4454 82.221 22.4802V24.3864C82.221 24.4214 82.2118 24.4558 82.1944 24.4862C82.177 24.5166 82.152 24.542 82.1219 24.5599L80.4678 25.5115C80.4376 25.5295 80.4031 25.539 80.3679 25.539C80.3327 25.539 80.2982 25.5295 80.2679 25.5115L78.6154 24.5599C78.5845 24.5427 78.5587 24.5175 78.5407 24.487C78.5228 24.4565 78.5133 24.4218 78.5132 24.3864V22.4802C78.5129 22.4453 78.522 22.411 78.5394 22.3807C78.5568 22.3505 78.582 22.3254 78.6124 22.3081L80.2679 21.3566Z" fill="#CFD5DC"/>
<path d="M43.3826 19.2329L30.0212 12.6914L23.1738 26.6504L36.5343 33.192L43.3826 19.2329Z" fill="#CFD5DC"/>
<path d="M22.3032 21.1683L31.737 33.9217L44.2137 24.7143L34.7791 11.9609L22.3032 21.1683Z" fill="#CFD5DC"/>
<path d="M28.2627 16.8887V28.9651H38.5811V16.8887H28.2627Z" fill="#CFD5DC"/>
</svg>
