<svg width="135" height="24" viewBox="0 0 135 24" fill="none" xmlns="http://www.w3.org/2000/svg">
<path d="M22.2302 0H2.27697C1.67366 0.00188999 1.0956 0.242543 0.668996 0.669418C0.24239 1.09629 0.0018888 1.67472 0 2.27841V7.64745H5.53456V6.77013C5.53456 6.44336 5.66429 6.12998 5.8952 5.89892C6.12611 5.66786 6.4393 5.53805 6.76586 5.53805H17.7413C18.0678 5.53805 18.381 5.66786 18.6119 5.89892C18.8428 6.12998 18.9726 6.44336 18.9726 6.77013V7.64745H24.5071V2.27841C24.5052 1.67472 24.2647 1.09629 23.8381 0.669418C23.4115 0.242543 22.8335 0.00188999 22.2302 0Z" fill="#CFD5DC"/>
<path d="M18.9726 17.2299C18.9726 17.5566 18.8428 17.87 18.6119 18.1011C18.381 18.3321 18.0678 18.4619 17.7413 18.4619H6.76586C6.4393 18.4619 6.12611 18.3321 5.8952 18.1011C5.66429 17.87 5.53456 17.5566 5.53456 17.2299V16.3525H0V21.7216C0.0018888 22.3253 0.24239 22.9037 0.668996 23.3306C1.0956 23.7574 1.67366 23.9981 2.27697 24H22.2302C22.8335 23.9981 23.4115 23.7574 23.8381 23.3306C24.2647 22.9037 24.5052 22.3253 24.5071 21.7216V16.3525H18.9726V17.2299Z" fill="#CFD5DC"/>
<path d="M24.5072 9.23145H18.9727V14.7695H24.5072V9.23145Z" fill="#CFD5DC"/>
<path d="M135 16.6509C135 16.3428 134.908 16.0415 134.737 15.7853C134.566 15.529 134.323 15.3293 134.038 15.2114C133.754 15.0934 133.441 15.0626 133.139 15.1227C132.837 15.1828 132.559 15.3312 132.341 15.5491C132.124 15.7671 131.975 16.0447 131.915 16.3469C131.855 16.6492 131.886 16.9625 132.004 17.2472C132.122 17.5319 132.321 17.7753 132.577 17.9465C132.833 18.1177 133.134 18.2091 133.442 18.2091C133.855 18.2088 134.251 18.0445 134.543 17.7524C134.835 17.4602 134.999 17.0641 135 16.6509ZM133.442 17.8263C133.21 17.8263 132.983 17.7573 132.79 17.6282C132.597 17.499 132.446 17.3155 132.357 17.1007C132.268 16.8859 132.245 16.6496 132.29 16.4216C132.336 16.1936 132.448 15.9842 132.612 15.8198C132.776 15.6555 132.985 15.5435 133.213 15.4982C133.441 15.4528 133.677 15.4761 133.892 15.5651C134.107 15.654 134.29 15.8047 134.419 15.9979C134.548 16.1912 134.617 16.4185 134.617 16.6509C134.617 16.9626 134.493 17.2613 134.273 17.4817C134.052 17.702 133.754 17.8259 133.442 17.8263Z" fill="#CFD5DC"/>
<path d="M134.027 16.3696V16.3606C134.03 16.296 134.021 16.2315 133.999 16.1708C133.976 16.11 133.942 16.0544 133.898 16.007C133.842 15.9565 133.777 15.9176 133.706 15.8926C133.635 15.8676 133.559 15.8569 133.484 15.8613H132.911V17.3878H133.227V16.8861H133.426L133.707 17.3878H134.068L133.744 16.8205C133.832 16.784 133.906 16.721 133.957 16.6402C134.008 16.5594 134.033 16.4648 134.027 16.3696ZM133.709 16.3779C133.709 16.5153 133.621 16.6072 133.46 16.6072H133.227V16.1468H133.454C133.615 16.1468 133.709 16.2232 133.709 16.3755V16.3779Z" fill="#CFD5DC"/>
<path d="M41.4901 12.1053V11.8939C41.4901 8.20839 39.0741 5.53223 35.7896 5.53223C32.4813 5.53223 30.042 8.25557 30.042 11.9177V12.1286C30.042 15.814 32.458 18.4669 35.7425 18.4669C39.0502 18.4669 41.4901 15.7662 41.4901 12.1053ZM32.6926 12.0587V11.9177C32.6926 9.59335 33.8863 7.87991 35.7425 7.87991C37.5491 7.87991 38.8395 9.61724 38.8395 11.941V12.082C38.8395 14.4058 37.6458 16.1431 35.7896 16.1431C33.983 16.1431 32.6926 14.3825 32.6926 12.0587Z" fill="#CFD5DC"/>
<path d="M54.1102 12.1528V11.825C54.1102 7.62229 51.764 5.5332 49.2757 5.5332C47.493 5.5332 46.4109 6.5664 45.6397 7.76383V5.76731H42.9897V21.7538H45.6409V16.331C46.3918 17.4341 47.4709 18.444 49.2769 18.444C51.7873 18.444 54.1102 16.331 54.1102 12.1528ZM45.5938 12.1056V11.8709C45.5938 9.42949 46.9546 7.88029 48.55 7.88029C50.1453 7.88029 51.4351 9.4062 51.4351 11.8942V12.1056C51.4351 14.5943 50.1686 16.0963 48.55 16.0963C46.9546 16.0963 45.5938 14.5471 45.5938 12.1056Z" fill="#CFD5DC"/>
<path d="M65.597 16.5432L64.2129 14.8997C63.3916 15.6982 62.5238 16.2136 61.348 16.2136C59.7294 16.2136 58.439 15.0866 58.2044 12.9975H65.9933C66.0165 12.6219 66.0165 12.2462 66.0165 12.082C66.0165 8.34933 64.2338 5.53223 60.8556 5.53223C57.8057 5.53223 55.5532 8.20839 55.5532 11.941V12.1286C55.5532 16.0254 58.0403 18.4669 61.231 18.4669C63.0866 18.4675 64.4707 17.7377 65.597 16.5432ZM60.858 7.76405C62.4062 7.76405 63.2973 9.19739 63.4388 11.1682H58.1835C58.3715 9.05405 59.4035 7.76405 60.858 7.76405Z" fill="#CFD5DC"/>
<path d="M73.8036 5.53223C72.1145 5.53223 71.1053 6.49495 70.4016 7.59802V5.76694H67.751V18.2089H70.4016V10.6737C70.4016 8.95969 71.3637 7.9265 72.7478 7.9265C74.1551 7.9265 74.9764 8.88922 74.9764 10.6259V18.2107H77.6276V9.87524C77.6276 7.22237 76.1964 5.53223 73.8036 5.53223Z" fill="#CFD5DC"/>
<path d="M88.3138 14.6644V14.6412C88.3138 12.693 86.8592 11.8008 84.9356 10.9324C83.4811 10.2754 82.4957 9.85262 82.4957 9.03084V8.98365C82.4957 8.30282 83.0818 7.76353 84.0672 7.76353C85.0526 7.76353 86.0851 8.23295 87.0234 8.8666L88.1496 6.91786C86.9768 6.07279 85.4984 5.58008 84.1143 5.58008C81.792 5.58008 80.0086 6.98833 80.0086 9.21836V9.26554C80.0086 11.3075 81.5604 12.1531 83.4107 12.951C84.8885 13.5847 85.8506 13.9836 85.8506 14.8759V14.8992C85.8506 15.6755 85.2167 16.2608 84.1143 16.2608C83.012 16.2608 81.8153 15.7233 80.689 14.806L79.4458 16.7069C80.8782 17.9044 82.5894 18.4443 84.0672 18.4443C86.4605 18.4443 88.3138 17.1059 88.3138 14.6644Z" fill="#CFD5DC"/>
<path d="M96.5224 17.8567V15.6739C96.0815 15.9084 95.5892 16.0293 95.0899 16.0257C94.2454 16.0257 93.753 15.6267 93.753 14.664V8.04436H96.5444V5.76715H93.753V2.41016H91.103V5.76715H89.7422L90.1779 8.04436H91.103V15.2045C91.103 17.622 92.4871 18.3972 94.3176 18.3972C95.0866 18.4085 95.8457 18.2224 96.5224 17.8567Z" fill="#CFD5DC"/>
<path d="M106.68 6.89388C105.883 6.0721 104.64 5.62598 103.02 5.62598C101.355 5.62598 100.111 6.02552 98.9147 6.61259L99.6655 8.72497C100.487 8.34932 101.472 7.97366 102.668 7.97366C104.358 7.97366 105.343 8.84202 105.343 10.5089V11.0255C104.499 10.7436 103.654 10.5328 102.478 10.5328C99.8523 10.5328 98.0684 11.8467 98.0684 14.5234V14.6429C98.0684 17.061 99.804 18.446 101.868 18.446C103.487 18.446 104.59 17.7418 105.317 16.6854V18.2089H107.921V10.4856C107.924 8.93639 107.502 7.71566 106.68 6.89388ZM105.367 14.0301C105.367 15.439 104.194 16.4716 102.669 16.4483C101.52 16.425 100.652 15.7202 100.652 14.4774V14.4302C100.652 13.1164 101.543 12.34 103.068 12.34C103.856 12.3358 104.638 12.4874 105.367 12.7861V14.0301Z" fill="#CFD5DC"/>
<path d="M119.19 16.59L117.758 14.8294C117.031 15.5568 116.303 16.0967 115.224 16.0967C113.418 16.0967 112.151 14.4771 112.151 12.0595V11.9401C112.151 9.59237 113.418 7.92552 115.154 7.92552C116.28 7.92552 117.008 8.4893 117.664 9.17013L119.143 7.22139C118.11 6.18879 116.934 5.53125 115.154 5.53125C111.893 5.53125 109.477 8.20741 109.477 11.9168V12.1515C109.477 15.8602 111.823 18.4659 115.06 18.4659C116.963 18.4677 118.207 17.6931 119.19 16.59Z" fill="#CFD5DC"/>
<path d="M127.307 11.752L125.446 13.7532L127.942 18.2097H131.015L127.307 11.752Z" fill="#CFD5DC"/>
<path d="M127.753 5.76701L123.507 11.237V1.25977H120.856V18.209H123.507V14.6173L130.897 5.76701H127.753Z" fill="#CFD5DC"/>
</svg>
