<svg width="111" height="15" viewBox="0 0 111 15" fill="none" xmlns="http://www.w3.org/2000/svg">
<path d="M47.9195 9.75889H55.2542L51.3759 3.27272L44.2579 15H41.0183L49.6762 0.913038C50.0526 0.343866 50.68 0 51.3759 0C52.0488 0 52.6762 0.332014 53.0413 0.889324L61.7334 15H58.4938L56.9653 12.3794H49.5393L47.9195 9.75889ZM81.5701 12.3794V0.142293H78.821V13.5771C78.821 13.9447 78.9579 14.3004 79.2203 14.5731C79.4826 14.8459 79.8362 15 80.224 15H92.7603L94.3801 12.3794H81.5701ZM36.0905 10.1858C38.7598 10.1858 40.9271 7.94467 40.9271 5.16996C40.9271 2.39526 38.7598 0.142293 36.0905 0.142293H24.0641V15H26.8121V2.76285H35.908C37.1856 2.76285 38.2122 3.84189 38.2122 5.16996C38.2122 6.49802 37.1856 7.57708 35.908 7.57708L28.1581 7.56521L36.3642 15H40.3568L34.8358 10.1858H36.0905ZM7.14767 15C3.20196 15 0 11.6798 0 7.57708C0 3.4743 3.20196 0.142293 7.14767 0.142293H15.4553C19.4021 0.142293 22.6018 3.4743 22.6018 7.57708C22.6018 11.6798 19.4021 15 15.4553 15H7.14767ZM15.2705 12.3794C17.8268 12.3794 19.8972 10.2332 19.8972 7.57708C19.8972 4.92095 17.8268 2.76285 15.2705 2.76285H7.33128C4.77612 2.76285 2.70457 4.92095 2.70457 7.57708C2.70457 10.2332 4.77612 12.3794 7.33128 12.3794H15.2705ZM67.471 15C63.5242 15 60.3189 11.6798 60.3189 7.57708C60.3189 3.4743 63.5242 0.142293 67.471 0.142293H77.3381L75.7297 2.76285H67.6536C65.0984 2.76285 63.0224 4.92095 63.0224 7.57708C63.0224 10.2332 65.0984 12.3794 67.6536 12.3794H77.5662L75.9464 15H67.471ZM101.087 12.3794C98.9771 12.3794 97.1862 10.9091 96.6386 8.88142H108.388L110.008 6.26086H96.6386C97.1862 4.24506 98.9771 2.76285 101.087 2.76285H109.152L110.783 0.142293H100.905C96.9581 0.142293 93.7527 3.4743 93.7527 7.57708C93.7527 11.6798 96.9581 15 100.905 15H109.38L111 12.3794H101.087Z" fill="#CFD5DC"/>
</svg>
