<svg width="103" height="24" viewBox="0 0 103 24" fill="none" xmlns="http://www.w3.org/2000/svg">
<path d="M1.54359 19.6381C1.34102 19.6385 1.14036 19.5993 0.953096 19.5227C0.765836 19.4461 0.59565 19.3336 0.452277 19.1917C0.308905 19.0498 0.19516 18.8813 0.117553 18.6958C0.0399461 18.5102 -3.39755e-07 18.3114 0 18.1105L0 14.0732C-3.39755e-07 13.8724 0.0399461 13.6735 0.117553 13.488C0.19516 13.3024 0.308905 13.1339 0.452277 12.992C0.59565 12.8501 0.765836 12.7377 0.953096 12.6611C1.14036 12.5845 1.34102 12.5452 1.54359 12.5456C1.74603 12.5452 1.94655 12.5845 2.13365 12.6611C2.32076 12.7378 2.49076 12.8503 2.6339 12.9922C2.77705 13.1341 2.89053 13.3027 2.96783 13.4882C3.04513 13.6737 3.08473 13.8725 3.08436 14.0732V18.1105C3.08473 18.3112 3.04513 18.51 2.96783 18.6955C2.89053 18.8811 2.77705 19.0496 2.6339 19.1915C2.49076 19.3335 2.32076 19.446 2.13365 19.5226C1.94655 19.5993 1.74603 19.6385 1.54359 19.6381ZM7.64175 19.4927V12.498C7.64175 12.0921 7.47913 11.7029 7.18965 11.4158C6.90017 11.1288 6.50755 10.9676 6.09816 10.9676C5.68878 10.9676 5.29616 11.1288 5.00668 11.4158C4.7172 11.7029 4.55457 12.0921 4.55457 12.498V19.4927C4.55457 19.6935 4.59452 19.8924 4.67213 20.0779C4.74974 20.2634 4.86348 20.432 5.00685 20.5738C5.15023 20.7157 5.32041 20.8282 5.50767 20.9048C5.69493 20.9814 5.89559 21.0207 6.09816 21.0203C6.30074 21.0207 6.5014 20.9814 6.68866 20.9048C6.87592 20.8282 7.0461 20.7157 7.18948 20.5738C7.33285 20.432 7.44659 20.2634 7.5242 20.0779C7.60181 19.8924 7.64175 19.6935 7.64175 19.4927ZM12.1963 21.0371V11.0487C12.1971 10.8473 12.1577 10.6477 12.0805 10.4613C12.0032 10.275 11.8896 10.1056 11.7462 9.96294C11.6028 9.82023 11.4324 9.707 11.2448 9.62974C11.0571 9.55248 10.8559 9.51271 10.6527 9.51271C10.4502 9.51271 10.2496 9.55231 10.0625 9.62926C9.87534 9.7062 9.70536 9.81898 9.56225 9.96113C9.41914 10.1033 9.30571 10.272 9.22845 10.4577C9.15118 10.6433 9.1116 10.8423 9.11197 11.0431V21.0315C9.1116 21.2323 9.15118 21.4313 9.22845 21.6169C9.30571 21.8026 9.41914 21.9713 9.56225 22.1135C9.70536 22.2556 9.87534 22.3684 10.0625 22.4454C10.2496 22.5223 10.4502 22.5619 10.6527 22.5619C11.0611 22.5619 11.4529 22.4014 11.7422 22.1156C12.0315 21.8298 12.1948 21.442 12.1963 21.0371ZM16.7509 22.4696V9.45116C16.7513 9.25031 16.7117 9.05136 16.6344 8.8657C16.5572 8.68003 16.4437 8.5113 16.3006 8.36915C16.1575 8.227 15.9875 8.11423 15.8004 8.03728C15.6133 7.96033 15.4127 7.92073 15.2101 7.92073C14.8008 7.92073 14.4081 8.08197 14.1187 8.36898C13.8292 8.65599 13.6665 9.04526 13.6665 9.45116V22.4696C13.6665 22.8755 13.8292 23.2647 14.1187 23.5517C14.4081 23.8388 14.8008 24 15.2101 24C15.4127 24 15.6133 23.9604 15.8004 23.8834C15.9875 23.8065 16.1575 23.6937 16.3006 23.5516C16.4437 23.4094 16.5572 23.2407 16.6344 23.055C16.7117 22.8694 16.7513 22.6704 16.7509 22.4696ZM23.5235 6.02378L2.93479 0.0643531C2.78602 0.0226117 2.63225 0.000966123 2.47764 2.4247e-06C2.26358 -0.000365403 2.05155 0.0411199 1.85367 0.122084C1.6558 0.203049 1.47597 0.321904 1.32447 0.471848C1.17298 0.621792 1.05279 0.799882 0.970788 0.995928C0.888784 1.19197 0.846575 1.40213 0.846575 1.61436V11.2418H2.07411V1.61436C2.07374 1.56146 2.08388 1.50899 2.10396 1.45997C2.12404 1.41095 2.15366 1.36633 2.19113 1.32866C2.2286 1.29098 2.27319 1.261 2.32235 1.24041C2.37151 1.21983 2.42428 1.20904 2.47764 1.20868C2.5168 1.20897 2.55574 1.21462 2.59334 1.22546L23.1708 7.18489C23.2534 7.21071 23.3254 7.26218 23.3762 7.33171C23.427 7.40124 23.4539 7.48514 23.453 7.571V20.4243C23.4533 20.4773 23.4432 20.5297 23.4231 20.5787C23.403 20.6278 23.3734 20.6724 23.3359 20.7101C23.2985 20.7477 23.2539 20.7777 23.2047 20.7983C23.1556 20.8189 23.1028 20.8297 23.0494 20.83C23.0103 20.8297 22.9713 20.8241 22.9337 20.8132L18.2493 19.4451V20.7041L22.6007 21.966C22.8426 22.0357 23.0975 22.0487 23.3454 22.0042C23.5933 21.9597 23.8274 21.8587 24.0292 21.7093C24.2311 21.5599 24.3952 21.3661 24.5087 21.1431C24.6222 20.9201 24.682 20.6741 24.6833 20.4243V7.571C24.6838 7.22207 24.5698 6.88246 24.3585 6.60338C24.1473 6.3243 23.8502 6.12088 23.5122 6.02378H23.5235ZM36.6313 5.79716C37.6957 5.62551 38.7727 5.54222 39.8511 5.54815C41.5076 5.54815 42.7238 5.93145 43.4942 6.61973C43.8692 6.96003 44.1645 7.37755 44.3595 7.84298C44.5545 8.30842 44.6444 8.81052 44.623 9.31406C44.623 10.478 44.2759 11.3957 43.6212 12.0644C42.7351 13.0016 41.2875 13.4801 39.6508 13.4801C39.1982 13.4944 38.7454 13.4559 38.3019 13.3654V18.5246H36.6228L36.6313 5.79716ZM38.3104 12.0084C38.7649 12.1089 39.2304 12.1531 39.6959 12.1399C41.7221 12.1399 42.9552 11.1662 42.9552 9.3896C42.9552 7.68851 41.739 6.87153 39.8906 6.87153C39.3605 6.85726 38.8303 6.90231 38.3104 7.00583V12.0084ZM54.7875 13.8214C54.7875 17.2432 52.3974 18.7344 50.1427 18.7344C47.6199 18.7344 45.6727 16.899 45.6727 13.9781C45.6727 10.8837 47.7158 9.06785 50.2979 9.06785C52.9646 9.06505 54.7762 10.9956 54.7762 13.8214H54.7875ZM47.3885 13.9193C47.3885 15.945 48.5624 17.4726 50.2104 17.4726C51.8273 17.4726 53.0323 15.9618 53.0323 13.8802C53.0323 12.3134 52.2422 10.3269 50.2358 10.3269C48.2294 10.3269 47.3772 12.1595 47.3772 13.9193H47.3885ZM57.4684 9.27489L58.6959 13.9893C58.9781 15.0217 59.2151 15.9758 59.3901 16.9326H59.4465C59.6582 15.9953 59.9686 15.0021 60.2762 14.0089L61.8 9.27489H63.211L64.6558 13.8997C65.0029 15.0189 65.2738 15.9813 65.4854 16.9186H65.5419C65.7244 15.9067 65.9628 14.9054 66.2558 13.9193L67.5849 9.27489H69.2612L66.2643 18.5246H64.7235L63.2956 14.1096C62.9684 13.1113 62.6924 12.0971 62.4688 11.0711H62.4293C62.2081 12.1061 61.9254 13.1272 61.5827 14.1292L60.0786 18.5246H58.535L55.7131 9.27489H57.4684ZM71.7303 14.2047C71.7698 16.4794 73.2344 17.4139 74.9304 17.4139C75.8155 17.4412 76.6962 17.2789 77.5124 16.9382L77.7946 18.1413C76.8115 18.5434 75.7535 18.7341 74.6905 18.7009C71.8178 18.7009 70.1021 16.8291 70.1021 14.0368C70.1021 11.2446 71.7614 9.05106 74.4789 9.05106C77.5237 9.05106 78.3336 11.7062 78.3336 13.4073C78.3307 13.6694 78.3109 13.9311 78.2744 14.1907L71.7303 14.2047ZM76.7025 13.0016C76.7223 11.9301 76.2595 10.2681 74.3519 10.2681C72.6362 10.2681 71.8855 11.8349 71.7501 13.0016H76.7025ZM80.4416 12.1623C80.4416 11.0739 80.4218 10.1366 80.3654 9.27769H81.8356L81.8921 11.0935H81.9711C82.3944 9.85125 83.4159 9.06785 84.5531 9.06785C84.7157 9.06634 84.8778 9.08514 85.0357 9.12381V10.7102C84.8457 10.6694 84.6515 10.6506 84.4572 10.6542C83.2607 10.6542 82.4141 11.5523 82.1827 12.8114C82.134 13.0698 82.1076 13.3319 82.1037 13.5948V18.5246H80.4247L80.4416 12.1623ZM90.8827 5.81954C91.8929 5.6298 92.9191 5.53611 93.9473 5.53975C95.6235 5.53975 96.7043 5.81954 97.5114 6.47704C97.8637 6.74054 98.1462 7.085 98.3345 7.48076C98.5227 7.87652 98.6112 8.31172 98.5922 8.74889C98.5922 9.99114 97.7625 11.0823 96.3939 11.5775V11.6167C97.6271 11.9217 99.0747 12.9345 99.0747 14.8454C99.0825 15.3277 98.9887 15.8062 98.7992 16.2504C98.6096 16.6947 98.3286 17.0947 97.9742 17.425C97.0683 18.2476 95.6038 18.6309 93.4845 18.6309C92.6147 18.6366 91.7456 18.5852 90.8827 18.477V5.81954ZM92.5589 11.0907H94.0827C95.8549 11.0907 96.9047 10.173 96.9047 8.93075C96.9047 7.41991 95.7477 6.82957 94.0517 6.82957C93.5542 6.81614 93.0567 6.85459 92.5674 6.94428L92.5589 11.0907ZM92.5589 17.2628C93.0266 17.3239 93.4983 17.3492 93.9699 17.3383C95.7025 17.3383 97.3025 16.7088 97.3025 14.8342C97.3025 13.0772 95.7815 12.3525 93.9501 12.3525H92.5589V17.2628ZM103 5.64328V18.5134H101.324V5.64328H103Z" fill="white"/>
</svg>
