<svg width="92" height="28" viewBox="0 0 92 28" fill="none" xmlns="http://www.w3.org/2000/svg">
<path d="M15.3507 16.3182C16.8809 16.3182 18.1214 15.0828 18.1214 13.559C18.1214 12.0351 16.8809 10.7998 15.3507 10.7998C13.8205 10.7998 12.5801 12.0351 12.5801 13.559C12.5801 15.0828 13.8205 16.3182 15.3507 16.3182Z" transform="translate(0.514648)" fill="#CFD5DC"/>
<path fill-rule="evenodd" clip-rule="evenodd" d="M15.351 8.44824C11.6362 8.44824 8.15286 8.98618 5.60224 9.8717C4.09395 10.3954 2.91965 11.0424 2.13266 11.7129C1.33419 12.3932 1 13.0378 1 13.5582C1 14.0985 1.36145 14.7885 2.21417 15.5157C3.05254 16.2307 4.29828 16.9201 5.88633 17.4607C8.39166 18.3135 11.7596 18.7232 15.351 18.7232C18.8477 18.7232 22.1452 18.2878 24.6283 17.4685C26.2742 16.9254 27.5685 16.2393 28.4406 15.5243C29.328 14.7968 29.7019 14.1063 29.7019 13.5582C29.7019 13.0387 29.3539 12.3888 28.5248 11.6999C27.7098 11.0226 26.5014 10.3711 24.9701 9.8461C22.4278 8.9745 19.0289 8.44824 15.351 8.44824ZM5.27426 8.92702C7.9543 7.99656 11.5531 7.44824 15.351 7.44824C19.113 7.44824 22.6255 7.98514 25.2944 8.90015C26.9025 9.45146 28.229 10.1538 29.1639 10.9308C30.0848 11.696 30.7019 12.6005 30.7019 13.5582C30.7019 14.5497 30.053 15.4955 29.0746 16.2976C28.0811 17.1122 26.6669 17.8488 24.9416 18.4181C22.327 19.2808 18.9167 19.7232 15.351 19.7232C11.7014 19.7232 8.21267 19.3089 5.5641 18.4073C3.89112 17.8379 2.52426 17.0944 1.56527 16.2766C0.620651 15.471 0 14.5281 0 13.5582C0 12.6133 0.587294 11.7159 1.48412 10.9517C2.39244 10.1778 3.68727 9.47803 5.27426 8.92702Z" transform="translate(0.514648)" fill="#CFD5DC"/>
<path fill-rule="evenodd" clip-rule="evenodd" d="M20.2885 1.28089C19.292 1.64573 18.1217 2.36271 16.9002 3.42133C14.8722 5.17893 12.7166 7.84797 10.8794 11.0205C9.02385 14.2248 7.75185 17.498 7.24811 20.1401C6.95023 21.7024 6.92642 23.038 7.11642 24.0513C7.30909 25.0789 7.7025 25.6898 8.15658 25.9506C8.62859 26.2217 9.41109 26.2539 10.4696 25.8816C11.5106 25.5155 12.7326 24.7852 13.996 23.6854C15.9892 21.9503 18.0279 19.2499 19.8218 16.152C21.5686 13.1356 22.8368 10.0739 23.3645 7.52321C23.7142 5.83247 23.764 4.3737 23.5778 3.26478C23.3885 2.13704 22.975 1.4689 22.4968 1.1943C22.0429 0.933601 21.3019 0.90985 20.2885 1.28089ZM19.9447 0.341849C21.0705 -0.0703368 22.1637 -0.150154 22.9948 0.327127C23.8559 0.821591 24.3548 1.85333 24.564 3.09921C24.7763 4.36391 24.7106 5.9525 24.3437 7.72578C23.7878 10.413 22.4687 13.5767 20.6872 16.6531C18.8638 19.8019 16.7603 22.6049 14.6526 24.4396C13.3213 25.5986 11.9917 26.4063 10.8014 26.825C9.62869 27.2374 8.50018 27.3011 7.65858 26.8178C6.83805 26.3466 6.3504 25.3922 6.13354 24.2356C5.91401 23.0648 5.9522 21.5976 6.26581 19.9528C6.7954 17.1751 8.11657 13.7961 10.0141 10.5193C11.8937 7.27354 14.1158 4.51119 16.2452 2.66564C17.5283 1.55363 18.802 0.760226 19.9447 0.341849Z" transform="translate(0.514648)" fill="#CFD5DC"/>
<path fill-rule="evenodd" clip-rule="evenodd" d="M10.4803 1.33551C9.40368 0.935279 8.61447 0.958232 8.13613 1.23402C7.68325 1.4951 7.29314 2.12127 7.11001 3.17984C6.9299 4.22099 6.96906 5.58825 7.27995 7.17058C7.7961 9.79767 9.04144 12.9902 10.8839 16.1597C12.7449 19.3609 14.9573 22.0933 17.0045 23.8477C18.2151 24.8851 19.3656 25.5731 20.3429 25.9155C21.3341 26.2628 22.0635 26.2285 22.5177 25.9666C22.9886 25.6951 23.4068 25.0373 23.6114 23.9392C23.8126 22.859 23.7876 21.4405 23.4619 19.8015C22.9479 17.2158 21.6169 14.1084 19.8177 11.0133C18.0659 7.99989 16.0357 5.3765 14.0799 3.64712C12.7835 2.50081 11.5388 1.72899 10.4803 1.33551ZM10.8288 0.398185C12.0343 0.846317 13.383 1.69602 14.7423 2.89798C16.8022 4.7194 18.8956 7.43728 20.6822 10.5108C22.5109 13.6564 23.899 16.8713 24.4427 19.6066C24.7861 21.3343 24.8249 22.8854 24.5945 24.1223C24.3674 25.3412 23.8586 26.3478 23.0172 26.8329C22.198 27.3052 21.1256 27.2493 20.0122 26.8592C18.8848 26.4642 17.6279 25.6989 16.3538 24.607C14.2022 22.7632 11.9224 19.9359 10.0194 16.6623C8.13437 13.4197 6.84085 10.1228 6.29871 7.36337C5.97204 5.70076 5.91781 4.20502 6.12465 3.00938C6.32848 1.83116 6.8057 0.846732 7.63665 0.367691C8.49615 -0.127852 9.64145 -0.0431897 10.8288 0.398185Z" transform="translate(0.514648)" fill="#CFD5DC"/>
<path d="M44.2342 16.2509H40.6598V22.3796H38.6426V7.22949H43.6803C45.3944 7.22949 46.7113 7.61796 47.631 8.39489C48.5578 9.17181 49.0211 10.3025 49.0211 11.787C49.0211 12.7304 48.7633 13.5524 48.2477 14.2531C47.739 14.9537 47.0283 15.4774 46.1155 15.8243L49.69 22.2547V22.3796H47.537L44.2342 16.2509ZM40.6598 14.6173H43.743C44.7394 14.6173 45.5302 14.3606 46.1155 13.8473C46.7078 13.3339 47.0039 12.6472 47.0039 11.787C47.0039 10.8505 46.7217 10.1326 46.1573 9.63311C45.5999 9.13366 44.7917 8.88047 43.7326 8.87353H40.6598V14.6173Z" transform="translate(0.514648)" fill="#CFD5DC"/>
<path d="M56.2328 22.5877C54.6999 22.5877 53.4526 22.0882 52.4911 21.0893C51.5295 20.0835 51.0487 18.7412 51.0487 17.0625V16.7087C51.0487 15.5919 51.2613 14.5964 51.6863 13.7224C52.1183 12.8414 52.7175 12.1547 53.484 11.6621C54.2574 11.1627 55.0936 10.913 55.9924 10.913C57.4626 10.913 58.6053 11.3951 59.4206 12.3593C60.2358 13.3235 60.6434 14.704 60.6434 16.5006V17.3018H52.9823C53.0102 18.4117 53.3342 19.31 53.9543 19.9968C54.5814 20.6766 55.3757 21.0165 56.3373 21.0165C57.0201 21.0165 57.5985 20.8778 58.0723 20.6003C58.5461 20.3228 58.9607 19.9552 59.316 19.4973L60.4971 20.413C59.5495 21.8628 58.128 22.5877 56.2328 22.5877ZM55.9924 12.4946C55.212 12.4946 54.557 12.779 54.0275 13.3478C53.4979 13.9097 53.1704 14.7005 53.045 15.7202H58.7098V15.5745C58.6541 14.5964 58.3893 13.8403 57.9155 13.3062C57.4417 12.7651 56.8007 12.4946 55.9924 12.4946Z" transform="translate(0.514648)" fill="#CFD5DC"/>
<path d="M69.8723 22.3796C69.7608 22.1576 69.6702 21.7622 69.6005 21.1934C68.7017 22.1229 67.6286 22.5877 66.3814 22.5877C65.2665 22.5877 64.3503 22.2755 63.6326 21.6512C62.9219 21.02 62.5665 20.2222 62.5665 19.258C62.5665 18.0857 63.0125 17.177 63.9043 16.5318C64.8032 15.8798 66.0644 15.5537 67.6879 15.5537H69.5692V14.6693C69.5692 13.9964 69.3671 13.4623 68.963 13.0669C68.5588 12.6645 67.9631 12.4634 67.1757 12.4634C66.4859 12.4634 65.9076 12.6368 65.4407 12.9836C64.9739 13.3305 64.7405 13.7501 64.7405 14.2427H62.7965C62.7965 13.6808 62.995 13.1397 63.3922 12.6194C63.7963 12.0922 64.3398 11.676 65.0227 11.3708C65.7125 11.0656 66.4685 10.913 67.2907 10.913C68.5937 10.913 69.6144 11.239 70.353 11.8911C71.0916 12.5362 71.4748 13.4276 71.5027 14.5652V19.7471C71.5027 20.7807 71.6351 21.6027 71.8999 22.2131V22.3796H69.8723ZM66.6636 20.9125C67.2698 20.9125 67.8446 20.7564 68.3881 20.4442C68.9316 20.1321 69.3253 19.7262 69.5692 19.2268V16.9168H68.0537C65.6846 16.9168 64.5001 17.607 64.5001 18.9875C64.5001 19.591 64.7021 20.0627 65.1063 20.4026C65.5104 20.7425 66.0295 20.9125 66.6636 20.9125Z" transform="translate(0.514648)" fill="#CFD5DC"/>
<path d="M79.0697 21.0165C79.7596 21.0165 80.3623 20.8084 80.8779 20.3922C81.3935 19.976 81.6792 19.4557 81.7349 18.8314H83.564C83.5291 19.4765 83.3062 20.0904 82.8951 20.6731C82.484 21.2558 81.9335 21.7206 81.2437 22.0674C80.5609 22.4143 79.8362 22.5877 79.0697 22.5877C77.5299 22.5877 76.3035 22.0778 75.3907 21.0581C74.4849 20.0315 74.032 18.6302 74.032 16.8544V16.5318C74.032 15.4358 74.2341 14.4612 74.6382 13.6079C75.0424 12.7547 75.6207 12.0922 76.3732 11.6205C77.1327 11.1488 78.0281 10.913 79.0593 10.913C80.3274 10.913 81.3796 11.291 82.2157 12.0471C83.0588 12.8033 83.5082 13.7848 83.564 14.9918H81.7349C81.6792 14.2635 81.4005 13.6669 80.8988 13.2021C80.4041 12.7304 79.7909 12.4946 79.0593 12.4946C78.0768 12.4946 77.3139 12.8484 76.7704 13.5559C76.2338 14.2565 75.9656 15.2728 75.9656 16.6047V16.9688C75.9656 18.266 76.2338 19.2649 76.7704 19.9656C77.3069 20.6662 78.0733 21.0165 79.0697 21.0165Z" transform="translate(0.514648)" fill="#CFD5DC"/>
<path d="M88.3613 8.39489V11.1211H90.4725V12.609H88.3613V19.591C88.3613 20.0419 88.4554 20.3818 88.6435 20.6107C88.8316 20.8327 89.1522 20.9437 89.6051 20.9437C89.828 20.9437 90.1346 20.902 90.5248 20.8188V22.3796C90.0162 22.5183 89.5214 22.5877 89.0407 22.5877C88.1767 22.5877 87.5252 22.3276 87.0862 21.8073C86.6472 21.287 86.4277 20.5483 86.4277 19.591V12.609H84.3688V11.1211H86.4277V8.39489H88.3613Z" transform="translate(0.514648)" fill="#CFD5DC"/>
</svg>
