<svg width="157" height="28" viewBox="0 0 157 28" fill="none" xmlns="http://www.w3.org/2000/svg">
<path d="M15.3507 16.3182C16.8809 16.3182 18.1214 15.0828 18.1214 13.559C18.1214 12.0351 16.8809 10.7998 15.3507 10.7998C13.8205 10.7998 12.5801 12.0351 12.5801 13.559C12.5801 15.0828 13.8205 16.3182 15.3507 16.3182Z" fill="#CFD5DC"/>
<path fill-rule="evenodd" clip-rule="evenodd" d="M15.351 8.44824C11.6362 8.44824 8.15286 8.98618 5.60224 9.8717C4.09395 10.3954 2.91965 11.0424 2.13266 11.7129C1.33419 12.3932 1 13.0378 1 13.5582C1 14.0985 1.36145 14.7885 2.21417 15.5157C3.05254 16.2307 4.29828 16.9201 5.88633 17.4607C8.39166 18.3135 11.7596 18.7232 15.351 18.7232C18.8477 18.7232 22.1452 18.2878 24.6283 17.4685C26.2742 16.9254 27.5685 16.2393 28.4406 15.5243C29.328 14.7968 29.7019 14.1063 29.7019 13.5582C29.7019 13.0387 29.3539 12.3888 28.5248 11.6999C27.7098 11.0226 26.5014 10.3711 24.9701 9.8461C22.4278 8.9745 19.0289 8.44824 15.351 8.44824ZM5.27426 8.92702C7.9543 7.99656 11.5531 7.44824 15.351 7.44824C19.113 7.44824 22.6255 7.98514 25.2944 8.90015C26.9025 9.45146 28.229 10.1538 29.1639 10.9308C30.0848 11.696 30.7019 12.6005 30.7019 13.5582C30.7019 14.5497 30.053 15.4955 29.0746 16.2976C28.0811 17.1122 26.6669 17.8488 24.9416 18.4181C22.327 19.2808 18.9167 19.7232 15.351 19.7232C11.7014 19.7232 8.21267 19.3089 5.5641 18.4073C3.89112 17.8379 2.52426 17.0944 1.56527 16.2766C0.620651 15.471 0 14.5281 0 13.5582C0 12.6133 0.587294 11.7159 1.48412 10.9517C2.39244 10.1778 3.68727 9.47803 5.27426 8.92702Z" fill="#CFD5DC"/>
<path fill-rule="evenodd" clip-rule="evenodd" d="M20.2885 1.28089C19.292 1.64573 18.1217 2.36271 16.9002 3.42133C14.8722 5.17893 12.7166 7.84797 10.8794 11.0205C9.02385 14.2248 7.75185 17.498 7.24811 20.1401C6.95023 21.7024 6.92642 23.038 7.11642 24.0513C7.30909 25.0789 7.7025 25.6898 8.15658 25.9506C8.62859 26.2217 9.41109 26.2539 10.4696 25.8816C11.5106 25.5155 12.7326 24.7852 13.996 23.6854C15.9892 21.9503 18.0279 19.2499 19.8218 16.152C21.5686 13.1356 22.8368 10.0739 23.3645 7.52321C23.7142 5.83247 23.764 4.3737 23.5778 3.26478C23.3885 2.13704 22.975 1.4689 22.4968 1.1943C22.0429 0.933601 21.3019 0.90985 20.2885 1.28089ZM19.9447 0.341849C21.0705 -0.0703368 22.1637 -0.150154 22.9948 0.327127C23.8559 0.821591 24.3548 1.85333 24.564 3.09921C24.7763 4.36391 24.7106 5.9525 24.3437 7.72578C23.7878 10.413 22.4687 13.5767 20.6872 16.6531C18.8638 19.8019 16.7603 22.6049 14.6526 24.4396C13.3213 25.5986 11.9917 26.4063 10.8014 26.825C9.62869 27.2374 8.50018 27.3011 7.65858 26.8178C6.83805 26.3466 6.3504 25.3922 6.13354 24.2356C5.91401 23.0648 5.9522 21.5976 6.26581 19.9528C6.7954 17.1751 8.11657 13.7961 10.0141 10.5193C11.8937 7.27354 14.1158 4.51119 16.2452 2.66564C17.5283 1.55363 18.802 0.760226 19.9447 0.341849Z" fill="#CFD5DC"/>
<path fill-rule="evenodd" clip-rule="evenodd" d="M10.4803 1.33551C9.40368 0.935279 8.61447 0.958232 8.13613 1.23402C7.68325 1.4951 7.29314 2.12127 7.11001 3.17984C6.9299 4.22099 6.96906 5.58825 7.27995 7.17058C7.7961 9.79767 9.04144 12.9902 10.8839 16.1597C12.7449 19.3609 14.9573 22.0933 17.0045 23.8477C18.2151 24.8851 19.3656 25.5731 20.3429 25.9155C21.3341 26.2628 22.0635 26.2285 22.5177 25.9666C22.9886 25.6951 23.4068 25.0373 23.6114 23.9392C23.8126 22.859 23.7876 21.4405 23.4619 19.8015C22.9479 17.2158 21.6169 14.1084 19.8177 11.0133C18.0659 7.99989 16.0357 5.3765 14.0799 3.64712C12.7835 2.50081 11.5388 1.72899 10.4803 1.33551ZM10.8288 0.398185C12.0343 0.846317 13.383 1.69602 14.7423 2.89798C16.8022 4.7194 18.8956 7.43728 20.6822 10.5108C22.5109 13.6564 23.899 16.8713 24.4427 19.6066C24.7861 21.3343 24.8249 22.8854 24.5945 24.1223C24.3674 25.3412 23.8586 26.3478 23.0172 26.8329C22.198 27.3052 21.1256 27.2493 20.0122 26.8592C18.8848 26.4642 17.6279 25.6989 16.3538 24.607C14.2022 22.7632 11.9224 19.9359 10.0194 16.6623C8.13437 13.4197 6.84085 10.1228 6.29871 7.36337C5.97204 5.70076 5.91781 4.20502 6.12465 3.00938C6.32848 1.83116 6.8057 0.846732 7.63665 0.367691C8.49615 -0.127852 9.64145 -0.0431897 10.8288 0.398185Z" fill="#CFD5DC"/>
<path d="M44.2342 16.251H40.6598V22.3797H38.6426V7.22959H43.6803C45.3944 7.22959 46.7113 7.61805 47.631 8.39498C48.5578 9.17191 49.0211 10.3026 49.0211 11.7871C49.0211 12.7305 48.7633 13.5525 48.2477 14.2532C47.739 14.9538 47.0283 15.4775 46.1155 15.8244L49.69 22.2548V22.3797H47.537L44.2342 16.251ZM40.6598 14.6173H43.743C44.7394 14.6173 45.5302 14.3607 46.1155 13.8474C46.7078 13.334 47.0039 12.6473 47.0039 11.7871C47.0039 10.8506 46.7217 10.1327 46.1573 9.63321C45.5999 9.13376 44.7917 8.88056 43.7326 8.87363H40.6598V14.6173Z" fill="#CFD5DC"/>
<path d="M56.2328 22.5878C54.6999 22.5878 53.4526 22.0883 52.4911 21.0894C51.5295 20.0836 51.0487 18.7413 51.0487 17.0626V16.7088C51.0487 15.592 51.2613 14.5965 51.6863 13.7225C52.1183 12.8415 52.7175 12.1548 53.484 11.6622C54.2574 11.1628 55.0936 10.9131 55.9924 10.9131C57.4626 10.9131 58.6053 11.3952 59.4206 12.3594C60.2358 13.3236 60.6434 14.7041 60.6434 16.5007V17.3019H52.9823C53.0102 18.4118 53.3342 19.3101 53.9543 19.9969C54.5814 20.6767 55.3757 21.0166 56.3373 21.0166C57.0201 21.0166 57.5985 20.8779 58.0723 20.6004C58.5461 20.3229 58.9607 19.9553 59.316 19.4974L60.4971 20.4131C59.5495 21.8629 58.128 22.5878 56.2328 22.5878ZM55.9924 12.4947C55.212 12.4947 54.557 12.7791 54.0275 13.3479C53.4979 13.9098 53.1704 14.7006 53.045 15.7203H58.7098V15.5746C58.6541 14.5965 58.3893 13.8404 57.9155 13.3063C57.4417 12.7652 56.8007 12.4947 55.9924 12.4947Z" fill="#CFD5DC"/>
<path d="M69.8723 22.3797C69.7608 22.1577 69.6702 21.7623 69.6005 21.1935C68.7017 22.123 67.6286 22.5878 66.3814 22.5878C65.2665 22.5878 64.3503 22.2756 63.6326 21.6513C62.9219 21.0201 62.5665 20.2223 62.5665 19.2581C62.5665 18.0858 63.0125 17.177 63.9043 16.5319C64.8032 15.8799 66.0643 15.5538 67.6878 15.5538H69.5692V14.6694C69.5692 13.9965 69.3671 13.4624 68.963 13.067C68.5588 12.6646 67.9631 12.4635 67.1757 12.4635C66.4859 12.4635 65.9076 12.6369 65.4407 12.9837C64.9739 13.3306 64.7405 13.7502 64.7405 14.2428H62.7965C62.7965 13.6809 62.995 13.1398 63.3922 12.6195C63.7963 12.0923 64.3398 11.6761 65.0227 11.3709C65.7125 11.0657 66.4685 10.9131 67.2907 10.9131C68.5937 10.9131 69.6144 11.2391 70.353 11.8912C71.0916 12.5363 71.4748 13.4277 71.5027 14.5653V19.7472C71.5027 20.7807 71.6351 21.6028 71.8999 22.2132V22.3797H69.8723ZM66.6636 20.9125C67.2698 20.9125 67.8446 20.7565 68.3881 20.4443C68.9316 20.1322 69.3253 19.7263 69.5692 19.2269V16.9169H68.0537C65.6846 16.9169 64.5001 17.6071 64.5001 18.9876C64.5001 19.5911 64.7021 20.0628 65.1063 20.4027C65.5104 20.7426 66.0295 20.9125 66.6636 20.9125Z" fill="#CFD5DC"/>
<path d="M79.0697 21.0166C79.7596 21.0166 80.3623 20.8085 80.8779 20.3923C81.3935 19.9761 81.6792 19.4558 81.7349 18.8315H83.564C83.5291 19.4766 83.3062 20.0905 82.8951 20.6732C82.484 21.2559 81.9335 21.7207 81.2437 22.0675C80.5609 22.4144 79.8362 22.5878 79.0697 22.5878C77.5299 22.5878 76.3035 22.0779 75.3907 21.0582C74.4849 20.0316 74.032 18.6303 74.032 16.8545V16.5319C74.032 15.4359 74.2341 14.4613 74.6382 13.608C75.0424 12.7548 75.6207 12.0923 76.3732 11.6206C77.1327 11.1489 78.0281 10.9131 79.0593 10.9131C80.3274 10.9131 81.3796 11.2911 82.2157 12.0472C83.0588 12.8034 83.5082 13.7849 83.564 14.9919H81.7349C81.6792 14.2636 81.4005 13.667 80.8988 13.2022C80.4041 12.7305 79.7909 12.4947 79.0593 12.4947C78.0768 12.4947 77.3139 12.8484 76.7704 13.556C76.2338 14.2566 75.9656 15.2729 75.9656 16.6048V16.9689C75.9656 18.2661 76.2338 19.265 76.7704 19.9657C77.3069 20.6663 78.0733 21.0166 79.0697 21.0166Z" fill="#CFD5DC"/>
<path d="M88.3613 8.39498V11.1212H90.4725V12.6091H88.3613V19.5911C88.3613 20.042 88.4554 20.3819 88.6435 20.6108C88.8316 20.8328 89.1522 20.9438 89.6051 20.9438C89.828 20.9438 90.1346 20.9021 90.5248 20.8189V22.3797C90.0162 22.5184 89.5214 22.5878 89.0407 22.5878C88.1767 22.5878 87.5252 22.3277 87.0862 21.8074C86.6472 21.2871 86.4277 20.5484 86.4277 19.5911V12.6091H84.3688V11.1212H86.4277V8.39498H88.3613Z" fill="#CFD5DC"/>
<path d="M110.049 22.3797H108.031L100.37 10.705V22.3797H98.3531V7.22959H100.37L108.052 18.9564V7.22959H110.049V22.3797Z" fill="#CFD5DC"/>
<path d="M120.291 22.3797C120.18 22.1577 120.089 21.7623 120.02 21.1935C119.121 22.123 118.048 22.5878 116.8 22.5878C115.686 22.5878 114.769 22.2756 114.052 21.6513C113.341 21.0201 112.986 20.2223 112.986 19.2581C112.986 18.0858 113.431 17.177 114.323 16.5319C115.222 15.8799 116.483 15.5538 118.107 15.5538H119.988V14.6694C119.988 13.9965 119.786 13.4624 119.382 13.067C118.978 12.6646 118.382 12.4635 117.595 12.4635C116.905 12.4635 116.327 12.6369 115.86 12.9837C115.393 13.3306 115.159 13.7502 115.159 14.2428H113.215C113.215 13.6809 113.414 13.1398 113.811 12.6195C114.215 12.0923 114.759 11.6761 115.442 11.3709C116.131 11.0657 116.887 10.9131 117.71 10.9131C119.013 10.9131 120.033 11.2391 120.772 11.8912C121.511 12.5363 121.894 13.4277 121.922 14.5653V19.7472C121.922 20.7807 122.054 21.6028 122.319 22.2132V22.3797H120.291ZM117.083 20.9125C117.689 20.9125 118.264 20.7565 118.807 20.4443C119.351 20.1322 119.744 19.7263 119.988 19.2269V16.9169H118.473C116.104 16.9169 114.919 17.6071 114.919 18.9876C114.919 19.5911 115.121 20.0628 115.525 20.4027C115.929 20.7426 116.449 20.9125 117.083 20.9125Z" fill="#CFD5DC"/>
<path d="M127.576 8.39498V11.1212H129.687V12.6091H127.576V19.5911C127.576 20.042 127.67 20.3819 127.858 20.6108C128.046 20.8328 128.367 20.9438 128.82 20.9438C129.043 20.9438 129.349 20.9021 129.74 20.8189V22.3797C129.231 22.5184 128.736 22.5878 128.255 22.5878C127.391 22.5878 126.74 22.3277 126.301 21.8074C125.862 21.2871 125.643 20.5484 125.643 19.5911V12.6091H123.584V11.1212H125.643V8.39498H127.576Z" fill="#CFD5DC"/>
<path d="M134.056 22.3797H132.123V11.1212H134.056V22.3797ZM131.966 8.13485C131.966 7.82269 132.06 7.55909 132.248 7.34405C132.443 7.12901 132.729 7.02148 133.105 7.02148C133.481 7.02148 133.767 7.12901 133.962 7.34405C134.157 7.55909 134.255 7.82269 134.255 8.13485C134.255 8.44701 134.157 8.70714 133.962 8.91525C133.767 9.12335 133.481 9.22741 133.105 9.22741C132.729 9.22741 132.443 9.12335 132.248 8.91525C132.06 8.70714 131.966 8.44701 131.966 8.13485Z" fill="#CFD5DC"/>
<path d="M140.892 19.768L143.693 11.1212H145.668L141.613 22.3797H140.139L136.042 11.1212H138.017L140.892 19.768Z" fill="#CFD5DC"/>
<path d="M152.075 22.5878C150.542 22.5878 149.295 22.0883 148.333 21.0894C147.372 20.0836 146.891 18.7413 146.891 17.0626V16.7088C146.891 15.592 147.103 14.5965 147.528 13.7225C147.96 12.8415 148.56 12.1548 149.326 11.6622C150.099 11.1628 150.936 10.9131 151.834 10.9131C153.305 10.9131 154.447 11.3952 155.263 12.3594C156.078 13.3236 156.485 14.7041 156.485 16.5007V17.3019H148.824C148.852 18.4118 149.176 19.3101 149.796 19.9969C150.423 20.6767 151.218 21.0166 152.179 21.0166C152.862 21.0166 153.441 20.8779 153.914 20.6004C154.388 20.3229 154.803 19.9553 155.158 19.4974L156.339 20.4131C155.392 21.8629 153.97 22.5878 152.075 22.5878ZM151.834 12.4947C151.054 12.4947 150.399 12.7791 149.87 13.3479C149.34 13.9098 149.013 14.7006 148.887 15.7203H154.552V15.5746C154.496 14.5965 154.231 13.8404 153.758 13.3063C153.284 12.7652 152.643 12.4947 151.834 12.4947Z" fill="#CFD5DC"/>
</svg>
