<svg width="85" height="42" viewBox="0 0 85 42" fill="none" xmlns="http://www.w3.org/2000/svg">
<path d="M28.4429 24.4307C29.2998 24.748 30.207 24.9082 31.1211 24.9033C32.0156 24.9053 32.9038 24.7539 33.7461 24.4531L31.147 16.0703H31.0957L28.4429 24.4307Z" fill="#CFD5DC"/>
<path d="M49.1187 20.0957H50.9595V20.0879C53.4155 20.0879 55.3721 19.2744 55.3721 16.6846C55.3721 14.1719 53.4155 13.3574 50.9595 13.3574H49.1187V20.0957Z" fill="#CFD5DC"/>
<path fill-rule="evenodd" clip-rule="evenodd" d="M42.9697 41.9971H0V0H85L42.9697 41.9971ZM42.0864 7.8916H50.4473L50.4551 7.89453C58.4473 7.89453 62.2041 10.7422 62.2041 16.9502C62.2041 22.5186 58.332 25.8457 51.8047 25.8457H49.1133V33.8496H36.7241L35.4873 30.0117C32.6143 30.9189 29.5293 30.9082 26.6631 29.9805L25.3823 33.8477H17.79L18.6221 31.6182L18.3223 31.874C16.4248 33.3994 14.0537 34.2363 11.124 34.292H10.6914C7.36865 34.2793 4.10547 33.4121 1.21631 31.7715L3.79785 26.6543C6.59424 28.3018 8.35352 28.6709 10.7246 28.6299C11.9536 28.6016 12.8423 28.376 13.4209 27.7803C13.7651 27.4326 13.9614 26.9658 13.9692 26.4775C13.9946 25.1416 12.082 24.5176 9.77734 23.7979C7.89258 23.2275 5.75684 22.4297 4.08984 21.1904C2.11279 19.7402 1.17041 17.9131 1.21631 15.3535C1.23145 13.5361 1.94873 11.7939 3.21875 10.4922C5.05762 8.59863 8.02295 7.44922 11.5874 7.44922H11.6055C14.8887 7.5 18.1216 8.2627 21.0806 9.68555L18.1714 14.7471C15.2212 13.3193 13.7363 13.1836 12.0586 13.0967C9.54932 12.9658 8.28662 13.8564 8.26904 14.8242C8.24316 15.999 10.6274 17.0635 12.8784 17.79C16.2993 18.875 20.6372 20.3203 21.2983 24.5049L27.5361 7.8916H34.7832L42.0864 27.7598V7.8916Z" fill="#CFD5DC"/>
<path d="M53.308 39.2509C53.324 38.8159 53.4677 38.3952 53.721 38.0411C53.9744 37.687 54.3263 37.415 54.733 37.2591C55.1397 37.1032 55.5833 37.0701 56.0087 37.164C56.4341 37.2579 56.8224 37.4746 57.1256 37.7873C57.4287 38.0999 57.6332 38.4947 57.7137 38.9225C57.7942 39.3503 57.7471 39.7923 57.5783 40.1936C57.4095 40.5949 57.1263 40.9378 56.7641 41.1797C56.4019 41.4215 55.9766 41.5517 55.541 41.554C55.2409 41.5567 54.9434 41.4984 54.6665 41.3827C54.3896 41.2669 54.1392 41.0962 53.9304 40.8808C53.7215 40.6655 53.5587 40.4099 53.4517 40.1298C53.3447 39.8496 53.2958 39.5506 53.308 39.2509ZM55.541 41.9992C56.0781 41.9907 56.6007 41.8239 57.0434 41.5199C57.4861 41.2159 57.8292 40.7882 58.0297 40.2902C58.2303 39.7923 58.2794 39.2463 58.1708 38.7206C58.0623 38.1949 57.8009 37.7128 57.4195 37.3349C57.0381 36.9569 56.5536 36.6998 56.0266 36.5957C55.4997 36.4916 54.9537 36.5452 54.4571 36.7498C53.9604 36.9543 53.5353 37.3008 53.2347 37.7457C52.9342 38.1906 52.7717 38.7142 52.7676 39.2509C52.7652 39.6145 52.8355 39.9748 52.9743 40.3109C53.1131 40.6469 53.3176 40.9519 53.5759 41.2079C53.8343 41.4639 54.1411 41.6657 54.4786 41.8016C54.816 41.9375 55.1772 42.0047 55.541 41.9992ZM54.9622 39.4787H55.5077L56.3451 40.8349H56.8726L55.9789 39.4531C56.4398 39.3968 56.7906 39.1537 56.7906 38.5933C56.7906 37.9689 56.427 37.6926 55.6792 37.6926H54.491V40.8349H54.9622V39.4787ZM54.9622 39.0744V38.0943H55.6127C55.9379 38.0943 56.2862 38.1685 56.2862 38.5652C56.2862 39.0411 55.9302 39.0769 55.5358 39.0769L54.9622 39.0744Z" fill="#CFD5DC"/>
</svg>
