<svg width="56" height="55" viewBox="0 0 56 55" fill="none" xmlns="http://www.w3.org/2000/svg">
<path d="M51.5829 11.3256C50.8044 11.9992 50.0303 12.6728 49.2561 13.3463C47.8672 14.5552 46.4826 15.7685 45.098 16.9773C43.8329 18.0835 42.5722 19.1853 41.3071 20.2916C39.7943 21.6164 38.277 22.9368 36.7642 24.2616C35.875 25.0422 34.9815 25.8139 34.0968 26.599C33.9508 26.7283 33.8756 26.7016 33.765 26.5677C33.0086 25.689 32.2433 24.8102 31.4825 23.9359C30.5978 22.9189 29.7175 21.9019 28.8372 20.8804C27.6385 19.4976 26.4397 18.1148 25.2409 16.7364C24.7587 16.1833 24.281 15.6257 23.7944 15.0815C23.6529 14.9209 23.6263 14.8228 23.7988 14.6488C25.1392 13.3106 26.4706 11.9635 27.8065 10.6164C28.0321 10.3889 28.0321 10.3889 28.2489 10.6119L34.4418 16.8524C34.6984 17.1111 34.6984 17.1111 34.9726 16.8524C35.7291 16.1476 36.4899 15.4428 37.2463 14.7336C39.2325 12.8824 41.2231 11.0312 43.2092 9.18006C45.0538 7.4627 46.8984 5.74088 48.7474 4.02352C48.7917 3.97446 48.8359 3.92539 48.8757 3.87186C49.2871 3.55961 49.6454 3.18492 50.0214 2.83252C51.0079 1.91809 51.9899 0.99919 52.9763 0.0847527C53.0073 0.053528 53.0427 0.026764 53.0781 0C53.1577 0.06691 53.1665 0.160584 53.1975 0.240876C54.1176 2.56042 55.0421 4.87997 55.9666 7.19506C56.0374 7.36902 55.9932 7.45824 55.8649 7.56529C54.498 8.75183 53.1356 9.94283 51.7731 11.1383C51.7245 11.1829 51.6758 11.232 51.6316 11.2766L51.5829 11.3256Z" fill="#CFD5DC"/>
<path d="M51.6135 46.8546C51.6135 36.4389 51.6135 26.0233 51.6135 15.6076C51.6135 15.4872 51.6091 15.3712 51.6047 15.2508C51.1137 15.621 50.6713 16.0448 50.2068 16.4462C48.8046 17.664 47.4068 18.8818 46.0134 20.104C44.85 21.121 43.6866 22.138 42.5276 23.1595C41.3687 24.181 40.2009 25.1936 39.0375 26.2062C37.9891 27.1206 36.9452 28.0395 35.9012 28.9539C35.2023 29.5695 34.499 30.1806 33.8 30.7962C33.685 30.8988 33.6098 30.9077 33.4992 30.7784C32.2828 29.3643 31.0619 27.9548 29.8366 26.5496C28.9563 25.5371 28.0805 24.529 27.2002 23.5164C26.1031 22.254 25.0061 20.9916 23.9135 19.7248C22.9448 18.6052 21.9716 17.49 21.0028 16.3749C20.5649 15.8708 20.1314 15.3667 19.689 14.8671C19.5962 14.7646 19.5917 14.6843 19.689 14.5817C20.3216 13.9483 20.9542 13.3148 21.5867 12.6814C21.6664 12.6011 21.7504 12.5298 21.8256 12.4495C23.8339 10.4288 25.8377 8.40364 27.8416 6.3785C27.9964 6.22237 28.0716 6.23575 28.2176 6.38296C30.3364 8.52854 32.4553 10.6697 34.5742 12.8063C34.7334 12.9669 34.813 12.9624 34.9723 12.8108C36.7903 11.1023 38.6084 9.40283 40.4353 7.70778C41.5677 6.65506 42.6957 5.60234 43.8281 4.54962C44.3192 4.09017 44.8146 3.63519 45.31 3.17574C45.372 3.11775 45.4516 3.06422 45.4825 2.97501C45.3941 2.96608 45.3056 2.95716 45.2215 2.95716C32.1766 2.95716 19.1273 2.9527 6.08233 2.94824C3.03453 2.94824 0.83162 4.96446 0.194634 7.37323C0.119435 7.66317 0.106164 7.97095 0 8.25644V49.696C0.0884702 49.87 0.0840467 50.0663 0.119435 50.2492C0.636986 52.7828 2.71604 54.692 5.2684 54.9641C5.32591 54.973 5.38341 54.9864 5.44092 54.9998H46.2699C46.5221 54.9507 46.7698 54.9061 47.0175 54.8481C49.7778 54.1701 51.5958 51.8416 51.6091 48.9734C51.6135 48.2686 51.6135 47.5594 51.6135 46.8546ZM19.9014 47.6397C19.2202 48.7192 18.2381 49.4061 17.0792 49.8655C15.5398 50.4767 13.9296 50.6016 12.2974 50.5213C10.8332 50.4499 9.4265 50.1287 8.10387 49.473C6.90952 48.8797 5.88769 48.0813 5.24628 46.8769C4.76854 45.9803 4.57833 44.9945 4.47217 43.9909C4.45005 43.7634 4.44563 43.5314 4.42351 43.2994C4.41024 43.1433 4.46332 43.0943 4.61815 43.0987C4.80836 43.0987 5.00299 43.1032 5.1932 43.1032C5.76826 43.1032 6.34331 43.1032 6.91837 43.1032C7.67037 43.1032 8.42236 43.1076 9.17436 43.0987C9.34688 43.0987 9.40438 43.1522 9.40881 43.3218C9.41323 43.8749 9.51055 44.4146 9.64325 44.9499C9.87328 45.8777 10.4439 46.4487 11.3596 46.6717C12.3239 46.9037 13.2971 46.984 14.2614 46.694C14.9382 46.4888 15.4734 46.0874 15.6238 45.3424C15.8052 44.4592 15.5398 43.6295 14.7966 43.1299C14.0845 42.6482 13.2927 42.3493 12.492 42.0728C11.1119 41.5955 9.7273 41.136 8.44448 40.4223C7.62613 39.9673 6.87856 39.4187 6.25484 38.7094C4.47217 36.6709 4.47659 33.1425 7.3563 31.2244C8.48429 30.4706 9.74057 30.0646 11.0632 29.8684C12.6159 29.6364 14.1641 29.6676 15.6902 30.078C17.5702 30.5821 19.083 31.5947 20.0474 33.3477C20.4101 34.0034 20.6136 34.7394 20.6401 35.4933C20.6445 35.6405 20.5959 35.6851 20.4543 35.6851C18.9282 35.6806 17.4021 35.6806 15.876 35.6806C15.7875 35.6806 15.6946 35.694 15.6902 35.5557C15.6504 34.5164 14.9824 33.9588 14.1198 33.6376C13.0759 33.254 12.0143 33.3076 11.0101 33.825C10.4085 34.1372 10.0193 34.6279 9.97502 35.3505C9.93963 35.9527 10.236 36.3854 10.6695 36.7467C11.2578 37.2374 11.9612 37.514 12.6645 37.7816C13.5934 38.1385 14.5578 38.3927 15.4779 38.7674C16.7695 39.2938 17.9948 39.9183 19.0167 40.9085C21.0073 42.8355 21.0161 45.8733 19.9014 47.6397ZM36.609 44.602C35.9145 44.5975 35.2244 44.5975 34.5299 44.5975H32.4509C31.4158 44.5975 30.3807 44.602 29.35 44.5975C29.005 44.5975 28.6599 44.5975 28.3149 44.593C28.1026 44.593 28.0937 44.66 28.138 44.8339C28.4786 46.2033 29.6641 47.0999 31.1813 47.0999C32.4288 47.0999 33.5302 46.7163 34.3663 45.7305C34.4459 45.6413 34.4901 45.6368 34.5697 45.7305C35.1758 46.4621 35.7818 47.1892 36.3966 47.9118C36.494 48.0233 36.4453 48.0902 36.3745 48.175C35.7906 48.9288 35.0386 49.4775 34.1716 49.8477C31.8227 50.8424 29.465 50.8469 27.1825 49.696C25.2715 48.7325 24.1037 47.1267 23.741 44.999C23.4269 43.1478 23.5154 41.3011 24.2541 39.548C25.214 37.2597 26.9834 36.033 29.3987 35.7431C30.6107 35.5959 31.8183 35.6628 32.9729 36.1089C34.9192 36.8538 36.0605 38.3213 36.5824 40.3153C36.7903 41.1048 36.8655 41.9077 36.8611 42.7196C36.8611 43.2682 36.8523 43.8214 36.8655 44.37C36.87 44.5663 36.7948 44.602 36.609 44.602Z" fill="#CFD5DC"/>
<path d="M30.8451 39.151C29.5933 38.9547 28.7085 39.49 28.2972 40.6988C28.2264 40.9308 28.1689 41.1716 28.1202 41.4081C28.0804 41.5776 28.1158 41.6222 28.2927 41.6222C28.9607 41.6133 29.6331 41.6177 30.301 41.6177C30.9867 41.6177 31.6723 41.6177 32.3535 41.6177C32.4331 41.6177 32.5393 41.6534 32.5437 41.5062C32.5835 40.4446 32.2429 39.3695 30.8451 39.151Z" fill="#CFD5DC"/>
</svg>
