<svg width="102" height="52" viewBox="0 0 102 52" fill="none" xmlns="http://www.w3.org/2000/svg">
<path fill-rule="evenodd" clip-rule="evenodd" d="M92.6593 26.3746C90.5862 25.8238 88.188 25.1841 85.9068 24.578C86.1699 26.0924 86.4177 27.4138 86.6473 28.7354C88.9704 29.423 90.9587 30.1392 93.2355 30.7843C94.5447 31.1551 96.0937 30.9478 96.9683 29.9131C97.8512 28.8686 97.6981 27.5043 97.133 26.3743C96.256 24.6208 93.438 19.369 92.9335 18.4258C95.1425 15.8526 99.1642 11.1315 100.455 9.60622C101.745 8.08092 100.756 5.30526 97.3801 6.28408C94.9262 6.99642 88.3033 8.73139 87.4505 8.93216C86.9106 8.05902 83.9691 2.94992 82.8874 1.35794C81.4462 -0.762928 78.5518 -0.465862 77.5897 2.71881C77.3426 3.53538 76.3456 9.60381 75.8605 12.2733C75.3104 12.462 68.9816 14.3357 66.2809 15.2404C65.1359 15.6241 64.0227 16.5543 63.8103 17.8538C63.595 19.1725 64.5224 20.2577 65.5671 20.8208C67.8178 21.856 69.9214 22.8045 72.0723 23.8151C73.5854 22.8379 75.1382 21.8909 76.7112 20.8752C74.2876 19.914 69.4287 18.0454 69.4372 17.9082C72.5007 16.9279 76.0068 15.7856 79.0718 14.8049C79.6531 11.6667 80.6396 5.43333 80.7736 5.41383C82.2787 7.86113 83.9832 10.605 85.4946 13.0627L95.0742 10.5858C92.9725 13.062 90.7628 15.8711 88.6218 18.3933L92.6593 26.3746ZM21.0315 45.1458C20.7166 47.4347 20.4071 49.6887 20.0895 52H16.0283C16.4251 48.955 16.8034 45.9487 17.2118 42.9462C17.5284 40.6145 17.7447 38.2582 18.2451 35.9649C19.2408 31.4122 23.5038 27.7992 28.1517 27.3654C33.974 26.8221 38.2782 31.3135 37.5106 37.1318C36.69 43.3523 30.1114 47.947 24.1498 46.4101C23.109 46.142 22.1397 45.6032 21.0315 45.1458ZM33.3789 36.3188C33.3935 35.6831 33.2793 35.0511 33.0433 34.4601C32.8072 33.8691 32.4541 33.3314 32.0048 32.8788C31.5555 32.4261 31.0192 32.0679 30.4279 31.8253C29.8365 31.5827 29.2022 31.4607 28.5625 31.4666C25.2327 31.4184 22.1242 34.4517 22.129 37.7461C22.1331 40.509 24.2736 42.5955 27.0879 42.5798C30.436 42.5613 33.3821 39.6291 33.3789 36.3188ZM18.8547 24.6492L14.889 27.5761C14.3343 26.9384 13.893 26.3021 13.3259 25.8074C12.3106 24.9215 11.3119 24.8098 10.1398 25.4853C8.97334 26.1577 8.52257 27.3259 9.38898 28.3565C10.6265 29.8298 11.947 31.24 13.2988 32.6125C16.6414 36.0054 17.1888 39.2103 14.9488 42.6455C12.6523 46.167 7.94271 47.8156 4.08495 46.4251C1.81177 45.6051 0.697579 43.8011 0 41.535L4.36859 39.2062C4.69219 39.808 4.94191 40.3617 5.27181 40.8658C6.43444 42.6424 8.58022 42.9664 10.3234 41.654C11.8402 40.5122 11.8925 38.9286 10.391 37.2439C9.03655 35.7242 7.53288 34.3311 6.24333 32.76C1.94184 28.143 5.09838 22.0464 10.8021 20.816C14.326 20.1566 16.8795 21.3463 18.8547 24.6492ZM57.7607 46.193H53.6339C53.9507 43.7551 54.2748 41.3945 54.5555 39.029C54.6711 38.1674 54.7163 37.2979 54.6907 36.4291C54.5066 32.3657 51.2461 30.39 47.4613 32.0171C43.7576 33.6096 42.2973 38.2281 44.6516 40.9002C46.234 42.6966 48.8419 43.1104 51.164 41.9014C51.7383 41.6027 52.2605 41.2055 52.9642 40.7522C52.7571 42.4149 52.564 43.9669 52.3722 45.5074C47.3409 48.4227 40.8631 45.7 39.6397 40.7093C38.5928 36.7659 39.8783 33.3843 42.7296 30.617C45.5751 27.8551 48.9974 26.6374 52.9654 27.7058C56.6262 28.6914 59.1418 31.8539 58.9481 35.5908C58.7671 39.1205 58.1766 42.6301 57.7607 46.193ZM88.5046 46.226H82.9923L76.1911 36.0268C75.7067 39.5822 75.2579 42.8709 74.8059 46.1872H70.2416C71.2025 38.9286 72.1522 31.7567 73.0997 24.5917L78.0949 21.3933C77.6139 25.0905 77.1563 28.6081 76.6441 32.5451L84.3552 24.1114C84.6369 25.7044 84.8799 27.0787 85.1354 28.5238L79.8045 34.1065C82.6694 38.0966 85.5191 42.0678 88.5046 46.226ZM64.0167 46.187H59.8237C60.272 42.7589 60.7114 39.3983 61.151 36.0379C61.292 34.9616 61.3816 33.8756 61.5853 32.812C62.1681 29.7655 64.5786 27.8048 67.687 27.7963C68.5589 27.7939 69.429 27.7963 70.4877 27.7963C70.394 28.5628 70.3145 29.2232 70.2321 29.8835C70.1471 30.5643 70.0597 31.2451 69.9577 32.0487C69.1684 32.0487 68.4097 32.0727 67.6533 32.0431C66.426 31.995 65.8466 32.6491 65.6962 33.7714C65.216 37.3578 64.7403 40.9448 64.2693 44.5322C64.1986 45.0642 64.108 45.5938 64.0167 46.187Z" transform="translate(0.485352)" fill="#CFD5DC"/>
</svg>
