<svg width="107" height="20" viewBox="0 0 107 20" fill="none" xmlns="http://www.w3.org/2000/svg">
<path fill-rule="evenodd" clip-rule="evenodd" d="M107 6.39781C107 6.69301 106.915 6.98157 106.756 7.22702C106.596 7.47247 106.37 7.66377 106.105 7.77674C105.84 7.8897 105.548 7.91926 105.267 7.86167C104.986 7.80408 104.727 7.66193 104.524 7.45319C104.322 7.24446 104.183 6.97851 104.127 6.68899C104.072 6.39947 104.1 6.09937 104.21 5.82664C104.32 5.55392 104.506 5.32081 104.744 5.15681C104.983 4.99281 105.263 4.90527 105.55 4.90527C105.934 4.90572 106.303 5.06311 106.575 5.34292C106.847 5.62273 107 6.0021 107 6.39781Z" fill="#CFD5DC"/>
<path fill-rule="evenodd" clip-rule="evenodd" d="M15.082 14.0058C15.2421 14.5802 15.5376 15.105 15.9423 15.5336C16.3142 15.9404 16.765 16.2623 17.2655 16.4784C17.766 16.6945 18.305 16.8 18.8476 16.788C19.8253 16.788 21.1418 16.367 21.7985 15.4128C23.6447 15.4128 25.6554 15.4128 25.6554 15.4128C24.0259 19.5064 20.2554 19.9994 18.8476 19.9743C16.6381 19.9374 15.0298 19.1358 13.8729 18.0172C13.1668 17.3224 12.6015 16.4904 12.21 15.5692C11.8184 14.6481 11.6083 13.6561 11.5917 12.6508C11.5689 10.5646 12.4504 7.90486 14.7349 6.32009C15.9186 5.50051 17.3118 5.06049 18.7384 5.05563C20.4149 5.02837 22.0496 5.59433 23.3693 6.65885C24.914 7.88139 26.097 10.1118 26.097 12.5166C26.1094 13.015 26.0827 13.5136 26.0171 14.0075H15.082V14.0058ZM22.5448 11.0258C22.056 9.25486 20.363 8.22014 18.8476 8.24194C16.9607 8.27045 15.6718 9.35715 15.0999 11.0258H22.5448Z" fill="#CFD5DC"/>
<path fill-rule="evenodd" clip-rule="evenodd" d="M36.6084 5.72717H39.6163V7.29014C39.6212 7.05596 39.6789 6.82616 39.785 6.61892C39.891 6.41168 40.0425 6.23269 40.2274 6.09611C41.4918 5.15866 43.1245 5.05469 44.2211 5.05469V8.5915C42.5624 8.5915 41.7053 8.83802 41.0926 9.15833C40.2241 9.6128 39.9243 10.0589 39.8852 10.7163V19.9767H36.6084V5.72214V5.72717Z" fill="#CFD5DC"/>
<path fill-rule="evenodd" clip-rule="evenodd" d="M63.7615 15.0078C63.8186 16.0441 64.9103 17.0202 66.3409 17.0202C67.7716 17.0202 68.3109 16.4869 68.2799 15.5528C68.2506 14.7344 67.2615 14.186 66.2154 13.8624C65.7022 13.7047 64.5437 13.4548 64.2601 13.3593C62.6877 12.888 60.765 11.7594 60.765 9.3663C60.765 7.44444 62.5232 5.04297 66.3458 5.04297C69.3293 5.04297 71.1494 6.78706 71.2683 9.34114H67.7634C67.6999 8.78605 67.1491 7.80668 66.0509 7.79494C65.6157 7.80363 65.1984 7.97503 64.877 8.27715C64.5555 8.57926 64.3519 8.99144 64.3041 9.43673C64.2569 10.8253 66.3181 10.7884 67.2729 10.993C69.3 11.3955 71.7653 12.1535 71.7653 15.1402C71.7653 17.8452 69.7806 19.9683 66.1682 19.9683C62.3178 19.9683 60.198 17.4914 60.167 14.991L63.7615 15.0078Z" fill="#CFD5DC"/>
<path fill-rule="evenodd" clip-rule="evenodd" d="M58.72 5.82108H55.5638V6.81052C54.6465 5.87642 53.0235 5.05469 51.474 5.05469C47.2847 5.05469 44.2246 8.4238 44.2246 12.5023C44.2246 16.5539 47.3075 19.8979 51.474 19.8979C53.0203 19.8979 54.6302 19.2271 55.5638 18.2813V19.9767H58.7233L58.72 5.82108ZM51.4707 16.7216C49.0526 16.7216 47.5014 14.7579 47.5014 12.4956C47.5014 10.2333 49.0282 8.21753 51.4707 8.21753C53.9132 8.21753 55.44 10.2299 55.44 12.4956C55.44 14.7612 53.8855 16.7283 51.4707 16.7283V16.7216Z" fill="#CFD5DC"/>
<path fill-rule="evenodd" clip-rule="evenodd" d="M80.4681 5.05469C79.0343 5.05469 77.6327 5.49227 76.4406 6.31209C75.2484 7.13192 74.3193 8.29717 73.7706 9.66049C73.2219 11.0238 73.0783 12.524 73.358 13.9713C73.6378 15.4186 74.3282 16.748 75.342 17.7914C76.3559 18.8349 77.6476 19.5455 79.0538 19.8333C80.4601 20.1212 81.9177 19.9735 83.2423 19.4088C84.567 18.8441 85.6992 17.8878 86.4957 16.6608C87.2923 15.4339 87.7175 13.9913 87.7175 12.5157C87.717 10.537 86.9531 8.63957 85.5937 7.24046C84.2343 5.84134 82.3906 5.05513 80.4681 5.05469ZM80.4681 16.7937C79.6458 16.7931 78.8422 16.5415 78.1588 16.0709C77.4753 15.6002 76.9429 14.9316 76.6286 14.1495C76.3144 13.3674 76.2325 12.507 76.3933 11.677C76.5542 10.8471 76.9505 10.0848 77.5321 9.48661C78.1138 8.88842 78.8548 8.48115 79.6613 8.31629C80.4678 8.15142 81.3038 8.23637 82.0634 8.56039C82.8231 8.88441 83.4723 9.43296 83.9291 10.1367C84.3859 10.8404 84.6297 11.6677 84.6297 12.514C84.6299 13.0765 84.5224 13.6334 84.3133 14.1531C84.1042 14.6727 83.7977 15.1449 83.4112 15.5425C83.0247 15.9401 82.5658 16.2555 82.0608 16.4704C81.5558 16.6854 81.0146 16.7959 80.4681 16.7954V16.7937Z" fill="#CFD5DC"/>
<path fill-rule="evenodd" clip-rule="evenodd" d="M13.0501 0.577148H0V3.70477L4.74817 3.69806V19.9701H8.30196V3.69806L13.0501 3.70477V0.577148Z" fill="#CFD5DC"/>
<path fill-rule="evenodd" clip-rule="evenodd" d="M27.5488 5.72717H30.5551V7.29014C30.5598 7.05611 30.6173 6.8264 30.723 6.61917C30.8288 6.41194 30.98 6.23287 31.1645 6.09611C32.4306 5.15866 34.0617 5.05469 35.1599 5.05469V8.5915C33.5011 8.5915 32.6457 8.83802 32.0298 9.15833C31.1629 9.6128 30.8631 10.0589 30.8256 10.7163V19.9767H27.5488V5.72214V5.72717Z" fill="#CFD5DC"/>
<path fill-rule="evenodd" clip-rule="evenodd" d="M100.699 4.90525V0.595338H97.3586V4.90525H93.0227C93.0223 4.71197 93.0589 4.5205 93.1304 4.34178C93.2019 4.16306 93.307 4.00061 93.4395 3.86371C93.5721 3.7268 93.7296 3.61813 93.903 3.54391C94.0764 3.46969 94.2623 3.43138 94.4501 3.43116V0C91.6801 0.010062 89.7541 1.72229 89.7541 4.89519H87.7173V7.88194H89.7476V19.9748L93.0716 19.9883V7.88194H97.3521V20H100.699V7.88194H102.654V4.90525H100.699Z" fill="#CFD5DC"/>
</svg>
